<svg width="144" height="111" viewBox="0 0 144 111" fill="none" xmlns="http://www.w3.org/2000/svg">
<path d="M143.601 96.6688H0V96.7443H143.601V96.6688Z" fill="#EBEBEB"/>
<path d="M129.212 101.419H119.7V101.495H129.212V101.419Z" fill="#EBEBEB"/>
<path d="M95.1271 102.223H92.6313V102.298H95.1271V102.223Z" fill="#EBEBEB"/>
<path d="M119.413 98.6794H113.901V98.7549H119.413V98.6794Z" fill="#EBEBEB"/>
<path d="M27.4709 99.1755H15.0667V99.251H27.4709V99.1755Z" fill="#EBEBEB"/>
<path d="M31.8479 99.1755H30.0299V99.251H31.8479V99.1755Z" fill="#EBEBEB"/>
<path d="M64.6635 100.422H37.7584V100.497H64.6635V100.422Z" fill="#EBEBEB"/>
<path d="M68.0669 83.5005H12.6111C12.1766 83.4997 11.7602 83.3218 11.4533 83.0057C11.1464 82.6896 10.974 82.2612 10.974 81.8146V1.6737C10.9778 1.22965 11.1518 0.805059 11.4583 0.49216C11.7649 0.179261 12.1791 0.00332417 12.6111 0.00256348H68.0669C68.5018 0.00256348 68.9189 0.180185 69.2265 0.496353C69.534 0.812521 69.7068 1.24134 69.7068 1.68847V81.8146C69.7068 82.2617 69.534 82.6906 69.2265 83.0067C68.9189 83.3229 68.5018 83.5005 68.0669 83.5005ZM12.6111 0.0616146C12.1957 0.0623967 11.7975 0.232586 11.5041 0.534827C11.2106 0.837067 11.0458 1.24666 11.0458 1.6737V81.8146C11.0458 82.2417 11.2106 82.6513 11.5041 82.9535C11.7975 83.2557 12.1957 83.4259 12.6111 83.4267H68.0669C68.4826 83.4259 68.881 83.2558 69.1749 82.9537C69.4688 82.6515 69.6343 82.2419 69.635 81.8146V1.6737C69.6343 1.24639 69.4688 0.836803 69.1749 0.534646C68.881 0.23249 68.4826 0.0623951 68.0669 0.0616146H12.6111Z" fill="#EBEBEB"/>
<path d="M130.192 83.5005H74.7329C74.2982 83.4997 73.8815 83.3219 73.5741 83.0059C73.2667 82.6899 73.0937 82.2615 73.093 81.8146V1.6737C73.0975 1.22938 73.2722 0.804792 73.5792 0.491975C73.8861 0.179158 74.3006 0.00331587 74.7329 0.00256348H130.192C130.623 0.00410013 131.037 0.18038 131.342 0.493196C131.648 0.806012 131.822 1.23016 131.826 1.6737V81.8146C131.826 82.2607 131.654 82.6886 131.347 83.0046C131.041 83.3206 130.626 83.499 130.192 83.5005ZM74.7329 0.0616146C74.3172 0.0623951 73.9188 0.23249 73.6249 0.534646C73.331 0.836803 73.1655 1.24639 73.1648 1.6737V81.8146C73.1655 82.2419 73.331 82.6515 73.6249 82.9537C73.9188 83.2558 74.3172 83.4259 74.7329 83.4267H130.192C130.607 83.4259 131.006 83.2558 131.3 82.9537C131.594 82.6515 131.759 82.2419 131.76 81.8146V1.6737C131.759 1.24639 131.594 0.836803 131.3 0.534646C131.006 0.23249 130.607 0.0623951 130.192 0.0616146H74.7329Z" fill="#EBEBEB"/>
<path d="M116.259 16.0319H91.9305V41.8489H116.259V16.0319Z" fill="#F5F5F5"/>
<path d="M116.259 16.0319H115.981V41.8489H116.259V16.0319Z" fill="#E6E6E6"/>
<path d="M46.2615 16.8225C46.8804 12.9032 44.2914 9.21024 40.479 8.57405C36.6666 7.93785 33.0743 10.5994 32.4555 14.5187C31.8366 18.438 34.4255 22.131 38.238 22.7672C42.0504 23.4034 45.6427 20.7419 46.2615 16.8225Z" fill="#E0E0E0"/>
<path d="M45.2268 16.6497C45.7528 13.3179 43.552 10.1785 40.311 9.63765C37.0701 9.09682 34.0163 11.3594 33.4902 14.6912C32.9641 18.023 35.165 21.1624 38.4059 21.7033C41.6469 22.2441 44.7007 19.9815 45.2268 16.6497Z" fill="#F0F0F0"/>
<path d="M39.0767 11.4789V15.7512L36.3224 14.148" fill="#F0F0F0"/>
<path d="M39.0767 16.0466C39.0275 16.0458 38.9792 16.0326 38.936 16.0082L36.1875 14.4049C36.1212 14.3658 36.0728 14.3012 36.0528 14.2253C36.0329 14.1495 36.0431 14.0686 36.0812 14.0004C36.1193 13.9323 36.1821 13.8825 36.2559 13.862C36.3297 13.8416 36.4084 13.852 36.4747 13.8912L38.801 15.2435V11.479C38.801 11.4007 38.8313 11.3256 38.8851 11.2702C38.939 11.2148 39.012 11.1837 39.0882 11.1837C39.1644 11.1837 39.2374 11.2148 39.2913 11.2702C39.3452 11.3256 39.3754 11.4007 39.3754 11.479V15.7513C39.3754 15.8296 39.3452 15.9047 39.2913 15.9601C39.2374 16.0154 39.1644 16.0466 39.0882 16.0466H39.0767Z" fill="#E0E0E0"/>
<path d="M59.8845 31.775H22.8756V73.8547H59.8845V31.775Z" fill="#E0E0E0"/>
<path d="M61.0649 31.775H22.6804V73.8547H61.0649V31.775Z" fill="#F0F0F0"/>
<path d="M59.4422 33.1184H24.2427V71.9237H59.4422V33.1184Z" fill="white"/>
<path d="M59.4422 33.1184H58.4255V71.9237H59.4422V33.1184Z" fill="#E0E0E0"/>
<path d="M24.1537 61.0222V62.0682H58.5346V61.0222H24.1537Z" fill="#E0E0E0"/>
<path d="M59.4422 59.266H23.697V61.0228H59.4422V59.266Z" fill="#F0F0F0"/>
<path d="M114.576 25.9877H93.0363V40.7858H114.576V25.9877Z" fill="#FAFAFA"/>
<path d="M114.579 25.9877H113.005V40.7858H114.579V25.9877Z" fill="#F0F0F0"/>
<path d="M114.576 25.9877H93.0363V28.3208H114.576V25.9877Z" fill="#E0E0E0"/>
<path d="M113.005 25.9877H93.0363V28.3208H113.005V25.9877Z" fill="#E6E6E6"/>
<path d="M98.7602 29.7407H96.4884V31.4355H98.7602V29.7407Z" fill="white"/>
<path d="M101.457 29.7407H99.1852V31.4355H101.457V29.7407Z" fill="white"/>
<path d="M104.157 29.7407H101.885V31.4355H104.157V29.7407Z" fill="white"/>
<path d="M106.854 29.7407H104.582V31.4355H106.854V29.7407Z" fill="white"/>
<path d="M109.553 29.7407H107.281V31.4355H109.553V29.7407Z" fill="white"/>
<path d="M112.253 29.7407H109.981V31.4355H112.253V29.7407Z" fill="white"/>
<path d="M96.0605 31.8899H93.7887V33.5847H96.0605V31.8899Z" fill="white"/>
<path d="M98.7602 31.8899H96.4884V33.5847H98.7602V31.8899Z" fill="white"/>
<path d="M101.457 31.8899H99.1852V33.5847H101.457V31.8899Z" fill="white"/>
<path d="M104.157 31.8899H101.885V33.5847H104.157V31.8899Z" fill="white"/>
<path d="M106.854 31.8899H104.582V33.5847H106.854V31.8899Z" fill="white"/>
<path d="M109.553 31.8899H107.281V33.5847H109.553V31.8899Z" fill="white"/>
<path d="M112.253 31.8899H109.981V33.5847H112.253V31.8899Z" fill="white"/>
<path d="M96.0605 34.0394H93.7887V35.7342H96.0605V34.0394Z" fill="white"/>
<path d="M98.7602 34.0394H96.4884V35.7342H98.7602V34.0394Z" fill="white"/>
<path d="M101.457 34.0394H99.1852V35.7342H101.457V34.0394Z" fill="white"/>
<path d="M104.157 34.0394H101.885V35.7342H104.157V34.0394Z" fill="white"/>
<path d="M106.854 34.0394H104.582V35.7342H106.854V34.0394Z" fill="white"/>
<path d="M109.553 34.0394H107.281V35.7342H109.553V34.0394Z" fill="#E6E6E6"/>
<path d="M112.253 34.0394H109.981V35.7342H112.253V34.0394Z" fill="white"/>
<path d="M96.0605 36.186H93.7887V37.8808H96.0605V36.186Z" fill="white"/>
<path d="M98.7602 36.186H96.4884V37.8808H98.7602V36.186Z" fill="white"/>
<path d="M101.457 36.186H99.1852V37.8808H101.457V36.186Z" fill="white"/>
<path d="M104.157 36.186H101.885V37.8808H104.157V36.186Z" fill="white"/>
<path d="M106.854 36.186H104.582V37.8808H106.854V36.186Z" fill="white"/>
<path d="M109.553 36.186H107.281V37.8808H109.553V36.186Z" fill="white"/>
<path d="M112.253 36.186H109.981V37.8808H112.253V36.186Z" fill="white"/>
<path d="M96.0605 38.3353H93.7887V40.0301H96.0605V38.3353Z" fill="white"/>
<path d="M98.7602 38.3353H96.4884V40.0301H98.7602V38.3353Z" fill="white"/>
<path d="M101.457 38.3353H99.1852V40.0301H101.457V38.3353Z" fill="white"/>
<path d="M104.157 38.3353H101.885V40.0301H104.157V38.3353Z" fill="white"/>
<path d="M106.854 38.3353H104.582V40.0301H106.854V38.3353Z" fill="white"/>
<path d="M96.5704 29.6197L96.4016 29.8588L98.6754 31.5553L98.8442 31.3162L96.5704 29.6197Z" fill="#E6E6E6"/>
<path d="M98.6763 29.6269L96.4016 31.3221L96.5703 31.5613L98.845 29.866L98.6763 29.6269Z" fill="#E6E6E6"/>
<path d="M99.2704 29.6205L99.1016 29.8596L101.375 31.5561L101.544 31.3171L99.2704 29.6205Z" fill="#E6E6E6"/>
<path d="M101.376 29.6248L99.1015 31.3201L99.2702 31.5592L101.545 29.864L101.376 29.6248Z" fill="#E6E6E6"/>
<path d="M101.968 29.6182L101.799 29.8573L104.073 31.5538L104.241 31.3147L101.968 29.6182Z" fill="#E6E6E6"/>
<path d="M104.076 29.6255L101.801 31.3208L101.97 31.56L104.245 29.8647L104.076 29.6255Z" fill="#E6E6E6"/>
<path d="M104.666 29.6212L104.497 29.8602L106.771 31.5567L106.94 31.3177L104.666 29.6212Z" fill="#E6E6E6"/>
<path d="M106.774 29.6253L104.499 31.3206L104.668 31.5597L106.942 29.8644L106.774 29.6253Z" fill="#E6E6E6"/>
<path d="M107.366 29.6188L107.197 29.8579L109.471 31.5544L109.64 31.3153L107.366 29.6188Z" fill="#E6E6E6"/>
<path d="M109.473 29.6259L107.199 31.3212L107.367 31.5603L109.642 29.865L109.473 29.6259Z" fill="#E6E6E6"/>
<path d="M110.064 29.6191L109.896 29.8582L112.169 31.5547L112.338 31.3156L110.064 29.6191Z" fill="#E6E6E6"/>
<path d="M112.171 29.6255L109.896 31.3208L110.065 31.56L112.34 29.8647L112.171 29.6255Z" fill="#E6E6E6"/>
<path d="M110.063 31.7686L109.894 32.0077L112.168 33.7042L112.336 33.4651L110.063 31.7686Z" fill="#E6E6E6"/>
<path d="M112.17 31.7737L109.895 33.469L110.064 33.7082L112.339 32.0129L112.17 31.7737Z" fill="#E6E6E6"/>
<path d="M107.364 31.7657L107.195 32.0048L109.469 33.7013L109.638 33.4622L107.364 31.7657Z" fill="#E6E6E6"/>
<path d="M109.473 31.7715L107.198 33.4668L107.367 33.706L109.641 32.0107L109.473 31.7715Z" fill="#E6E6E6"/>
<path d="M104.664 31.7679L104.495 32.007L106.769 33.7035L106.938 33.4644L104.664 31.7679Z" fill="#E6E6E6"/>
<path d="M106.773 31.7735L104.498 33.4688L104.667 33.7079L106.941 32.0126L106.773 31.7735Z" fill="#E6E6E6"/>
<path d="M101.969 31.7648L101.8 32.0039L104.074 33.7004L104.243 33.4613L101.969 31.7648Z" fill="#E6E6E6"/>
<path d="M104.075 31.771L101.8 33.4663L101.969 33.7055L104.244 32.0102L104.075 31.771Z" fill="#E6E6E6"/>
<path d="M99.2686 31.767L99.0999 32.0061L101.374 33.7026L101.542 33.4635L99.2686 31.767Z" fill="#E6E6E6"/>
<path d="M101.375 31.773L99.1006 33.4683L99.2693 33.7074L101.544 32.0121L101.375 31.773Z" fill="#E6E6E6"/>
<path d="M96.5686 31.7691L96.3998 32.0082L98.6737 33.7047L98.8425 33.4656L96.5686 31.7691Z" fill="#E6E6E6"/>
<path d="M98.6755 31.7722L96.4008 33.4675L96.5694 33.7067L98.8441 32.0114L98.6755 31.7722Z" fill="#E6E6E6"/>
<path d="M93.8702 31.7662L93.7014 32.0052L95.9753 33.7018L96.1441 33.4627L93.8702 31.7662Z" fill="#E6E6E6"/>
<path d="M95.978 31.7727L93.7032 33.468L93.8719 33.7072L96.1466 32.0119L95.978 31.7727Z" fill="#E6E6E6"/>
<path d="M93.8707 33.9113L93.702 34.1504L95.9758 35.8469L96.1446 35.6078L93.8707 33.9113Z" fill="#E6E6E6"/>
<path d="M95.9788 33.9101L93.7055 35.6074L93.8744 35.8464L96.1477 34.1491L95.9788 33.9101Z" fill="#E6E6E6"/>
<path d="M96.5691 33.9117L96.4003 34.1508L98.6742 35.8473L98.843 35.6082L96.5691 33.9117Z" fill="#E6E6E6"/>
<path d="M98.675 33.9106L96.4017 35.6079L96.5705 35.8469L98.8438 34.1496L98.675 33.9106Z" fill="#E6E6E6"/>
<path d="M99.2663 33.9123L99.0975 34.1514L101.371 35.8479L101.54 35.6088L99.2663 33.9123Z" fill="#E6E6E6"/>
<path d="M101.373 33.912L99.1001 35.6094L99.269 35.8484L101.542 34.1511L101.373 33.912Z" fill="#E6E6E6"/>
<path d="M101.965 33.9123L101.796 34.1514L104.07 35.8479L104.238 35.6088L101.965 33.9123Z" fill="#E6E6E6"/>
<path d="M104.072 33.9129L101.799 35.6102L101.968 35.8492L104.241 34.1519L104.072 33.9129Z" fill="#E6E6E6"/>
<path d="M104.665 33.913L104.496 34.1521L106.77 35.8486L106.939 35.6095L104.665 33.913Z" fill="#E6E6E6"/>
<path d="M106.771 33.9118L104.498 35.6091L104.666 35.8481L106.94 34.1508L106.771 33.9118Z" fill="#E6E6E6"/>
<path d="M109.7 19.1765H98.0307V22.1416H109.7V19.1765Z" fill="#E6E6E6"/>
<path d="M106.147 17.6172H101.586V18.412H106.147V17.6172Z" fill="#E6E6E6"/>
<path d="M71.8005 110.003C102.555 110.003 127.486 108.506 127.486 106.66C127.486 104.814 102.555 103.318 71.8005 103.318C41.0462 103.318 16.1149 104.814 16.1149 106.66C16.1149 108.506 41.0462 110.003 71.8005 110.003Z" fill="#F5F5F5"/>
<path d="M74.3853 13.0972H61.2803C60.0874 13.0972 58.9433 13.5837 58.099 14.45C57.2547 15.3163 56.7793 16.4916 56.777 17.7179V30.7977C56.7759 31.4062 56.8915 32.0091 57.1174 32.5716C57.3432 33.1342 57.6748 33.6454 58.0931 34.076C58.5114 34.5066 59.0083 34.8481 59.5552 35.081C60.1021 35.3139 60.6883 35.4336 61.2803 35.4332H69.9308L73.0355 40.3196V35.4332H74.3853C74.9765 35.4336 75.5618 35.3141 76.108 35.0818C76.6542 34.8494 77.1505 34.5086 77.5685 34.0789C77.9865 33.6492 78.318 33.139 78.544 32.5775C78.77 32.016 78.8862 31.4142 78.8858 30.8065V17.7179C78.8843 16.4919 78.4095 15.3166 77.5656 14.4502C76.7218 13.5838 75.5779 13.0972 74.3853 13.0972Z" fill="#2429A6"/>
<path opacity="0.7" d="M74.3853 13.0972H61.2803C60.0874 13.0972 58.9433 13.5837 58.099 14.45C57.2547 15.3163 56.7793 16.4916 56.777 17.7179V30.7977C56.7759 31.4062 56.8915 32.0091 57.1174 32.5716C57.3432 33.1342 57.6748 33.6454 58.0931 34.076C58.5114 34.5066 59.0083 34.8481 59.5552 35.081C60.1021 35.3139 60.6883 35.4336 61.2803 35.4332H69.9308L73.0355 40.3196V35.4332H74.3853C74.9765 35.4336 75.5618 35.3141 76.108 35.0818C76.6542 34.8494 77.1505 34.5086 77.5685 34.0789C77.9865 33.6492 78.318 33.139 78.544 32.5775C78.77 32.016 78.8862 31.4142 78.8858 30.8065V17.7179C78.8843 16.4919 78.4095 15.3166 77.5656 14.4502C76.7218 13.5838 75.5779 13.0972 74.3853 13.0972Z" fill="white"/>
<path d="M66.4471 32.7345C65.4152 32.7218 64.399 32.4737 63.4717 32.0081C62.2166 31.394 61.378 30.5053 61.1109 29.528C61.0132 29.4808 60.9156 29.4276 60.8237 29.3715C60.3305 29.0425 59.9116 28.6088 59.5951 28.0996C59.2785 27.5903 59.0717 27.0173 58.9885 26.419C58.7302 24.6891 58.9917 22.9194 59.7381 21.3465C59.667 20.9573 59.6439 20.5606 59.6691 20.1655C59.7496 18.7719 60.4245 17.5259 61.4326 16.9177C62.0876 16.5307 62.8646 16.4246 63.5952 16.6224C64.6607 15.8757 65.897 15.427 67.1824 15.3203C68.4491 15.2276 69.7081 15.5874 70.7465 16.339C71.3275 16.1667 71.9401 16.1393 72.5334 16.2589C73.1268 16.3786 73.6838 16.6418 74.1585 17.0269C74.9429 17.7211 75.4536 18.6861 75.5945 19.7403C75.6657 20.2706 75.6609 20.8088 75.5801 21.3376C76.0565 21.9213 76.4023 22.6054 76.5929 23.3417C76.7835 24.078 76.8142 24.8483 76.683 25.5982C76.3867 26.8383 75.6646 27.9267 74.6496 28.6629C74.7677 28.9583 74.8197 29.2771 74.8018 29.5959C74.7272 30.65 73.8684 31.4176 73.0499 31.7099C72.183 31.9676 71.2662 31.992 70.3875 31.7808C69.7762 32.1801 69.064 32.3855 68.3398 32.3713C67.7372 32.6154 67.0948 32.7387 66.4471 32.7345ZM61.5273 29.6992C61.9553 30.771 63.0897 31.4324 63.6182 31.6893C65.2179 32.4717 66.9066 32.5957 68.2134 32.0465C68.2208 32.0436 68.229 32.0436 68.2364 32.0465C68.3513 31.9963 68.4633 31.9432 68.5724 31.8841C68.7881 31.7638 68.9946 31.6265 69.1899 31.4737C68.7686 31.3215 68.3789 31.0891 68.0411 30.7887C67.9043 30.6622 67.7793 30.5228 67.6677 30.3724C66.7976 30.3638 65.9349 30.2072 65.1145 29.9089C64.9317 29.8396 64.7524 29.7608 64.5774 29.6727C63.5832 29.9752 62.5264 29.9844 61.5273 29.6992ZM69.5862 31.5948C69.4422 31.7214 69.2906 31.8388 69.1325 31.9461C69.3979 31.8931 69.655 31.8027 69.8964 31.6774L69.5862 31.5948ZM70.735 31.4826C71.466 31.6303 72.2208 31.5938 72.935 31.3763C73.6473 31.1224 74.3969 30.464 74.4572 29.5693C74.4732 29.3326 74.4399 29.095 74.3595 28.8725C74.1474 29.0155 73.9278 29.1466 73.7018 29.2652C72.9946 29.6235 72.2442 29.8836 71.4703 30.0388C71.3673 30.5841 71.1106 31.0862 70.7322 31.4826H70.735ZM69.8907 31.3113C70.0343 31.3468 70.1779 31.3792 70.3071 31.4058C70.7014 31.0751 70.9797 30.621 71.0998 30.1126L70.8126 30.1628C70.5432 30.5734 70.2333 30.9544 69.8878 31.2995L69.8907 31.3113ZM68.1244 30.3695C68.1732 30.4197 68.222 30.4699 68.2737 30.5171C68.6344 30.8308 69.0551 31.0632 69.5087 31.1991C69.8178 30.9043 70.0969 30.5779 70.3416 30.2248C69.9165 30.2779 69.5087 30.3104 69.1296 30.334C68.805 30.3518 68.469 30.3665 68.1215 30.3695H68.1244ZM67.8372 30.0152C68.2737 30.0152 68.6988 30.0152 69.1009 29.9797C69.5604 29.9532 70.0659 29.9118 70.5943 29.8351C70.7465 29.59 70.8959 29.3272 71.0423 29.0438L71.1658 28.7987C71.0942 28.3262 70.9619 27.8655 70.7724 27.4287C70.1911 27.6632 69.5814 27.8152 68.9601 27.8805C68.4116 28.0931 67.8745 28.3381 67.3432 28.5773L67.2513 28.6216C67.3674 29.1182 67.5676 29.59 67.8429 30.0152H67.8372ZM65.08 29.5103L65.2294 29.5693C65.934 29.8277 66.6731 29.9731 67.4207 30.0004C67.2046 29.6125 67.0404 29.1964 66.9325 28.7633C66.3294 29.0438 65.7131 29.2931 65.0858 29.5103H65.08ZM71.1888 29.5103C71.14 29.5989 71.0912 29.6874 71.0423 29.7701L71.1658 29.7494C71.1645 29.7327 71.1645 29.7159 71.1658 29.6992C71.1859 29.6284 71.1917 29.5664 71.1946 29.5014L71.1888 29.5103ZM71.5191 28.8696C71.5478 29.1375 71.5478 29.4078 71.5191 29.6756C72.2157 29.5235 72.8911 29.2825 73.5295 28.9582C73.7597 28.839 73.9823 28.7049 74.1958 28.5566C73.9677 28.1517 73.6292 27.8243 73.2222 27.6147C72.8848 27.4471 72.5211 27.3421 72.1481 27.3047C71.9654 27.8354 71.7535 28.3549 71.5134 28.8607L71.5191 28.8696ZM61.3981 29.2829C62.2743 29.6055 63.2241 29.6528 64.1265 29.4188C63.6262 29.1125 63.1988 28.695 62.8758 28.1969C62.5528 27.6987 62.3423 27.1326 62.2597 26.54C61.7112 27.3431 61.2689 28.1787 61.3694 29.091C61.3768 29.1528 61.3883 29.2139 61.4038 29.2741L61.3981 29.2829ZM62.5469 26.1208C62.5862 26.7906 62.7993 27.4374 63.1639 27.994C63.5286 28.5506 64.0315 28.9966 64.6205 29.2859C65.3874 29.0448 66.1369 28.7488 66.8636 28.4001C66.8176 28.1787 66.7803 27.9513 66.7544 27.724C66.3431 27.6246 65.9428 27.4821 65.5597 27.2988C65.0341 27.042 63.8049 26.3097 63.7618 25.049V24.925C63.644 24.925 63.5234 24.925 63.4028 24.925C63.2362 25.1789 63.0553 25.4358 62.8657 25.6985L62.7594 25.8432L62.5469 26.1208ZM59.853 21.9222C59.2683 23.3223 59.0791 24.8633 59.3073 26.3688C59.3857 26.916 59.5757 27.44 59.8647 27.9066C60.1538 28.3732 60.5354 28.7717 60.9845 29.0763L61.0133 29.094C60.9041 27.9307 61.5647 26.8914 62.2339 25.9643L62.4636 25.6484L62.5699 25.5037C62.7192 25.3 62.8571 25.0962 62.9978 24.8955C62.3679 24.7864 61.7751 24.5152 61.2746 24.1071C60.6022 23.5375 60.1119 22.7731 59.8673 21.9134L59.853 21.9222ZM72.2601 26.9622C72.6474 27.0088 73.0242 27.1226 73.3744 27.2988C73.8316 27.5346 74.2141 27.8991 74.4773 28.3499C75.4005 27.6669 76.0571 26.6684 76.3297 25.5332C76.4433 24.8855 76.4254 24.2207 76.2771 23.5805C76.1288 22.9403 75.8534 22.3386 75.4681 21.813C75.329 22.4171 75.1178 23.0012 74.8392 23.552C74.2583 24.7178 73.4216 25.7287 72.3951 26.5046C72.375 26.6552 72.3204 26.8057 72.2744 26.9534L72.2601 26.9622ZM67.0904 27.8244C67.1106 27.975 67.1364 28.1196 67.1651 28.2791L67.1967 28.2643L67.9607 27.9218C67.6736 27.9037 67.3878 27.8682 67.1048 27.8155L67.0904 27.8244ZM71.0854 27.3165C71.2158 27.6253 71.3224 27.9442 71.4042 28.2702C71.5449 27.9454 71.6742 27.6147 71.7919 27.2811C71.5609 27.275 71.3297 27.2838 71.0998 27.3077L71.0854 27.3165ZM67.0646 27.4583C67.6635 27.5755 68.2757 27.6044 68.8826 27.5439C69.4418 27.325 70.0183 27.156 70.6058 27.039C70.3605 26.5522 70.072 26.0896 69.7442 25.6572C68.8937 25.9632 67.9817 26.0424 67.0933 25.8875C67.0314 26.4097 67.0227 26.9372 67.0675 27.4612L67.0646 27.4583ZM64.1007 24.922C64.0978 24.9682 64.0978 25.0146 64.1007 25.0608C64.138 26.1562 65.3356 26.8323 65.7033 27.0006C66.0274 27.1595 66.366 27.2851 66.7142 27.3756C66.6798 26.8557 66.6942 26.3337 66.7573 25.8166C66.3971 25.7286 66.0474 25.5999 65.7147 25.4328C65.3652 25.2583 65.0397 25.0369 64.7469 24.7744C64.5371 24.8411 64.3217 24.8876 64.1035 24.9132L64.1007 24.922ZM70.0745 25.5125C70.406 25.9696 70.6945 26.4579 70.9361 26.9711C71.3391 26.7816 71.7238 26.5532 72.0849 26.2891C72.5678 24.5115 72.7112 22.6546 72.5071 20.8209C72.4586 20.358 72.378 19.8992 72.2658 19.448C71.4298 19.1473 70.5622 18.9491 69.681 18.8575C69.2995 18.8144 68.916 18.7917 68.5322 18.7896C68.2313 19.4228 67.9713 20.0758 67.7539 20.7442L67.7137 20.8564C67.4797 21.574 67.1777 22.2663 66.8119 22.9232C67.0546 22.9848 67.2912 23.0698 67.5184 23.1771L67.6218 22.9822C67.9723 22.2291 68.5452 21.6091 69.2588 21.2107C69.6313 21.009 70.0549 20.9293 70.4727 20.982C70.8905 21.0348 71.2827 21.2176 71.5966 21.5059C71.8579 21.8078 72.0274 22.1819 72.084 22.5817C72.1407 22.9816 72.0821 23.3898 71.9154 23.7558C71.5787 24.4565 71.0223 25.0202 70.3358 25.356C70.2669 25.424 70.1721 25.4712 70.0773 25.5125H70.0745ZM71.7977 26.9179H71.9269C71.9269 26.8855 71.947 26.85 71.9585 26.8146C71.904 26.853 71.8494 26.8855 71.8006 26.9179H71.7977ZM72.6823 19.6045C72.769 19.9939 72.8332 20.3883 72.8747 20.7855C73.0667 22.5127 72.9587 24.2612 72.5559 25.9495C73.3818 25.2431 74.059 24.3711 74.5462 23.3867C74.8585 22.7773 75.0811 22.1235 75.2068 21.4469C75.0127 21.2084 74.7994 20.9872 74.5692 20.7855C74.0027 20.2934 73.3651 19.895 72.6794 19.6045H72.6823ZM67.1479 25.5303C67.9419 25.6699 68.757 25.6091 69.523 25.3531C69.1835 24.928 68.8098 24.5329 68.4058 24.1721C68.1873 23.9788 67.9517 23.8068 67.7022 23.6583C67.4377 24.2546 67.2503 24.8839 67.145 25.5303H67.1479ZM65.1145 24.6209C65.349 24.81 65.6022 24.9733 65.8698 25.108C66.1706 25.259 66.4865 25.3758 66.8119 25.4564C66.9206 24.7822 67.1136 24.1252 67.3863 23.5019C67.1447 23.3846 66.8901 23.2983 66.6281 23.245C66.2973 23.7519 65.8607 24.1766 65.35 24.488C65.2753 24.5352 65.1949 24.5795 65.1116 24.6209H65.1145ZM67.8515 23.3454C68.1276 23.5064 68.3874 23.6953 68.627 23.9093C69.0772 24.3072 69.4906 24.747 69.8619 25.2232C69.9785 25.1751 70.0926 25.1209 70.2037 25.0608C70.8203 24.7635 71.3212 24.2611 71.6254 23.6347C71.7641 23.3334 71.8147 22.9972 71.7708 22.6669C71.7269 22.3367 71.5906 22.0266 71.3784 21.7746C70.87 21.2461 70.0142 21.2609 69.434 21.5473C68.7864 21.9116 68.2662 22.4754 67.9463 23.1594L67.8515 23.3454ZM63.6239 24.5884C63.6842 24.5884 63.7445 24.5884 63.8049 24.5884C63.8547 24.3653 63.9433 24.1533 64.0662 23.9624L64.0317 23.9093C63.9025 24.1307 63.7589 24.3581 63.621 24.5884H63.6239ZM60.0942 21.3878C60.2733 22.341 60.7699 23.2003 61.4986 23.8178C61.9963 24.2227 62.5922 24.4799 63.2218 24.5618C63.4459 24.2134 63.6498 23.8739 63.8307 23.5402C63.7255 23.3061 63.6502 23.059 63.6067 22.8051C63.4028 21.5916 63.9915 20.2865 65.0714 19.4539C65.1123 18.8398 64.9537 18.2292 64.6205 17.7178C64.3739 17.3863 64.0339 17.141 63.6469 17.0151C63.3769 17.2041 63.1328 17.3989 62.9174 17.582C61.7234 18.6301 60.76 19.9274 60.0913 21.3878H60.0942ZM64.2874 24.2754C64.2415 24.3624 64.2031 24.4533 64.1725 24.5471C64.273 24.5471 64.3706 24.5087 64.4597 24.485C64.3994 24.4171 64.3333 24.3463 64.2845 24.2754H64.2874ZM64.4884 23.9802C64.5929 24.1194 64.7072 24.2506 64.8302 24.3729C64.9536 24.3222 65.0735 24.263 65.1892 24.1957C65.6023 23.942 65.9616 23.6056 66.2461 23.2066C66.0887 23.1981 65.9309 23.206 65.7751 23.2302C65.2736 23.311 64.8164 23.5727 64.4855 23.9684L64.4884 23.9802ZM64.227 23.5609L64.2902 23.6731C64.6681 23.2494 65.1741 22.9695 65.7262 22.8789C65.974 22.8448 66.2252 22.8448 66.473 22.8789C66.8619 22.2096 67.1788 21.4988 67.4179 20.7589L67.4552 20.6438C67.6628 20.0237 67.9005 19.4147 68.1675 18.8191C67.3293 18.8365 66.5061 19.0506 65.7607 19.4451C65.6422 19.5101 65.5281 19.5831 65.4189 19.6635C65.4189 19.823 65.3931 19.9913 65.3701 20.1625C65.1926 21.3539 64.8042 22.5017 64.2242 23.5491L64.227 23.5609ZM65.0484 19.9588C64.3046 20.6526 63.7733 21.686 63.9542 22.7578C63.9769 22.8901 64.0096 23.0204 64.0518 23.1475C64.5445 22.1997 64.8757 21.1721 65.0312 20.1094L65.0484 19.9588ZM72.5731 19.1941C73.3796 19.5037 74.1286 19.9531 74.7875 20.5227C74.9549 20.6709 75.115 20.8276 75.2671 20.9922C75.3052 20.599 75.2974 20.2025 75.2441 19.8112C75.1175 18.8449 74.653 17.9591 73.9373 17.3192C73.5394 16.9959 73.0769 16.7669 72.583 16.6485C72.089 16.5301 71.5757 16.5252 71.0797 16.6342C71.2814 16.8135 71.4669 17.0111 71.634 17.2247C72.07 17.8113 72.3892 18.4805 72.5731 19.1941ZM62.8628 16.8911C62.4211 16.8895 61.987 17.0087 61.6049 17.2366C60.6945 17.7887 60.0827 18.9254 60.008 20.2068C59.9944 20.4034 59.9944 20.6007 60.008 20.7973C60.6825 19.4765 61.5958 18.3 62.6991 17.331C62.8542 17.2011 63.0208 17.0653 63.2017 16.9295C63.0902 16.9039 62.9769 16.8872 62.8628 16.8793V16.8911ZM64.0116 16.7878C64.367 16.9451 64.676 17.1956 64.9077 17.5141C65.2482 18.0174 65.4297 18.6164 65.4275 19.2295C65.4821 19.1941 65.5396 19.1616 65.5999 19.1291C66.4528 18.6822 67.3969 18.4505 68.3541 18.453C68.6528 17.8756 69.0633 17.3672 69.5604 16.959C69.8011 16.7702 70.0647 16.6144 70.3444 16.4955C69.4097 15.8853 68.31 15.5978 67.2053 15.6747C66.0673 15.7671 64.9687 16.1453 64.0059 16.776L64.0116 16.7878ZM68.7533 18.453C69.075 18.453 69.4082 18.4825 69.7586 18.5209C70.58 18.609 71.3904 18.7841 72.1768 19.0435C72.0019 18.4661 71.7287 17.9253 71.3698 17.4462C71.1687 17.1839 70.9373 16.9479 70.6805 16.7435C70.3518 16.8545 70.044 17.0223 69.77 17.2395C69.3578 17.5694 69.0107 17.9773 68.7476 18.4412L68.7533 18.453Z" fill="#263238"/>
<path d="M82.5074 76.7424C75.3274 74.9709 67.0732 70.9997 62.9978 64.3417C62.6483 63.802 62.381 63.2106 62.2051 62.5879C60.6083 56.0362 69.4081 52.1743 74.0809 50.3112C75.7472 49.6646 77.4472 49.1136 79.173 48.6608L80.3678 51.9883C77.4957 53.6033 69.0434 58.1591 68.1416 61.0467C68.1732 61.0467 68.1875 60.8695 68.1703 60.7514C68.1681 60.7184 68.1623 60.6857 68.1531 60.654C68.1531 60.654 68.1531 60.654 68.1531 60.6363C71.6454 65.3958 78.0989 67.9527 83.527 69.615L84.0267 69.7567L82.5045 76.7395L82.5074 76.7424Z" fill="#EBC0BB"/>
<path d="M82.3839 80.9882L80.5831 79.878L79.4717 79.193L70.5311 73.6865L72.3433 63.8959C72.3433 63.8959 77.5704 67.1909 80.25 68.1239C80.25 68.1239 81.8899 69.7065 82.427 72.8952C82.5115 73.3951 82.5643 73.9 82.5849 74.4069C82.5849 74.7022 82.6079 74.9974 82.6137 75.2927C82.6915 77.1944 82.6146 79.0996 82.3839 80.9882Z" fill="#2429A6"/>
<path opacity="0.2" d="M82.3839 80.988L80.5832 79.8779C80.9307 78.1063 81.844 76.444 82.6137 75.2837C82.692 77.1884 82.6151 79.0965 82.3839 80.988Z" fill="black"/>
<path d="M81.3787 43.1106C81.3612 43.1101 81.3445 43.1033 81.3314 43.0914C81.3182 43.0796 81.3096 43.0633 81.3069 43.0456C81.3069 43.0456 81.103 41.4921 80.1179 40.9133C80.1021 40.9029 80.0907 40.8869 80.086 40.8683C80.0812 40.8497 80.0833 40.8299 80.092 40.8129C80.1016 40.7961 80.1173 40.7839 80.1356 40.7789C80.1538 40.774 80.1733 40.7766 80.1897 40.7863C81.238 41.4006 81.4419 42.9599 81.4505 43.0279C81.4522 43.0473 81.4466 43.0667 81.4348 43.0821C81.4231 43.0974 81.4061 43.1076 81.3873 43.1106H81.3787Z" fill="#263238"/>
<path d="M109.998 101.11C110.242 93.15 109.716 85.1852 108.427 77.3327C108.126 75.4874 107.804 73.7896 107.485 72.2868C106.895 69.3289 106.134 66.4097 105.208 63.5443C105.208 63.5443 97.2725 69.4494 90.9138 69.4494C87.3249 69.4413 83.7497 68.9923 80.2644 68.1119C82.6797 79.9664 83.0617 94.1651 83.0876 101.098L109.998 101.11Z" fill="#2429A6"/>
<path d="M77.8777 50.6003L77.7255 45.1588L82.5849 46.7059C82.5849 46.7059 81.933 51.8316 80.3649 51.9438L77.8777 50.6003Z" fill="#EEC1BB"/>
<path d="M81.1834 41.8313L84.2881 43.8095L82.5849 46.7059L77.7255 45.1588L81.1834 41.8313Z" fill="#EEC1BB"/>
<path d="M88.2371 66.9929C88.9005 66.429 95.7905 64.5157 96.6894 64.8228C97.5884 65.1299 94.0443 71.782 90.5979 70.5566C87.1514 69.3313 87.4645 67.6454 88.2371 66.9929Z" fill="#2429A6"/>
<path d="M97.2926 66.4171C97.2926 66.4171 97.1835 69.3106 91.5284 70.8459C90.9833 71.4501 90.5484 72.1502 90.2446 72.9127C89.9599 72.3933 89.7381 71.84 89.5841 71.2652C84.2881 72.1332 87.2233 68.8736 87.2233 68.8736C89.0212 67.9318 89.6875 66.7626 89.7478 65.5077C89.7619 64.789 89.641 64.0742 89.3917 63.4026C89.2226 62.8982 89.0231 62.4051 88.7943 61.9263L89.63 60.7689L93.9668 56.4818C94.034 57.8268 94.1846 59.1661 94.4177 60.4914C94.8887 63.0483 95.7532 65.4664 97.2926 66.4171Z" fill="#EEC1BB"/>
<path opacity="0.2" d="M94.4177 60.4857C93.5934 62.4817 91.672 64.4156 89.7478 65.5051C89.7619 64.7863 89.641 64.0715 89.3917 63.3999C89.2226 62.8955 89.0231 62.4024 88.7943 61.9236L89.63 60.7662L93.9668 56.4791C94.0341 57.8232 94.1847 59.1614 94.4177 60.4857Z" fill="black"/>
<path d="M91.5284 70.834L93.872 73.196C93.872 73.196 98.6712 70.6303 99.5701 66.7418L96.6981 64.8256C96.6981 64.8256 95.7503 68.5192 91.5284 70.834Z" fill="#2429A6"/>
<path d="M89.5841 71.2595L86.6173 74.1117C86.6173 74.1117 85.5891 71.1975 85.8935 69.0008L88.2371 66.9843C88.2371 66.9843 88.0303 69.5323 89.5841 71.2595Z" fill="#2429A6"/>
<path opacity="0.2" d="M91.5284 70.834L93.872 73.196C93.872 73.196 98.6712 70.6303 99.5701 66.7418L96.6981 64.8256C96.6981 64.8256 95.7503 68.5192 91.5284 70.834Z" fill="white"/>
<path opacity="0.2" d="M89.5841 71.2595L86.6173 74.1117C86.6173 74.1117 85.5891 71.1975 85.8935 69.0008L88.2371 66.9843C88.2371 66.9843 88.0303 69.5323 89.5841 71.2595Z" fill="white"/>
<path d="M82.9009 47.6924C80.9508 49.2779 81.2724 55.9595 84.4029 56.6061C87.5334 57.2527 86.5914 44.6926 82.9009 47.6924Z" fill="#263238"/>
<path d="M94.5957 52.0028C94.7365 56.7003 95.0495 59.4344 92.9817 62.1241C89.8741 66.1691 84.1129 64.7637 82.6194 60.2522C81.2753 56.1895 81.2724 49.189 85.5259 46.7591C89.7162 44.3616 94.4579 47.3053 94.5957 52.0028Z" fill="#EEC1BB"/>
<path d="M91.8357 49.6942C91.3647 52.378 93.1252 55.9654 94.5526 56.2931C96.2758 57.1316 98.3523 54.0433 98.6395 52.4548C98.8951 51.0346 98.5103 47.9463 97.6199 46.7653L91.8357 49.6942Z" fill="#263238"/>
<path d="M96.7239 56.3962C96.2354 57.4464 95.4084 58.2904 94.3832 58.7848C93.0736 59.3753 92.4504 58.15 92.8381 56.718C93.1885 55.4278 94.2913 53.5618 95.5923 53.5795C96.8934 53.5972 97.3443 55.0735 96.7239 56.3962Z" fill="#EEC1BB"/>
<path d="M85.0491 54.7577C85.0491 54.7577 84.4087 57.0583 83.5844 58.2337C84.2909 58.7772 85.3708 58.346 85.3708 58.346L85.0491 54.7577Z" fill="#D4827D"/>
<path d="M87.3755 51.9381C87.3394 51.9475 87.3066 51.9669 87.2807 51.9943C87.2409 52.0367 87.2186 52.0934 87.2186 52.1523C87.2186 52.2113 87.2409 52.268 87.2807 52.3104C87.5149 52.5681 87.8073 52.7622 88.132 52.8756C88.4567 52.989 88.8035 53.0182 89.1418 52.9605C89.1699 52.955 89.1967 52.9436 89.2204 52.927C89.2441 52.9104 89.2643 52.889 89.2796 52.864C89.295 52.8391 89.3052 52.8112 89.3096 52.7821C89.3141 52.7529 89.3127 52.7231 89.3055 52.6946C89.2994 52.666 89.2878 52.6389 89.2715 52.615C89.2552 52.591 89.2344 52.5706 89.2103 52.5549C89.1863 52.5393 89.1595 52.5287 89.1315 52.5237C89.1034 52.5188 89.0747 52.5196 89.047 52.5261C88.7817 52.5647 88.5113 52.5368 88.2588 52.4447C88.0062 52.3526 87.7791 52.1991 87.5966 51.9972C87.5683 51.9679 87.5328 51.9469 87.4939 51.9365C87.455 51.9261 87.4141 51.9266 87.3755 51.9381Z" fill="#263238"/>
<path d="M83.7769 51.9676C83.7412 51.9657 83.7057 51.9731 83.6736 51.9891C83.6414 52.0051 83.6137 52.0292 83.593 52.0591C83.4381 52.2973 83.2318 52.4955 82.9902 52.6384C82.7487 52.7812 82.4783 52.8649 82.2001 52.8829C82.1422 52.8829 82.0867 52.9065 82.0458 52.9486C82.0048 52.9907 81.9818 53.0477 81.9818 53.1072C81.9818 53.1668 82.0048 53.2238 82.0458 53.2659C82.0867 53.308 82.1422 53.3316 82.2001 53.3316C82.5488 53.3149 82.8888 53.2149 83.1934 53.0396C83.498 52.8644 83.7587 52.6186 83.9549 52.3219C83.9788 52.2892 83.9934 52.2503 83.9971 52.2096C84.0008 52.1689 83.9935 52.128 83.9759 52.0913C83.9584 52.0546 83.9313 52.0236 83.8977 52.0018C83.8641 51.9799 83.8252 51.9681 83.7855 51.9676H83.7769Z" fill="#263238"/>
<path d="M88.4582 54.6049C88.4432 54.605 88.4282 54.6019 88.4144 54.5958C88.4006 54.5897 88.3881 54.5807 88.3778 54.5694C88.2428 54.4158 87.8034 54.4158 87.5449 54.4512C87.5226 54.4545 87.4998 54.4506 87.4798 54.44C87.4597 54.4294 87.4434 54.4127 87.4329 54.3922C87.4231 54.3721 87.4194 54.3495 87.4225 54.3273C87.4256 54.3051 87.4352 54.2844 87.4501 54.268C87.5654 54.121 87.7104 54.0015 87.8751 53.9178C88.0397 53.8341 88.2201 53.7883 88.4036 53.7834C88.4292 53.7878 88.4524 53.8013 88.4692 53.8216C88.4859 53.8419 88.4951 53.8676 88.4951 53.8943C88.4951 53.9209 88.4859 53.9467 88.4692 53.967C88.4524 53.9873 88.4292 54.0008 88.4036 54.0051C88.1959 54.0078 87.9945 54.0793 87.8292 54.2089C88.0835 54.1834 88.3375 54.2596 88.5386 54.4217C88.5583 54.4422 88.5693 54.4698 88.5693 54.4985C88.5693 54.5273 88.5583 54.5549 88.5386 54.5754C88.5282 54.586 88.5155 54.5942 88.5016 54.5993C88.4877 54.6045 88.4729 54.6063 88.4582 54.6049Z" fill="#263238"/>
<path d="M82.8607 55.216C82.8416 55.2157 82.8229 55.2106 82.8061 55.2012C82.7817 55.1864 82.7638 55.1624 82.7563 55.1342C82.7488 55.1061 82.7522 55.0761 82.7659 55.0505C82.9301 54.8507 83.1623 54.7228 83.415 54.693C83.2319 54.603 83.0257 54.575 82.8262 54.6132C82.7985 54.6196 82.7693 54.615 82.7448 54.6002C82.7203 54.5854 82.7021 54.5615 82.6941 54.5334C82.6871 54.5048 82.6913 54.4745 82.7058 54.4491C82.7203 54.4237 82.7439 54.4051 82.7716 54.3975C82.9524 54.3633 83.1382 54.3699 83.3162 54.4169C83.4942 54.4638 83.6602 54.5499 83.8027 54.6693C83.8202 54.6825 83.8332 54.701 83.8399 54.7222C83.8466 54.7434 83.8466 54.7663 83.84 54.7875C83.8347 54.8098 83.8226 54.8298 83.8056 54.8446C83.7886 54.8595 83.7675 54.8685 83.7452 54.8703C83.4925 54.888 83.0531 54.9825 82.9526 55.1657C82.9427 55.1815 82.9291 55.1944 82.913 55.2032C82.8969 55.212 82.8789 55.2164 82.8607 55.216Z" fill="#263238"/>
<path d="M90.0867 59.1099C90.0645 59.2998 89.9831 59.4772 89.8547 59.6156C89.7263 59.754 89.5578 59.8459 89.3744 59.8777C88.4784 60.1729 87.6126 60.5577 86.7896 61.0266L86.7666 60.9852C86.5846 60.6256 86.3426 60.3017 86.0515 60.0283C86.0057 59.9897 85.953 59.9606 85.8964 59.9427V59.925C86.0314 59.736 87.2462 58.0792 89.1877 58.1766C89.3954 58.18 89.5966 58.2514 89.7621 58.3804C89.8704 58.4652 89.9567 58.5761 90.0133 58.7033C90.0699 58.8306 90.0951 58.9702 90.0867 59.1099Z" fill="white"/>
<path opacity="0.2" d="M85.905 59.9185L86.0486 60.0253C86.0028 59.9854 85.9501 59.9553 85.8935 59.9368L85.905 59.9185Z" fill="black"/>
<path opacity="0.1" d="M89.9632 58.9622C89.4975 59.0157 89.0378 59.1146 88.5904 59.2575L88.6248 59.4967L88.487 59.293C88.1138 59.4201 87.7524 59.5812 87.4071 59.7744L87.4875 59.9722L87.3324 59.8187C87.0438 59.9899 86.7708 60.1876 86.5168 60.4093L86.7638 60.9823C86.5818 60.6227 86.3397 60.2988 86.0486 60.0254L86.4335 60.2971C86.6513 60.056 86.9007 59.8472 87.1745 59.6769L87.0395 59.3491L87.2951 59.6031C87.6348 59.3977 87.9949 59.2304 88.3692 59.104L88.2629 58.8086L88.5502 59.036C88.9647 58.9102 89.3896 58.8242 89.8196 58.7791L89.7507 58.3774C89.8603 58.4624 89.9476 58.5742 90.0048 58.7026C90.062 58.8309 90.0871 58.9719 90.0781 59.1128L89.9632 58.9622Z" fill="black"/>
<path d="M98.3236 51.3769C98.3236 51.3769 101.618 47.0042 98.0996 45.5722C98.0996 45.5722 97.1863 42.4425 95.5004 41.6896C93.8146 40.9367 92.4561 42.7082 92.4561 42.7082C92.1533 42.0289 91.6598 41.4581 91.039 41.0693C90.4182 40.6805 89.6985 40.4914 88.9723 40.5263C86.4076 40.6326 86.0486 42.8204 86.0486 42.8204C86.0486 42.8204 84.0784 41.9524 82.3839 43.1157C82.1557 43.2527 81.9564 43.435 81.7975 43.652C81.6385 43.8689 81.5232 44.1163 81.4583 44.3796C81.3933 44.6429 81.38 44.9168 81.4191 45.1855C81.4582 45.4541 81.5489 45.712 81.686 45.9442C81.686 45.9442 79.1472 47.3762 79.9169 49.192C80.6866 51.0079 82.7889 50.1339 82.7889 50.1339C82.7889 50.1339 82.7314 51.1525 83.975 51.1909C85.2186 51.2293 87.2319 49.7973 87.2319 49.7973C87.4344 50.0582 87.6919 50.2684 87.9849 50.4121C88.2779 50.5558 88.5989 50.6293 88.9235 50.627C90.0982 50.6624 91.1838 49.8327 91.1838 49.8327C91.3652 50.2568 91.6345 50.635 91.9728 50.941C92.3111 51.2469 92.7103 51.4733 93.1425 51.6043C94.5957 52.0029 98.3236 51.3769 98.3236 51.3769Z" fill="#263238"/>
<path d="M100.825 45.7669L98.8866 40.7032L95.0093 44.0869C95.0093 44.0869 97.5654 48.5363 99.0531 48.0078L100.825 45.7669Z" fill="#EEC1BB"/>
<path d="M94.4378 39.0234L92.3355 42.097L95.0093 44.0752L98.8866 40.6916L94.4378 39.0234Z" fill="#EEC1BB"/>
<path d="M86.0486 43.724H86.0342C86.0251 43.7222 86.0164 43.7186 86.0086 43.7133C86.0009 43.708 85.9943 43.7012 85.9892 43.6932C85.9841 43.6852 85.9806 43.6762 85.979 43.6668C85.9773 43.6573 85.9776 43.6477 85.9797 43.6384C86.0485 43.1765 85.9928 42.7041 85.8186 42.2725C85.6444 41.8409 85.3584 41.4667 84.9917 41.1907C84.9687 41.3375 84.914 41.4772 84.8315 41.5993C84.7489 41.7215 84.6408 41.823 84.5149 41.8964C84.4784 41.9301 84.4358 41.9561 84.3894 41.9726C84.343 41.9891 84.2939 41.9959 84.2449 41.9926C84.1959 41.9893 84.148 41.976 84.1042 41.9534C84.0603 41.9307 84.0212 41.8993 83.9893 41.8609C83.902 41.728 83.8597 41.5692 83.8691 41.409C83.8784 41.2489 83.9389 41.0964 84.041 40.9752C84.1358 40.8689 84.3886 40.6799 84.8567 40.925C84.795 40.4894 84.5755 40.0939 84.2421 39.8178C84.23 39.8046 84.223 39.7873 84.2225 39.7692C84.222 39.7511 84.228 39.7334 84.2393 39.7195C84.2507 39.7056 84.2666 39.6966 84.2841 39.694C84.3015 39.6914 84.3193 39.6955 84.334 39.7056C84.527 39.864 84.686 40.0617 84.8012 40.2862C84.9163 40.5108 84.9851 40.7574 85.0032 41.0106L85.0721 41.0578C86.4133 42.0174 86.1233 43.6413 86.1204 43.659C86.1177 43.6768 86.1091 43.693 86.0959 43.7049C86.0828 43.7167 86.0661 43.7235 86.0486 43.724ZM84.4374 40.9575C84.3836 40.9555 84.3301 40.9655 84.2805 40.9869C84.2309 41.0083 84.1864 41.0406 84.1502 41.0815C84.0747 41.1762 84.0297 41.2927 84.0214 41.4149C84.0132 41.5371 84.0421 41.659 84.1042 41.7635C84.2019 41.8846 84.3426 41.8314 84.4403 41.7635C84.5591 41.6967 84.6597 41.6004 84.733 41.4833C84.8062 41.3662 84.8498 41.2321 84.8596 41.0933C84.7327 41.011 84.5872 40.9642 84.4374 40.9575Z" fill="#263238"/>
<path d="M82.1685 46.196C81.4231 46.2024 80.6957 45.96 80.0955 45.5053C79.4954 45.0505 79.0548 44.4079 78.8399 43.6739C78.8367 43.6646 78.8354 43.6547 78.8361 43.6449C78.8367 43.6351 78.8392 43.6255 78.8435 43.6167C78.8478 43.6079 78.8537 43.6 78.861 43.5936C78.8683 43.5872 78.8767 43.5824 78.8858 43.5794C78.9037 43.5738 78.923 43.5756 78.9397 43.5844C78.9563 43.5932 78.9689 43.6084 78.9749 43.6266C79.1882 44.3408 79.6228 44.9637 80.2123 45.4003C80.8018 45.837 81.514 46.0635 82.2403 46.0454C82.2499 46.0446 82.2594 46.0458 82.2685 46.049C82.2775 46.0522 82.2858 46.0573 82.2928 46.0639C82.2999 46.0706 82.3055 46.0787 82.3093 46.0877C82.3131 46.0967 82.315 46.1064 82.315 46.1163C82.3158 46.1354 82.3094 46.1541 82.2971 46.1684C82.2847 46.1827 82.2675 46.1916 82.249 46.1931L82.1685 46.196Z" fill="#263238"/>
<path d="M79.7704 51.6728C79.7541 51.6724 79.7383 51.6664 79.7258 51.6557C79.7133 51.6449 79.7047 51.6301 79.7014 51.6137C79.6994 51.6042 79.6992 51.5943 79.701 51.5847C79.7028 51.5751 79.7066 51.566 79.712 51.558C79.7173 51.5499 79.7243 51.5431 79.7324 51.538C79.7404 51.5328 79.7495 51.5294 79.7589 51.5281C81.3011 51.2327 82.1714 49.5523 82.18 49.5375C82.1842 49.5287 82.1902 49.5209 82.1974 49.5145C82.2047 49.5081 82.2131 49.5032 82.2222 49.5002C82.2313 49.4971 82.2409 49.496 82.2504 49.4968C82.2599 49.4977 82.2692 49.5005 82.2776 49.505C82.286 49.5097 82.2933 49.516 82.2992 49.5235C82.3052 49.5311 82.3096 49.5398 82.3123 49.5491C82.315 49.5584 82.3158 49.5682 82.3148 49.5779C82.3138 49.5876 82.3109 49.5969 82.3064 49.6054C82.2719 49.6763 81.3988 51.3627 79.7847 51.6728H79.7704Z" fill="#263238"/>
<path d="M97.0398 41.492C96.9517 41.4919 96.8647 41.4728 96.7842 41.4359C96.6754 41.3834 96.5798 41.3057 96.5051 41.2089C96.4303 41.1121 96.3784 40.9988 96.3534 40.8779C96.0978 41.0285 95.8654 41.2176 95.6641 41.4389C95.6507 41.4524 95.6327 41.46 95.6139 41.46C95.5951 41.46 95.577 41.4524 95.5636 41.4389C95.5503 41.4246 95.5428 41.4055 95.5428 41.3857C95.5428 41.3659 95.5503 41.3469 95.5636 41.3326C95.7852 41.0894 96.0431 40.8841 96.3276 40.7243C96.2859 40.4006 96.3064 40.0716 96.3879 39.7559C96.3899 39.7464 96.3937 39.7375 96.3992 39.7296C96.4047 39.7218 96.4117 39.7152 96.4198 39.7102C96.4279 39.7052 96.4368 39.702 96.4462 39.7007C96.4555 39.6994 96.465 39.7001 96.474 39.7028C96.4921 39.707 96.5079 39.7183 96.5181 39.7343C96.5283 39.7502 96.532 39.7696 96.5286 39.7884C96.458 40.0727 96.4366 40.3675 96.4654 40.6594C96.5782 40.6139 96.6976 40.5879 96.8187 40.5826C96.9175 40.5782 97.0161 40.5956 97.1078 40.6339C97.1995 40.6721 97.2821 40.7301 97.35 40.8041C97.4224 40.8596 97.4721 40.9408 97.4896 41.0319C97.5072 41.1229 97.4912 41.2175 97.4448 41.2971C97.3979 41.3612 97.3365 41.4124 97.2659 41.4464C97.1953 41.4804 97.1177 41.496 97.0398 41.492ZM96.4855 40.8129C96.5037 40.9175 96.5453 41.0162 96.6071 41.1013C96.669 41.1864 96.7493 41.2555 96.8417 41.303C96.9199 41.3431 97.0084 41.3567 97.0945 41.3418C97.1807 41.327 97.2601 41.2845 97.3213 41.2204C97.3787 41.1347 97.35 41.0255 97.2409 40.9251C97.1859 40.8666 97.1198 40.8204 97.0466 40.7894C96.9735 40.7584 96.8949 40.7433 96.8158 40.745C96.7076 40.7497 96.6009 40.7726 96.4999 40.8129H96.4855Z" fill="#263238"/>
<path d="M92.5451 43.5449C92.5312 43.5446 92.5176 43.5402 92.506 43.5324C92.4943 43.5246 92.485 43.5135 92.4791 43.5006C92.4791 43.4828 91.8558 41.8821 93.3407 40.0599C93.3463 40.0513 93.3536 40.0439 93.3621 40.0384C93.3707 40.0328 93.3803 40.0292 93.3903 40.0277C93.4003 40.0262 93.4105 40.027 93.4202 40.0298C93.43 40.0327 93.439 40.0376 93.4467 40.0443C93.4545 40.051 93.4607 40.0593 93.4651 40.0687C93.4695 40.0781 93.472 40.0883 93.4723 40.0987C93.4725 40.1091 93.4707 40.1194 93.4668 40.129C93.463 40.1386 93.4572 40.1473 93.4498 40.1545C92.031 41.9058 92.6112 43.4267 92.6198 43.4444C92.6264 43.4625 92.6259 43.4825 92.6184 43.5001C92.6109 43.5178 92.597 43.5317 92.5796 43.539L92.5451 43.5449Z" fill="#263238"/>
<path d="M99.9463 52.2008C99.9299 52.2011 99.9139 52.1952 99.9012 52.1844C99.8886 52.1736 99.8801 52.1585 99.8774 52.1418C99.6304 50.881 97.9101 50.3998 97.8928 50.3939C97.8829 50.3922 97.8734 50.3884 97.865 50.3828C97.8566 50.3771 97.8494 50.3697 97.844 50.361C97.8385 50.3523 97.8349 50.3426 97.8333 50.3323C97.8318 50.3221 97.8324 50.3117 97.835 50.3017C97.8376 50.2917 97.8423 50.2824 97.8486 50.2744C97.855 50.2664 97.8629 50.2598 97.8718 50.2552C97.8808 50.2505 97.8907 50.2478 97.9007 50.2473C97.9107 50.2468 97.9208 50.2484 97.9302 50.2522C98.0048 50.2728 99.7539 50.76 100.018 52.1123C100.022 52.1318 100.017 52.1519 100.007 52.1684C99.9961 52.185 99.9795 52.1966 99.9607 52.2008H99.9463Z" fill="#263238"/>
<path opacity="0.2" d="M108.413 77.3326C105.254 75.9213 104.875 72.0712 104.875 72.0712C105.74 71.9117 106.631 71.9859 107.46 72.2867C107.79 73.8161 108.111 75.4873 108.413 77.3326Z" fill="black"/>
<path d="M102.485 65.859C106.943 62.1565 112.213 56.9216 113.6 51.0608C113.623 51.1642 113.703 51.4211 113.769 51.4299C113.835 51.4388 113.744 51.3295 113.606 51.2055C110.49 48.9586 103.077 48.4744 99.0646 48.0345L98.8923 44.4914C103.944 43.7533 110.593 43.3606 115.435 45.2916C118.517 46.5671 120.467 49.1683 119.694 52.7822C118.347 60.1104 113.178 66.2044 107.735 70.7543L107.161 71.1972L106.874 71.4186L106.546 71.6637L102.477 65.856L102.485 65.859Z" fill="#EBC0BB"/>
<path d="M101.638 65.8442C101.638 65.8442 108.442 60.0868 110.86 56.4463L116.435 63.556L108.017 75.4282C108.017 75.4282 104.921 74.7078 103.163 71.8556C102.097 70.0466 101.568 67.9578 101.638 65.8442Z" fill="#2429A6"/>
<path d="M29.5416 97.1708C28.7375 81.4337 33.1891 71.0614 37.0635 65.1298C41.2968 58.6519 45.7054 55.9533 45.8892 55.8411L46.9059 57.6126L46.3975 56.7268L46.9087 57.6126C46.8657 57.6362 42.6467 60.2433 38.666 66.3728C34.9927 72.0328 30.7766 81.9475 31.5492 97.0497L29.5416 97.1708Z" fill="#2429A6"/>
<g opacity="0.2">
<path d="M29.5416 97.1708C28.7375 81.4337 33.1891 71.0614 37.0635 65.1298C41.2968 58.6519 45.7054 55.9533 45.8892 55.8411L46.9059 57.6126L46.3975 56.7268L46.9087 57.6126C46.8657 57.6362 42.6467 60.2433 38.666 66.3728C34.9927 72.0328 30.7766 81.9475 31.5492 97.0497L29.5416 97.1708Z" fill="black"/>
</g>
<g opacity="0.2">
<path d="M46.8139 57.6834L45.7398 55.9354L45.8949 55.838L46.903 57.6273L46.8139 57.6834Z" fill="black"/>
<path d="M29.4669 95.2162V94.921L31.4774 94.8767V95.1719L29.4669 95.2162ZM29.4468 93.1169V92.8217L31.4573 92.8394V93.1347L29.4468 93.1169ZM31.4975 91.0915L29.487 91.0177V90.7224L31.4975 90.8081V91.0915ZM31.6009 89.0631L29.5904 88.9184L29.6105 88.6232L31.621 88.7767L31.6009 89.0631ZM31.7732 87.0377L29.7628 86.8251L29.7944 86.5298L31.8048 86.7572L31.7732 87.0377ZM32.0144 85.027L30.0241 84.7317L30.0672 84.4365L32.0546 84.7317L32.0144 85.027ZM32.3275 83.0252L30.3487 82.6738L30.4032 82.3785L32.3792 82.7565L32.3275 83.0252ZM32.7181 81.0381L30.7536 80.607L30.8197 80.3118L32.7784 80.7724L32.7181 81.0381ZM33.1833 79.0717L31.2419 78.5402L31.3165 78.245L33.2551 78.7882L33.1833 79.0717ZM33.729 77.1319L31.8105 76.5148L31.8995 76.2195L33.8152 76.8484L33.729 77.1319ZM34.358 75.2186L32.4682 74.513L32.5687 74.2177L34.4528 74.9352L34.358 75.2186ZM35.0703 73.3349L33.2121 72.5436L33.3269 72.2631L35.1765 73.0692L35.0703 73.3349ZM35.8629 71.4896L34.0449 70.6038L34.1713 70.3292L35.9836 71.215L35.8629 71.4896ZM36.7446 69.6885L34.9697 68.7171L35.1105 68.4484L36.8768 69.4375L36.7446 69.6885ZM37.7096 67.9376L35.9864 66.8718L36.1386 66.612L37.8619 67.6896L37.7096 67.9376ZM38.7608 66.2399L37.095 65.0825L37.2587 64.8345L38.9188 66.0008L38.7608 66.2399ZM39.9096 64.6013L38.307 63.3523L38.4851 63.1132L40.0791 64.371L39.9096 64.6013ZM41.1302 63.0305L39.5851 61.7107L39.7775 61.4804L41.2997 62.8268L41.1302 63.0305ZM42.4341 61.5365L40.978 60.1134L41.1848 59.892L42.6208 61.3328L42.4341 61.5365ZM43.8213 60.1311L42.4571 58.6135L42.6754 58.4068L44.0252 59.9363L43.8213 60.1311ZM45.2889 58.8291L44.0338 57.214L44.2693 57.0221L45.5072 58.6519L45.2889 58.8291Z" fill="black"/>
<path d="M29.5416 97.1721L29.533 97.0177L31.5434 96.9197L31.5491 97.0504L29.5416 97.1721Z" fill="black"/>
</g>
<path d="M49.3988 51.0963C48.8125 50.8317 48.1721 50.7183 47.5335 50.7662C46.8948 50.814 46.2773 51.0217 45.7345 51.3709C45.1917 51.7202 44.7402 52.2006 44.4193 52.7703C44.0984 53.3399 43.9177 53.9816 43.8931 54.6394L46.05 59.517L49.393 57.3557L52.7246 55.2151L49.3988 51.0963Z" fill="#2429A6"/>
<path opacity="0.2" d="M49.3988 51.0963C48.8125 50.8317 48.1721 50.7183 47.5335 50.7662C46.8948 50.814 46.2773 51.0217 45.7345 51.3709C45.1917 51.7202 44.7402 52.2006 44.4193 52.7703C44.0984 53.3399 43.9177 53.9816 43.8931 54.6394L46.05 59.517L49.393 57.3557L52.7246 55.2151L49.3988 51.0963Z" fill="white"/>
<path d="M56.0044 56.691C55.1256 55.2561 53.4455 54.8132 52.9773 54.7158H52.9543L52.8509 54.6951C51.8457 54.5416 50.2173 55.0406 48.6061 56.0799C46.9949 57.1192 45.8547 58.4153 45.5531 59.4103C45.5531 59.4103 45.5531 59.4487 45.5244 59.5166V59.5373C45.4067 60.0156 45.0678 61.7606 45.9437 63.1985C46.6617 64.3795 49.4993 63.8687 52.2823 62.0706C55.0653 60.2725 56.7167 57.8721 56.0044 56.691Z" fill="#2429A6"/>
<path opacity="0.2" d="M45.9208 63.2047C46.6388 64.3857 49.4763 63.8749 52.2593 62.0768C55.0423 60.2787 56.7167 57.8724 56.0044 56.6914C55.2922 55.5104 52.446 56.0212 49.663 57.8193C46.88 59.6174 45.1999 62.0296 45.9208 63.2047Z" fill="white"/>
<path opacity="0.2" d="M55.7689 56.8358C56.3893 57.8515 54.7379 60.0629 52.0813 61.7813C49.4246 63.4997 46.768 64.0695 46.1448 63.0568C45.7743 62.4456 46.2252 61.4004 47.2275 60.2873C48.7978 58.6238 50.7345 57.3731 52.8739 56.6409C54.2812 56.1922 55.3984 56.2276 55.7689 56.8358Z" fill="black"/>
<path d="M52.9342 56.7296C53.1675 57.1111 53.3254 57.5361 53.3989 57.9804C53.4724 58.4246 53.46 58.8794 53.3625 59.3188C53.2651 59.7581 53.0844 60.1735 52.8308 60.541C52.5772 60.9086 52.2556 61.2212 51.8845 61.461C51.5134 61.7008 51.0999 61.8631 50.6678 61.9387C50.2356 62.0143 49.7933 62.0016 49.3659 61.9014C48.9385 61.8012 48.5345 61.6154 48.177 61.3547C47.8194 61.094 47.5154 60.7634 47.2821 60.3819L47.2275 60.2874C48.7978 58.6238 50.7345 57.3732 52.8739 56.641C52.894 56.6676 52.9141 56.6912 52.9342 56.7296Z" fill="white"/>
<path d="M38.0859 100.641V98.671C38.0859 98.169 37.8919 97.6874 37.5467 97.3324C37.2014 96.9774 36.7332 96.778 36.2449 96.778H24.8918C24.4036 96.778 23.9353 96.9774 23.59 97.3324C23.2448 97.6874 23.0508 98.169 23.0508 98.671V100.641H38.0859Z" fill="#2429A6"/>
<path d="M38.0859 99.6212H23.0508V100.641H38.0859V99.6212Z" fill="black"/>
<path d="M23.203 88.0653C23.158 88.7874 23.3923 89.4984 23.855 90.0437C24.3176 90.589 24.971 90.9243 25.673 90.9765L26.0578 91.0001H26.1382H26.3278V90.8466L26.368 90.2384L25.7591 90.197H25.7132C25.2089 90.1599 24.7393 89.9194 24.4068 89.5278C24.0743 89.1362 23.9059 88.6254 23.9383 88.1066L23.9842 87.3921C23.9938 87.2791 24.046 87.1743 24.1297 87.1004C24.2135 87.0264 24.3221 86.9891 24.4323 86.9965L25.1905 87.0496L26.1153 87.1146L26.167 86.3469L25.1503 86.2761L24.484 86.2288C24.177 86.2135 23.8765 86.3234 23.648 86.5346C23.4194 86.7458 23.2812 87.0413 23.2634 87.3567L23.203 88.0653Z" fill="#2429A6"/>
<g opacity="0.5">
<path d="M23.203 88.0653C23.158 88.7874 23.3923 89.4984 23.855 90.0437C24.3176 90.589 24.971 90.9243 25.673 90.9765L26.0578 91.0001H26.1382H26.3278V90.8466L26.368 90.2384L25.7591 90.197H25.7132C25.2089 90.1599 24.7393 89.9194 24.4068 89.5278C24.0743 89.1362 23.9059 88.6254 23.9383 88.1066L23.9842 87.3921C23.9938 87.2791 24.046 87.1743 24.1297 87.1004C24.2135 87.0264 24.3221 86.9891 24.4323 86.9965L25.1905 87.0496L26.1153 87.1146L26.167 86.3469L25.1503 86.2761L24.484 86.2288C24.177 86.2135 23.8765 86.3234 23.648 86.5346C23.4194 86.7458 23.2812 87.0413 23.2634 87.3567L23.203 88.0653Z" fill="white"/>
</g>
<path d="M25.1502 85.9218V85.9926C25.1502 86.0871 25.1502 86.1816 25.1502 86.2879C25.1502 86.5536 25.1675 86.8134 25.1904 87.0614C25.2446 88.1341 25.4378 89.1946 25.7649 90.2148C25.8663 90.4775 25.9903 90.7305 26.1353 90.9706L26.1526 91.006C26.3063 91.2998 26.5508 91.5325 26.8476 91.6674C26.9155 91.695 26.9873 91.7109 27.0601 91.7146L30.5066 91.9568C30.9718 91.9922 31.4371 91.5906 31.8507 90.8584C32.0935 90.4142 32.2954 89.9476 32.4538 89.4648C32.7626 88.5204 32.9913 87.5503 33.1373 86.5654V86.5004L25.1502 85.9218Z" fill="#2429A6"/>
<path opacity="0.6" d="M25.1502 85.9218V85.9926C25.1502 86.0871 25.1502 86.1816 25.1502 86.2879C25.1502 86.5536 25.1675 86.8134 25.1904 87.0614C25.2446 88.1341 25.4378 89.1946 25.7649 90.2148C25.8663 90.4775 25.9903 90.7305 26.1353 90.9706L26.1526 91.006C26.3063 91.2998 26.5508 91.5325 26.8476 91.6674C26.9155 91.695 26.9873 91.7109 27.0601 91.7146L30.5066 91.9568C30.9718 91.9922 31.4371 91.5906 31.8507 90.8584C32.0935 90.4142 32.2954 89.9476 32.4538 89.4648C32.7626 88.5204 32.9913 87.5503 33.1373 86.5654V86.5004L25.1502 85.9218Z" fill="white"/>
<path opacity="0.1" d="M26.0579 91.0006H26.1383C26.292 91.2944 26.5365 91.5272 26.8333 91.6621C28.2234 91.5204 30.2797 91.1541 31.8249 90.8529C32.0763 90.4115 32.2868 89.9467 32.4539 89.4648C31.305 89.5948 28.232 90.0083 26.3479 90.8647C26.2733 90.9002 26.1986 90.9297 26.1297 90.971C26.1046 90.9777 26.0805 90.9877 26.0579 91.0006Z" fill="black"/>
<path d="M32.8616 94.9271L32.2125 95.0304L32.0976 94.2716L32.7467 94.1682C33.2462 94.0868 33.6941 93.8054 33.9923 93.3854C34.2904 92.9654 34.4147 92.4412 34.3378 91.9273L34.2316 91.2246C34.2139 91.1125 34.1539 91.012 34.0646 90.9452C33.9754 90.8783 33.864 90.8503 33.7548 90.8673L32.089 91.136L31.9742 90.3772L33.6399 90.1085C33.9446 90.0601 34.2555 90.1381 34.5043 90.3252C34.753 90.5123 34.9194 90.7933 34.9668 91.1065L35.0759 91.8092C35.1826 92.5242 35.0095 93.2536 34.5945 93.8378C34.1796 94.422 33.5566 94.8137 32.8616 94.9271Z" fill="#2429A6"/>
<g opacity="0.5">
<path d="M34.335 91.9302C34.4126 92.4439 34.2885 92.9682 33.9902 93.3879C33.6918 93.8076 33.2435 94.0883 32.7439 94.1682H32.6922L32.0948 94.2686L32.1666 94.7794L32.2068 95.0274L32.3906 94.9979L32.8559 94.927C32.873 94.9298 32.8904 94.9298 32.9076 94.927C33.5906 94.8026 34.1995 94.4089 34.6045 93.8299C35.0095 93.2508 35.1786 92.5322 35.0759 91.8268L34.9668 91.1241C34.9452 90.9682 34.8934 90.8184 34.8146 90.6833C34.7358 90.5483 34.6315 90.4308 34.5078 90.3378C34.3842 90.2449 34.2437 90.1782 34.0947 90.1419C33.9456 90.1055 33.791 90.1002 33.6399 90.1262L32.9794 90.2325L31.9742 90.3919L32.089 91.1478L33.0023 91.0001L33.7548 90.882C33.8645 90.8651 33.9762 90.8934 34.0655 90.961C34.1549 91.0285 34.2146 91.1296 34.2316 91.2422L34.335 91.9302Z" fill="white"/>
</g>
<path d="M31.5491 95.7893L28.1458 96.3355C27.0975 96.5038 25.8482 94.3987 25.0612 91.1951L25.0469 91.1302L32.9593 89.8606V89.9285C33.1776 93.2235 32.5974 95.621 31.5491 95.7893Z" fill="#2429A6"/>
<path opacity="0.6" d="M25.0469 91.133L25.0641 91.1921C25.3157 92.3005 25.6836 93.3776 26.1612 94.4045C26.7988 95.7036 27.5111 96.4358 28.1429 96.3354L31.5491 95.7863C31.8823 95.7331 32.1695 95.4615 32.3935 95.0009C32.4218 94.9475 32.4468 94.8922 32.4682 94.8355C32.561 94.622 32.636 94.4008 32.6922 94.1742C32.935 93.1305 33.0393 92.0578 33.0024 90.9854C33.0024 90.7374 33.0024 90.4835 32.9794 90.2178C32.9794 90.1233 32.9794 90.0288 32.9622 89.9225V89.8575L25.0469 91.133Z" fill="white"/>
<path opacity="0.1" d="M26.1612 94.4044C26.7988 95.7038 27.5111 96.4362 28.1429 96.3358L31.5491 95.7865C31.8823 95.7334 32.1695 95.4616 32.3935 95.0009L32.8588 94.9301C32.8759 94.9328 32.8933 94.9328 32.9105 94.9301C32.7726 94.9005 32.6233 94.8769 32.4682 94.8474L32.181 94.7942C30.5439 94.5107 28.1458 94.2094 26.1612 94.4044Z" fill="black"/>
<path d="M26.5949 99.911H27.2526V99.1433H26.5949C26.0914 99.1395 25.6097 98.9313 25.2547 98.5641C24.8997 98.197 24.7001 97.7005 24.6994 97.1829V96.4713C24.6994 96.3578 24.7433 96.2489 24.8214 96.1686C24.8995 96.0883 25.0054 96.0432 25.1158 96.0432H26.8017V95.2755H25.1043C24.7986 95.2802 24.5068 95.4081 24.292 95.6318C24.0771 95.8554 23.9563 96.1569 23.9555 96.4713V97.1829C23.9563 97.9036 24.2341 98.5949 24.7286 99.1059C25.223 99.6169 25.8938 99.9063 26.5949 99.911Z" fill="#2429A6"/>
<g opacity="0.5">
<path d="M26.5949 99.911H27.2526V99.1433H26.5949C26.0914 99.1395 25.6097 98.9313 25.2547 98.5641C24.8997 98.197 24.7001 97.7005 24.6994 97.1829V96.4713C24.6994 96.3578 24.7433 96.2489 24.8214 96.1686C24.8995 96.0883 25.0054 96.0432 25.1158 96.0432H26.8017V95.2755H25.1043C24.7986 95.2802 24.5068 95.4081 24.292 95.6318C24.0771 95.8554 23.9563 96.1569 23.9555 96.4713V97.1829C23.9563 97.9036 24.2341 98.5949 24.7286 99.1059C25.223 99.6169 25.8938 99.9063 26.5949 99.911Z" fill="white"/>
</g>
<path d="M28.0194 100.555H31.4658C32.5285 100.555 33.459 98.2783 33.7405 94.9892V94.9242H25.739V94.9892C26.0262 98.2783 26.9596 100.555 28.0194 100.555Z" fill="#2429A6"/>
<path opacity="0.6" d="M28.0194 100.555H31.4658C32.5285 100.555 33.459 98.2783 33.7405 94.9892V94.9242H25.739V94.9892C26.0262 98.2783 26.9596 100.555 28.0194 100.555Z" fill="white"/>
<path opacity="0.4" d="M28.6627 86.1818C29.0045 86.2083 28.9183 87.41 29.1452 87.6137C29.3721 87.8175 29.4583 86.5331 29.7426 86.6217C30.0269 86.7103 30.3486 86.9583 30.6301 86.3264L28.6627 86.1818Z" fill="black"/>
<path opacity="0.4" d="M25.3714 91.0591C25.3714 91.0591 25.5409 92.2844 25.739 92.2991C25.9372 92.3139 25.7821 91.2628 26.0578 91.3514C26.3336 91.4399 26.6667 90.873 26.6667 90.873L25.3714 91.0591Z" fill="black"/>
<path d="M39.8866 98.3547V99.9997C39.8866 100.422 40.372 100.59 40.7769 100.59H72.7626C73.1733 100.59 73.6673 100.419 73.6673 99.9997V98.3547H39.8866Z" fill="#263238"/>
<path opacity="0.4" d="M39.8866 98.3547V99.9997C39.8866 100.422 40.372 100.59 40.7769 100.59H72.7626C73.1733 100.59 73.6673 100.419 73.6673 99.9997V98.3547H39.8866Z" fill="white"/>
<path opacity="0.2" d="M39.8866 98.3547V99.9997C39.8866 100.422 40.372 100.59 40.7769 100.59H61.8748C62.2826 100.59 62.7709 100.419 62.7709 99.9997V98.3547H39.8866Z" fill="black"/>
<path d="M34.536 81.2684L38.3443 99.025C38.4132 99.3096 38.5716 99.5629 38.7949 99.7455C39.0182 99.9281 39.294 100.03 39.5793 100.035H60.3813C60.5123 100.033 60.641 99.9999 60.7574 99.938C60.8737 99.876 60.9743 99.7871 61.0513 99.6781C61.1283 99.5692 61.1795 99.4432 61.2008 99.3104C61.222 99.1775 61.2129 99.0414 61.174 98.9128L57.3686 81.292C57.2422 80.7015 56.6936 80.424 56.1336 80.424H35.3258C34.7514 80.4299 34.4125 80.6897 34.536 81.2684Z" fill="#263238"/>
<path opacity="0.4" d="M34.536 81.2689L38.3443 99.0255C38.4132 99.3102 38.5717 99.5635 38.795 99.7461C39.0183 99.9287 39.294 100.03 39.5793 100.035H59.6834C59.8133 100.032 59.9407 99.9987 60.0557 99.9367C60.1707 99.8747 60.2702 99.7862 60.3464 99.6781C60.4227 99.5701 60.4735 99.4453 60.495 99.3136C60.5165 99.182 60.5081 99.047 60.4704 98.9193L56.6621 81.2985C56.5386 80.708 55.9843 80.4304 55.4271 80.4304H35.3258C34.7514 80.4304 34.4125 80.6902 34.536 81.2689Z" fill="white"/>
<path opacity="0.2" d="M44.8035 90.2944C44.8035 91.812 46.3889 93.0491 47.5491 93.0491C48.7094 93.0491 49.4016 91.812 49.0713 90.2944C48.741 88.7768 47.5836 87.5898 46.4463 87.5426C46.7766 89.0632 46.0672 90.2944 44.9098 90.2944C44.8744 90.2981 44.8388 90.2981 44.8035 90.2944Z" fill="black"/>
<path d="M124.465 101.163H20.4659V106.459H124.465V101.163Z" fill="#263238"/>
<path opacity="0.5" d="M124.465 101.163H20.4659V106.459H124.465V101.163Z" fill="white"/>
<path d="M125.591 100.652H19.343C19.0226 100.652 18.7629 100.919 18.7629 101.248V102.105C18.7629 102.434 19.0226 102.701 19.343 102.701H125.591C125.911 102.701 126.171 102.434 126.171 102.105V101.248C126.171 100.919 125.911 100.652 125.591 100.652Z" fill="#263238"/>
<path opacity="0.6" d="M125.591 100.652H19.343C19.0226 100.652 18.7629 100.919 18.7629 101.248V102.105C18.7629 102.434 19.0226 102.701 19.343 102.701H125.591C125.911 102.701 126.171 102.434 126.171 102.105V101.248C126.171 100.919 125.911 100.652 125.591 100.652Z" fill="white"/>
<path d="M101.845 92.5531H115.516V89.2395H101.845V92.5531Z" fill="#2429A6"/>
<path opacity="0.7" d="M101.845 92.5531H115.516V89.2395H101.845V92.5531Z" fill="white"/>
<path d="M110.228 88.9335H120.938C121.431 88.9532 121.898 89.1685 122.24 89.5344C122.583 89.9003 122.774 90.3883 122.774 90.8959C122.774 91.4036 122.583 91.8916 122.24 92.2575C121.898 92.6234 121.431 92.8387 120.938 92.8584H110.228V92.1408H111.857C112.167 92.1252 112.461 91.9872 112.675 91.7555C112.89 91.5238 113.01 91.216 113.01 90.8959C113.01 90.5759 112.89 90.2681 112.675 90.0364C112.461 89.8046 112.167 89.6667 111.857 89.6511H110.228V88.9335Z" fill="#2429A6"/>
<g opacity="0.4">
<path d="M110.228 88.9335H120.938C121.431 88.9532 121.898 89.1685 122.24 89.5344C122.583 89.9003 122.774 90.3883 122.774 90.8959C122.774 91.4036 122.583 91.8916 122.24 92.2575C121.898 92.6234 121.431 92.8387 120.938 92.8584H110.228V92.1408H111.857C112.167 92.1252 112.461 91.9872 112.675 91.7555C112.89 91.5238 113.01 91.216 113.01 90.8959C113.01 90.5759 112.89 90.2681 112.675 90.0364C112.461 89.8046 112.167 89.6667 111.857 89.6511H110.228V88.9335Z" fill="white"/>
</g>
<path d="M101.147 88.9335H111.857C112.35 88.9532 112.817 89.1685 113.159 89.5344C113.501 89.9003 113.692 90.3883 113.692 90.8959C113.692 91.4036 113.501 91.8916 113.159 92.2575C112.817 92.6234 112.35 92.8387 111.857 92.8584H101.147V92.1408H111.857C112.167 92.1252 112.461 91.9872 112.675 91.7555C112.89 91.5238 113.01 91.216 113.01 90.8959C113.01 90.5759 112.89 90.2681 112.675 90.0364C112.461 89.8046 112.167 89.6667 111.857 89.6511H101.147V88.9335Z" fill="#2429A6"/>
<g opacity="0.2">
<path d="M101.147 88.9335H111.857C112.35 88.9532 112.817 89.1685 113.159 89.5344C113.501 89.9003 113.692 90.3883 113.692 90.8959C113.692 91.4036 113.501 91.8916 113.159 92.2575C112.817 92.6234 112.35 92.8387 111.857 92.8584H101.147V92.1408H111.857C112.167 92.1252 112.461 91.9872 112.675 91.7555C112.89 91.5238 113.01 91.216 113.01 90.8959C113.01 90.5759 112.89 90.2681 112.675 90.0364C112.461 89.8046 112.167 89.6667 111.857 89.6511H101.147V88.9335Z" fill="white"/>
</g>
<path d="M121.449 85.3165H107.778V88.6301H121.449V85.3165Z" fill="#2429A6"/>
<path opacity="0.7" d="M121.449 85.3165H107.778V88.6301H121.449V85.3165Z" fill="white"/>
<path d="M113.066 85.0123H102.359C102.108 85.0123 101.86 85.063 101.629 85.1616C101.398 85.2601 101.187 85.4046 101.01 85.5867C100.833 85.7688 100.693 85.985 100.597 86.2229C100.501 86.4608 100.452 86.7158 100.452 86.9733C100.452 87.2308 100.501 87.4858 100.597 87.7238C100.693 87.9617 100.833 88.1779 101.01 88.36C101.187 88.5421 101.398 88.6865 101.629 88.7851C101.86 88.8836 102.108 88.9343 102.359 88.9343H113.066V88.2167H111.434C111.114 88.2167 110.806 88.0857 110.579 87.8525C110.353 87.6193 110.225 87.3031 110.225 86.9733C110.225 86.6436 110.353 86.3273 110.579 86.0941C110.806 85.861 111.114 85.73 111.434 85.73H113.06L113.066 85.0123Z" fill="#2429A6"/>
<g opacity="0.4">
<path d="M113.066 85.0123H102.359C102.108 85.0123 101.86 85.063 101.629 85.1616C101.398 85.2601 101.187 85.4046 101.01 85.5867C100.833 85.7688 100.693 85.985 100.597 86.2229C100.501 86.4608 100.452 86.7158 100.452 86.9733C100.452 87.2308 100.501 87.4858 100.597 87.7238C100.693 87.9617 100.833 88.1779 101.01 88.36C101.187 88.5421 101.398 88.6865 101.629 88.7851C101.86 88.8836 102.108 88.9343 102.359 88.9343H113.066V88.2167H111.434C111.114 88.2167 110.806 88.0857 110.579 87.8525C110.353 87.6193 110.225 87.3031 110.225 86.9733C110.225 86.6436 110.353 86.3273 110.579 86.0941C110.806 85.861 111.114 85.73 111.434 85.73H113.06L113.066 85.0123Z" fill="black"/>
</g>
<path d="M122.147 85.0123H111.434C110.929 85.0123 110.444 85.2189 110.086 85.5867C109.728 85.9544 109.527 86.4532 109.527 86.9733C109.527 87.4934 109.728 87.9922 110.086 88.36C110.444 88.7277 110.929 88.9343 111.434 88.9343H122.147V88.2167H111.434C111.114 88.2167 110.806 88.0857 110.579 87.8525C110.353 87.6193 110.225 87.3031 110.225 86.9733C110.225 86.6436 110.353 86.3273 110.579 86.0941C110.806 85.861 111.114 85.73 111.434 85.73H122.147V85.0123Z" fill="#2429A6"/>
<g opacity="0.2">
<path d="M122.147 85.0123H111.434C110.929 85.0123 110.444 85.2189 110.086 85.5867C109.728 85.9544 109.527 86.4532 109.527 86.9733C109.527 87.4934 109.728 87.9922 110.086 88.36C110.444 88.7277 110.929 88.9343 111.434 88.9343H122.147V88.2167H111.434C111.114 88.2167 110.806 88.0857 110.579 87.8525C110.353 87.6193 110.225 87.3031 110.225 86.9733C110.225 86.6436 110.353 86.3273 110.579 86.0941C110.806 85.861 111.114 85.73 111.434 85.73H122.147V85.0123Z" fill="black"/>
</g>
<path d="M99.0387 96.4741H112.71V93.1605H99.0387V96.4741Z" fill="#2429A6"/>
<path opacity="0.7" d="M99.0387 96.4741H112.71V93.1605H99.0387V96.4741Z" fill="white"/>
<path d="M107.414 92.8573H118.12C118.371 92.8573 118.619 92.908 118.85 93.0066C119.082 93.1051 119.292 93.2496 119.469 93.4317C119.646 93.6138 119.786 93.8299 119.882 94.0679C119.978 94.3058 120.027 94.5608 120.027 94.8183C120.027 95.0758 119.978 95.3308 119.882 95.5687C119.786 95.8067 119.646 96.0228 119.469 96.2049C119.292 96.387 119.082 96.5315 118.85 96.63C118.619 96.7286 118.371 96.7793 118.12 96.7793H107.414V96.0616H109.039C109.36 96.0616 109.667 95.9307 109.894 95.6975C110.121 95.4643 110.248 95.1481 110.248 94.8183C110.248 94.4885 110.121 94.1723 109.894 93.9391C109.667 93.706 109.36 93.575 109.039 93.575H107.414V92.8573Z" fill="#263238"/>
<g opacity="0.2">
<path d="M107.414 92.8573H118.12C118.371 92.8573 118.619 92.908 118.85 93.0066C119.082 93.1051 119.292 93.2496 119.469 93.4317C119.646 93.6138 119.786 93.8299 119.882 94.0679C119.978 94.3058 120.027 94.5608 120.027 94.8183C120.027 95.0758 119.978 95.3308 119.882 95.5687C119.786 95.8067 119.646 96.0228 119.469 96.2049C119.292 96.387 119.082 96.5315 118.85 96.63C118.619 96.7286 118.371 96.7793 118.12 96.7793H107.414V96.0616H109.039C109.36 96.0616 109.667 95.9307 109.894 95.6975C110.121 95.4643 110.248 95.1481 110.248 94.8183C110.248 94.4885 110.121 94.1723 109.894 93.9391C109.667 93.706 109.36 93.575 109.039 93.575H107.414V92.8573Z" fill="white"/>
</g>
<path d="M98.338 92.8573H109.048C109.554 92.8573 110.039 93.0639 110.396 93.4317C110.754 93.7994 110.955 94.2982 110.955 94.8183C110.955 95.3384 110.754 95.8372 110.396 96.2049C110.039 96.5727 109.554 96.7793 109.048 96.7793H98.338V96.0616H109.048C109.368 96.0616 109.676 95.9307 109.903 95.6975C110.129 95.4643 110.257 95.1481 110.257 94.8183C110.257 94.4885 110.129 94.1723 109.903 93.9391C109.676 93.706 109.368 93.575 109.048 93.575H98.338V92.8573Z" fill="#263238"/>
<g opacity="0.4">
<path d="M98.338 92.8573H109.048C109.554 92.8573 110.039 93.0639 110.396 93.4317C110.754 93.7994 110.955 94.2982 110.955 94.8183C110.955 95.3384 110.754 95.8372 110.396 96.2049C110.039 96.5727 109.554 96.7793 109.048 96.7793H98.338V96.0616H109.048C109.368 96.0616 109.676 95.9307 109.903 95.6975C110.129 95.4643 110.257 95.1481 110.257 94.8183C110.257 94.4885 110.129 94.1723 109.903 93.9391C109.676 93.706 109.368 93.575 109.048 93.575H98.338V92.8573Z" fill="white"/>
</g>
<path d="M121.105 97.0823H107.434V100.396H121.105V97.0823Z" fill="#2429A6"/>
<path opacity="0.7" d="M121.105 97.0823H107.434V100.396H121.105V97.0823Z" fill="white"/>
<path d="M121.805 96.7781H111.096C110.602 96.7978 110.135 97.0131 109.793 97.379C109.451 97.7449 109.26 98.2329 109.26 98.7406C109.26 99.2482 109.451 99.7362 109.793 100.102C110.135 100.468 110.602 100.683 111.096 100.703H121.805V99.9854H111.096C110.785 99.9698 110.492 99.8319 110.277 99.6001C110.062 99.3684 109.943 99.0606 109.943 98.7406C109.943 98.4205 110.062 98.1127 110.277 97.881C110.492 97.6493 110.785 97.5113 111.096 97.4957H121.805V96.7781Z" fill="#263238"/>
<path d="M112.721 96.7781H102.014C101.521 96.7978 101.054 97.0131 100.712 97.379C100.37 97.7449 100.178 98.2329 100.178 98.7406C100.178 99.2482 100.37 99.7362 100.712 100.102C101.054 100.468 101.521 100.683 102.014 100.703H112.721V99.9854H111.095C110.785 99.9698 110.492 99.8319 110.277 99.6001C110.062 99.3684 109.942 99.0606 109.942 98.7406C109.942 98.4205 110.062 98.1127 110.277 97.881C110.492 97.6493 110.785 97.5113 111.095 97.4957H112.721V96.7781Z" fill="#263238"/>
<g opacity="0.4">
<path d="M121.805 96.7781H111.096C110.602 96.7978 110.135 97.0131 109.793 97.379C109.451 97.7449 109.26 98.2329 109.26 98.7406C109.26 99.2482 109.451 99.7362 109.793 100.102C110.135 100.468 110.602 100.683 111.096 100.703H121.805V99.9854H111.096C110.785 99.9698 110.492 99.8319 110.277 99.6001C110.062 99.3684 109.943 99.0606 109.943 98.7406C109.943 98.4205 110.062 98.1127 110.277 97.881C110.492 97.6493 110.785 97.5113 111.096 97.4957H121.805V96.7781Z" fill="white"/>
</g>
<path d="M100.242 84.7084H113.913V81.3948H100.242V84.7084Z" fill="#2429A6"/>
<path opacity="0.7" d="M100.242 84.7084H113.913V81.3948H100.242V84.7084Z" fill="white"/>
<path d="M99.5443 85.0135H110.251C110.508 85.0237 110.764 84.9805 111.004 84.8865C111.245 84.7925 111.464 84.6496 111.649 84.4664C111.834 84.2831 111.982 84.0633 112.083 83.8201C112.183 83.5769 112.235 83.3153 112.235 83.051C112.235 82.7867 112.183 82.5251 112.083 82.2819C111.982 82.0387 111.834 81.8188 111.649 81.6356C111.464 81.4524 111.245 81.3094 111.004 81.2154C110.764 81.1214 110.508 81.0783 110.251 81.0885H99.5443V81.8062H110.251C110.415 81.798 110.579 81.8241 110.733 81.8829C110.887 81.9418 111.027 82.0321 111.146 82.1485C111.265 82.2649 111.359 82.4049 111.424 82.5601C111.489 82.7152 111.522 82.8822 111.522 83.051C111.522 83.2198 111.489 83.3868 111.424 83.5419C111.359 83.697 111.265 83.837 111.146 83.9534C111.027 84.0698 110.887 84.1602 110.733 84.2191C110.579 84.2779 110.415 84.304 110.251 84.2958H99.5443V85.0135Z" fill="#263238"/>
<path d="M108.626 85.0131H119.335C119.829 84.9934 120.295 84.778 120.638 84.4121C120.98 84.0463 121.171 83.5583 121.171 83.0506C121.171 82.5429 120.98 82.055 120.638 81.6891C120.295 81.3232 119.829 81.1078 119.335 81.0881H108.626V81.8058H110.251C110.415 81.7976 110.579 81.8237 110.733 81.8825C110.887 81.9414 111.027 82.0318 111.146 82.1482C111.265 82.2646 111.359 82.4046 111.424 82.5597C111.489 82.7148 111.522 82.8818 111.522 83.0506C111.522 83.2194 111.489 83.3864 111.424 83.5415C111.359 83.6967 111.265 83.8367 111.146 83.9531C111.027 84.0695 110.887 84.1598 110.733 84.2187C110.579 84.2775 110.415 84.3036 110.251 84.2954H108.626V85.0131Z" fill="#263238"/>
<g opacity="0.4">
<path d="M99.5443 85.0135H110.251C110.508 85.0237 110.764 84.9805 111.004 84.8865C111.245 84.7925 111.464 84.6496 111.649 84.4664C111.834 84.2831 111.982 84.0633 112.083 83.8201C112.183 83.5769 112.235 83.3153 112.235 83.051C112.235 82.7867 112.183 82.5251 112.083 82.2819C111.982 82.0387 111.834 81.8188 111.649 81.6356C111.464 81.4524 111.245 81.3094 111.004 81.2154C110.764 81.1214 110.508 81.0783 110.251 81.0885H99.5443V81.8062H110.251C110.415 81.798 110.579 81.8241 110.733 81.8829C110.887 81.9418 111.027 82.0321 111.146 82.1485C111.265 82.2649 111.359 82.4049 111.424 82.5601C111.489 82.7152 111.522 82.8822 111.522 83.051C111.522 83.2198 111.489 83.3868 111.424 83.5419C111.359 83.697 111.265 83.837 111.146 83.9534C111.027 84.0698 110.887 84.1602 110.733 84.2191C110.579 84.2779 110.415 84.304 110.251 84.2958H99.5443V85.0135Z" fill="white"/>
</g>
<g opacity="0.2">
<path d="M99.0359 93.8906L108.959 94.0012L99.0359 94.1147V93.8906Z" fill="black"/>
<path d="M99.0359 94.434L105.636 94.5475L99.0359 94.6581V94.434Z" fill="black"/>
<path d="M99.0359 94.9801L109.886 95.0907L99.0359 95.2042V94.9801Z" fill="black"/>
<path d="M99.0359 95.5233L108.399 95.6339L99.0359 95.7474V95.5233Z" fill="black"/>
</g>
<g opacity="0.2">
<path d="M101.845 89.9669L111.768 90.0805L101.845 90.191V89.9669Z" fill="black"/>
<path d="M101.845 90.5133L108.445 90.6239L101.845 90.7374V90.5133Z" fill="black"/>
<path d="M101.845 91.0562L112.692 91.1697L101.845 91.2803V91.0562Z" fill="black"/>
<path d="M101.845 91.6024L111.205 91.713L101.845 91.8265V91.6024Z" fill="black"/>
</g>
<g opacity="0.2">
<path d="M100.211 82.1218L110.136 82.2354L100.211 82.3459V82.1218Z" fill="black"/>
<path d="M100.211 82.6682L106.81 82.7788L100.211 82.8923V82.6682Z" fill="black"/>
<path d="M100.211 83.2115L111.061 83.3251L100.211 83.4357V83.2115Z" fill="black"/>
<path d="M100.211 83.7576L109.573 83.8681L100.211 83.9817V83.7576Z" fill="black"/>
</g>
<g opacity="0.2">
<path d="M121.079 99.683L111.156 99.5694L121.079 99.4589V99.683Z" fill="black"/>
<path d="M121.079 99.1367L114.479 99.0261L121.079 98.9126V99.1367Z" fill="black"/>
<path d="M121.079 98.5936L110.231 98.4831L121.079 98.3695V98.5936Z" fill="black"/>
<path d="M121.079 98.0503L111.716 97.9367L121.079 97.8262V98.0503Z" fill="black"/>
</g>
<g opacity="0.2">
<path d="M121.452 87.9026L111.526 87.789L121.452 87.6785V87.9026Z" fill="black"/>
<path d="M121.452 87.3594L114.852 87.2458L121.452 87.1353V87.3594Z" fill="black"/>
<path d="M121.452 86.8132L110.602 86.7027L121.452 86.5891V86.8132Z" fill="black"/>
<path d="M121.452 86.2698L112.089 86.1562L121.452 86.0457V86.2698Z" fill="black"/>
</g>
<path d="M100.825 98.6409C100.825 98.6409 96.8617 96.5948 94.6761 96.5358H74.0579L75.3216 100.598L84.1502 100.283L100.452 100.037L100.825 98.6409Z" fill="#2429A6"/>
<path opacity="0.7" d="M100.825 98.6409C100.825 98.6409 96.8617 96.5948 94.6761 96.5358H74.0579L75.3216 100.598L84.1502 100.283L100.452 100.037L100.825 98.6409Z" fill="white"/>
<path d="M68.4977 98.8424C68.4977 98.8424 70.8212 96.8549 73.6358 96.5654C76.4503 96.276 77.4354 98.5501 77.4354 98.5501C77.4354 98.5501 78.7738 96.657 80.8819 96.5389C82.9899 96.4207 87.3094 98.6416 87.3094 98.6416L86.9504 100.039L68.7246 100.313L68.4977 98.8424Z" fill="#2429A6"/>
<path opacity="0.6" d="M68.4977 98.8424C68.4977 98.8424 70.8212 96.8549 73.6358 96.5654C76.4503 96.276 77.4354 98.5501 77.4354 98.5501C77.4354 98.5501 78.7738 96.657 80.8819 96.5389C82.9899 96.4207 87.3094 98.6416 87.3094 98.6416L86.9504 100.039L68.7246 100.313L68.4977 98.8424Z" fill="white"/>
<path opacity="0.2" d="M100.825 98.6411L100.753 98.9157L100.707 99.0899L100.46 100.038H86.9361L87.0911 99.4324L87.1429 99.2493L87.2979 98.6411H100.825Z" fill="black"/>
<g opacity="0.2">
<path d="M86.9361 98.807C86.152 98.4527 85.3494 98.1431 84.5322 97.8797C83.7257 97.5955 82.8903 97.4072 82.0421 97.3186C81.1948 97.2731 80.3503 97.4521 79.5894 97.8383C78.8182 98.2048 78.097 98.6734 77.444 99.2323L77.3751 99.2884L77.3177 99.2205C76.8031 98.6149 76.1825 98.114 75.4882 97.7438C75.1411 97.5577 74.7696 97.4244 74.3853 97.3481C74.005 97.2827 73.6168 97.2827 73.2365 97.3481C72.462 97.5038 71.7074 97.7505 70.9877 98.0835C70.257 98.3974 69.5446 98.7543 68.8538 99.1526C69.5281 98.7382 70.2242 98.3626 70.9389 98.0274C71.6601 97.6747 72.4186 97.4091 73.1992 97.2359C73.5965 97.1542 74.0045 97.1432 74.4054 97.2034C74.8047 97.2799 75.1915 97.4142 75.5542 97.6021C76.2727 97.9806 76.9149 98.4957 77.4469 99.1201H77.3205C77.9876 98.5512 78.7255 98.0764 79.5148 97.7084C80.3016 97.3148 81.1747 97.1387 82.0479 97.1975C82.9035 97.3061 83.7445 97.5132 84.5552 97.8147C85.3662 98.0994 86.1611 98.4307 86.9361 98.807Z" fill="black"/>
</g>
<g opacity="0.2">
<path d="M68.9917 99.3379C69.6585 99.0204 70.3455 98.7501 71.0481 98.5289C71.7528 98.304 72.4786 98.1565 73.2136 98.0889C73.9559 98.0288 74.7028 98.1048 75.4193 98.3133C76.1364 98.5139 76.8159 98.8362 77.4297 99.267H77.3378C78.0627 98.9227 78.8151 98.6431 79.5866 98.4314C80.3549 98.1933 81.1575 98.0934 81.9589 98.1362C82.7517 98.2118 83.5385 98.343 84.3139 98.5289C85.0798 98.7139 85.8457 98.9255 86.6115 99.1637C85.8447 98.957 85.0721 98.7739 84.2938 98.6204C83.5215 98.4501 82.7383 98.3366 81.9503 98.2809C81.1662 98.2464 80.3819 98.3462 79.6297 98.5761C78.871 98.7932 78.1305 99.0726 77.4153 99.4117L77.3665 99.4324L77.3234 99.4028C76.7281 98.978 76.0667 98.6604 75.3676 98.4639C74.6682 98.2577 73.94 98.1739 73.2136 98.2159C72.4855 98.2683 71.7646 98.3979 71.0624 98.6027C70.3572 98.8005 69.6654 99.0461 68.9917 99.3379Z" fill="black"/>
</g>
<g opacity="0.2">
<path d="M69.905 99.3381C71.1359 99.0494 72.3966 98.9174 73.6587 98.9451C74.2911 98.9505 74.9224 98.9989 75.5485 99.0899C76.1747 99.1775 76.7953 99.3038 77.4067 99.4682H77.3694C78.073 99.3381 78.7824 99.2554 79.4918 99.1727C80.2012 99.0899 80.9106 99.0456 81.6257 99.022C82.3408 98.9983 83.0617 99.0072 83.7625 99.0456C84.4734 99.0978 85.1804 99.1965 85.8792 99.3411C84.4724 99.1379 83.0491 99.0834 81.6315 99.1786C80.2139 99.2525 78.8015 99.4084 77.401 99.6455H77.3608C76.7573 99.477 76.1445 99.3467 75.5255 99.2554C74.9058 99.1632 74.2816 99.105 73.6559 99.0811C73.0287 99.0555 72.4007 99.0653 71.7747 99.1106C71.1472 99.1436 70.5226 99.2196 69.905 99.3381Z" fill="black"/>
</g>
<g opacity="0.2">
<path d="M100.753 98.9158L100.707 99.092L87.746 99.0054L100.753 98.9158Z" fill="black"/>
</g>
<g opacity="0.2">
<path d="M99.4983 99.3424L87.0912 99.4354L87.1429 99.2494L99.4983 99.3424Z" fill="black"/>
</g>
<path d="M76.8725 99.7994C76.8725 99.7994 76.9414 98.6677 77.4469 98.5643C77.9524 98.4609 77.9093 99.7994 77.9093 99.7994H76.8725Z" fill="#263238"/>
<path d="M101.431 99.5537H67.6476V100.653H101.431V99.5537Z" fill="#263238"/>
<path opacity="0.2" d="M101.431 99.5537H67.6476V100.653H101.431V99.5537Z" fill="white"/>
<path opacity="0.2" d="M101.434 99.5537H87.9212V100.653H101.434V99.5537Z" fill="black"/>
<path d="M97.663 101.741L96.8014 99.3439L97.663 97.413H99.3288L100.949 95.4111H103.2C103.625 95.4111 105.498 96.8224 105.498 96.8224C105.498 96.8224 105.349 98.222 105.498 98.3873C105.647 98.5526 106.454 99.3439 106.454 99.3439L105.779 99.9344V101.275L105.492 101.809L103.195 101.662C102.882 101.558 102.545 101.558 102.232 101.662C101.658 101.83 101.213 102.645 100.796 102.444C100.38 102.243 97.663 101.741 97.663 101.741Z" fill="#2429A6"/>
<path opacity="0.7" d="M106.454 99.3469L105.782 99.9374V101.275L105.495 101.812L103.197 101.662C102.885 101.556 102.548 101.556 102.235 101.662C101.661 101.833 101.216 102.645 100.799 102.447C100.383 102.249 97.6573 101.741 97.6573 101.741L96.7957 99.3498L97.6573 97.4159H99.3231L100.943 95.4141H103.195C103.617 95.4141 105.492 96.8224 105.492 96.8224C105.434 97.3123 105.424 97.8067 105.461 98.2987C105.466 98.3271 105.477 98.3541 105.492 98.3784C105.647 98.5526 106.454 99.3469 106.454 99.3469Z" fill="white"/>
<path opacity="0.4" d="M105.463 98.3224L104.811 96.8461L103.599 98.7741L102.738 98.3726V96.5568L100.969 97.2565L101.221 98.7741L100.693 99.9552L98.5936 98.0183L98.0881 99.4119L96.8014 99.3706L97.663 97.4366H99.3288L100.949 95.4348H103.2C103.622 95.4348 105.498 96.8432 105.498 96.8432C105.439 97.3339 105.427 97.8294 105.463 98.3224Z" fill="white"/>
<path opacity="0.1" d="M97.6631 101.739L98.7056 101.483V99.1051L100.745 100.877L101.894 98.1453L102.517 99.2114L103.881 99.3443L104.743 98.4317L105.196 98.8954L104.708 99.8021L105.196 100.162L105.788 99.9291L105.116 100.39L104.542 100.047L103.887 99.5776L102.336 99.3354L101.793 100.094L102.276 100.582L102.227 99.805L103.39 101.24L103.878 100.402L103.103 100.248L104.045 100.227L104.162 100.493L103.473 101.379C103.473 101.379 102.276 100.874 102.344 100.871C102.413 100.868 101.15 102.026 101.15 102.026L99.5988 101.474L99.5816 100.174L98.9583 101.651L97.6631 101.793" fill="black"/>
<path d="M63.5923 99.5686L63.5349 99.5981L63.3855 99.6926C63.3554 99.7068 63.3266 99.7236 63.2993 99.7428L63.1069 99.8698C63.0764 99.8842 63.0475 99.902 63.0208 99.9229L62.8312 100.047C62.6704 100.147 62.4952 100.26 62.3286 100.375C62.2941 100.398 62.2568 100.416 62.2252 100.443C62.1936 100.469 62.0902 100.534 62.027 100.578L61.9294 100.643C61.696 100.788 61.4775 100.958 61.2774 101.148C61.2559 101.174 61.2295 101.195 61.1999 101.21C61.1828 101.213 61.1653 101.213 61.1482 101.21H61.0506C60.8738 101.172 60.7041 101.106 60.548 101.012C60.3181 100.877 60.0642 100.791 59.8012 100.758C59.5134 100.738 59.2296 100.836 59.0114 101.03L57.1819 101.827L56.7454 101.376L56.2399 100.047L55.4645 99.6601C55.4645 99.6601 55.5564 99.4092 55.654 99.1257C55.6799 99.0608 55.7029 98.987 55.7316 98.9191C55.7409 98.8829 55.7524 98.8474 55.766 98.8128C55.8005 98.7124 55.8321 98.6238 55.8522 98.5559L55.8924 98.4378C55.8938 98.427 55.8938 98.4161 55.8924 98.4053C55.8924 98.3906 55.8924 98.3699 55.8924 98.3492C55.8517 98.1803 55.7969 98.0154 55.7287 97.8561C55.6483 97.6524 55.5535 97.4339 55.4731 97.2656C55.4501 97.2095 55.4243 97.1564 55.4013 97.1092C55.4001 97.0979 55.395 97.0874 55.3869 97.0796C55.3496 96.997 55.3237 96.9409 55.3094 96.9143C55.3697 96.7962 56.3203 94.9833 56.6592 94.8741L58.5117 94.2363L58.9827 94.5788L60.5968 95.7598L61.9667 95.2904L63.4027 96.9615L63.5923 99.5686Z" fill="#2429A6"/>
<path opacity="0.7" d="M63.5865 99.572L63.532 99.6103L63.3826 99.7048C63.3525 99.719 63.3237 99.7358 63.2965 99.755L63.104 99.882C63.0735 99.8964 63.0446 99.9142 63.0179 99.9351C62.9585 99.9706 62.8953 100.012 62.8283 100.059C62.6675 100.16 62.4923 100.272 62.3257 100.387C62.2912 100.41 62.2539 100.428 62.2223 100.455C62.1907 100.481 62.0873 100.546 62.0241 100.591L61.9265 100.656C61.6931 100.801 61.4746 100.97 61.2746 101.16C61.253 101.186 61.2266 101.207 61.197 101.222C61.1799 101.226 61.1624 101.226 61.1453 101.222H61.0477C60.8709 101.185 60.7012 101.118 60.5451 101.025C60.3152 100.889 60.0613 100.803 59.7983 100.771C59.5105 100.751 59.2267 100.848 59.0085 101.042L57.179 101.84L56.7425 101.388L56.237 100.059L55.4616 99.6724C55.4616 99.6724 55.5535 99.4214 55.6511 99.1379C55.677 99.073 55.7 98.9992 55.7287 98.9313C55.738 98.8951 55.7495 98.8596 55.7631 98.825C55.7947 98.7246 55.8292 98.636 55.8493 98.5681L55.8895 98.45C55.8909 98.4392 55.8909 98.4283 55.8895 98.4175C55.8895 98.4028 55.8895 98.3821 55.8895 98.3614C55.8488 98.1926 55.794 98.0276 55.7258 97.8683C55.6454 97.6646 55.5506 97.4461 55.4702 97.2778C55.4472 97.2217 55.4214 97.1686 55.3984 97.1214C55.3972 97.1101 55.3921 97.0996 55.384 97.0918C55.3467 97.0092 55.3209 96.9531 55.3065 96.9265C55.3668 96.8084 56.3174 94.9955 56.6563 94.8863L58.5088 94.2485L58.9798 94.591L60.5939 95.772L61.961 95.3026L63.397 96.9678L63.5865 99.572Z" fill="white"/>
<path opacity="0.4" d="M63.5923 99.5683L62.251 99.3852L62.857 96.9582L61.5158 97.3125L60.7978 96.0666L59.4336 95.5587L60.6772 97.159L59.8701 98.219L57.1819 95.8569L57.7075 97.6934L55.3036 96.911C55.3639 96.7929 56.3146 94.98 56.6535 94.8708L58.5059 94.233L58.9769 94.5755L60.591 95.7565L61.961 95.2871L63.397 96.9582L63.5923 99.5683Z" fill="white"/>
<path opacity="0.1" d="M59.7983 100.788C59.5105 100.768 59.2267 100.866 59.0085 101.06L57.179 101.858L56.7425 101.406L56.237 100.077L55.4616 99.6898C55.4616 99.6898 55.5535 99.4388 55.6511 99.1553C55.677 99.0903 55.7 99.0165 55.7287 98.9485C55.738 98.9124 55.7495 98.8769 55.7631 98.8422C55.7947 98.7418 55.8292 98.6532 55.8493 98.5853L55.8895 98.4671L58.6151 98.7861L58.5404 98.0123L59.9764 99.17L58.5059 99.548L58.5662 100.233H59.5312L59.7983 100.788Z" fill="black"/>
<path opacity="0.1" d="M61.1281 101.237H61.0477C60.8709 101.199 60.7012 101.132 60.5451 101.039C60.3153 100.904 60.0613 100.818 59.7983 100.785L61.108 99.8993L60.8868 98.6176L61.9466 98.5054C61.9466 98.5054 61.4871 99.8787 61.5646 99.9112C61.6422 99.9436 61.0534 101.208 61.1281 101.237Z" fill="black"/>
<path d="M48.8818 98.6826L48.899 98.718L48.945 98.8213C48.9563 98.8401 48.9659 98.8599 48.9737 98.8804L49.0311 99.0162C49.0426 99.0344 49.0513 99.0543 49.057 99.0753L49.1144 99.2081C49.1632 99.3203 49.2178 99.4414 49.2638 99.5654C49.276 99.5892 49.2866 99.6138 49.2953 99.6392C49.3155 99.6835 49.3356 99.7337 49.3528 99.778L49.3815 99.8488C49.4542 100.01 49.5109 100.178 49.551 100.351C49.5515 100.373 49.5585 100.395 49.5711 100.413C49.5769 100.421 49.5837 100.429 49.5912 100.436C49.603 100.45 49.6177 100.461 49.6342 100.469C49.7393 100.514 49.8509 100.541 49.9645 100.549C50.1317 100.562 50.2947 100.609 50.4442 100.687C50.6009 100.782 50.7154 100.935 50.7629 101.115L51.4465 102.199L51.8313 102.119L52.5522 101.609L53.0922 101.688L53.1754 101.34C53.1754 101.296 53.1984 101.248 53.207 101.201C53.2154 101.179 53.2222 101.156 53.2271 101.133C53.2271 101.068 53.2559 101.012 53.2702 100.968C53.2846 100.924 53.2846 100.909 53.2903 100.891C53.2892 100.885 53.2892 100.879 53.2903 100.873C53.2975 100.865 53.3042 100.856 53.3104 100.847C53.3901 100.774 53.4756 100.707 53.566 100.649C53.678 100.569 53.8044 100.49 53.9078 100.425C53.9365 100.404 53.971 100.386 53.9997 100.368C54.0284 100.351 53.9997 100.368 54.0169 100.368L54.1117 100.309C54.1117 100.227 54.2438 98.9306 54.1117 98.7505L53.3851 97.7319H53.0175L51.7682 97.7614L51.211 97.0173L49.887 97.3716L48.8818 98.6826Z" fill="#2429A6"/>
<path opacity="0.7" d="M48.8846 98.6856C48.8854 98.6984 48.8854 98.7112 48.8846 98.724L48.9306 98.8273C48.9419 98.8461 48.9515 98.8659 48.9593 98.8864L49.0168 99.0222C49.0283 99.0404 49.037 99.0603 49.0426 99.0813C49.064 99.1245 49.0832 99.1688 49.1 99.2141C49.1489 99.3263 49.2034 99.4474 49.2494 99.5714C49.2616 99.5952 49.2722 99.6198 49.281 99.6452C49.3011 99.6895 49.3212 99.7397 49.3384 99.784L49.3671 99.8548C49.4398 100.016 49.4966 100.184 49.5366 100.357C49.5372 100.379 49.5442 100.401 49.5567 100.419C49.5626 100.427 49.5693 100.435 49.5768 100.442C49.5886 100.456 49.6033 100.467 49.6199 100.475C49.725 100.52 49.8365 100.547 49.9502 100.555C50.1174 100.568 50.2803 100.615 50.4298 100.693C50.5866 100.788 50.7011 100.941 50.7486 101.121L51.4321 102.205L51.817 102.125L52.5378 101.615L53.0778 101.694L53.1611 101.346C53.1611 101.302 53.1841 101.254 53.1927 101.207C53.2011 101.185 53.2078 101.162 53.2128 101.139C53.23 101.077 53.2415 101.018 53.2559 100.974C53.2702 100.93 53.2702 100.915 53.276 100.897C53.2748 100.891 53.2748 100.885 53.276 100.879C53.2831 100.871 53.2899 100.862 53.2961 100.853C53.3758 100.78 53.4613 100.713 53.5517 100.655C53.6637 100.575 53.7901 100.496 53.8934 100.431C53.9222 100.41 53.9566 100.392 53.9854 100.374C54.0141 100.357 53.9853 100.374 54.0026 100.374L54.0974 100.315C54.0974 100.233 54.2295 98.9366 54.0974 98.7565L53.3851 97.7319H53.0175L51.7682 97.7644L51.211 97.0204L49.887 97.3717L48.8846 98.6856Z" fill="white"/>
<path opacity="0.4" d="M48.8818 98.683L49.6486 99.0728L50.1656 97.5814L50.74 98.2548L51.5441 97.862L52.4345 98.0923L51.2311 98.4792L51.2885 99.3298L53.5086 99.0699L52.6039 99.8407L54.1318 100.304C54.1318 100.222 54.2639 98.9252 54.1318 98.745L53.3851 97.732H53.0175L51.7682 97.7616L51.211 97.0173L49.887 97.3717L48.8818 98.683Z" fill="white"/>
<path opacity="0.1" d="M50.4528 100.699C50.6096 100.794 50.7241 100.947 50.7716 101.128L51.4551 102.211L51.84 102.132L52.5609 101.621L53.1008 101.701L53.1841 101.352C53.1841 101.308 53.2071 101.261 53.2157 101.213C53.2241 101.191 53.2308 101.168 53.2358 101.145C53.253 101.083 53.2645 101.024 53.2789 100.98C53.2932 100.936 53.2932 100.921 53.299 100.903L51.7596 100.094L52.064 99.7159L50.9152 99.7986L51.5528 100.531L51.2885 100.868L50.7859 100.513L50.4528 100.699Z" fill="black"/>
<path opacity="0.1" d="M49.5998 100.448C49.6116 100.462 49.6263 100.473 49.6429 100.481C49.7479 100.526 49.8595 100.553 49.9732 100.56C50.1404 100.574 50.3033 100.621 50.4528 100.699L50.0651 99.7662L50.6395 99.158L50.1254 98.7151C50.0555 99.0185 49.9594 99.315 49.8382 99.6009C49.7807 99.5772 49.6486 100.463 49.5998 100.448Z" fill="black"/>
</svg>
