<svg width="142" height="111" viewBox="0 0 142 111" fill="none" xmlns="http://www.w3.org/2000/svg">
<path d="M141.456 97.4244H0V97.4999H141.456V97.4244Z" fill="#E6E6E6"/>
<path d="M107.809 99.6682H102.759V99.7437H107.809V99.6682Z" fill="#E6E6E6"/>
<path d="M123.197 99.6327H110.87V99.7081H123.197V99.6327Z" fill="#E6E6E6"/>
<path d="M87.6093 100.926H69.2285V101.001H87.6093V100.926Z" fill="#E6E6E6"/>
<path d="M67.599 100.926H64.4247V101.001H67.599V100.926Z" fill="#E6E6E6"/>
<path d="M38.6967 99.5588H26.8144V99.6343H38.6967V99.5588Z" fill="#E6E6E6"/>
<path d="M48.7033 99.5588H40.2668V99.6343H48.7033V99.5588Z" fill="#E6E6E6"/>
<path d="M28.9984 100.891H18.924V100.966H28.9984V100.891Z" fill="#E6E6E6"/>
<path d="M67.0501 84.2559H12.4227C11.9947 84.2551 11.5845 84.0771 11.2822 83.761C10.9799 83.445 10.8101 83.0166 10.8101 82.57V2.42907C10.8138 1.98502 10.9852 1.56043 11.2872 1.24753C11.5891 0.934632 11.9971 0.758695 12.4227 0.757935H67.0501C67.4785 0.757935 67.8894 0.935556 68.1924 1.25172C68.4953 1.56789 68.6655 1.99671 68.6655 2.44384V82.57C68.6655 83.0171 68.4953 83.4459 68.1924 83.7621C67.8894 84.0783 67.4785 84.2559 67.0501 84.2559ZM12.4227 0.816986C12.0135 0.817768 11.6213 0.987957 11.3322 1.2902C11.0431 1.59244 10.8808 2.00203 10.8808 2.42907V82.57C10.8808 82.997 11.0431 83.4066 11.3322 83.7089C11.6213 84.0111 12.0135 84.1813 12.4227 84.1821H67.0501C67.4596 84.1813 67.852 84.0112 68.1416 83.709C68.4311 83.4069 68.5941 82.9973 68.5948 82.57V2.42907C68.5941 2.00176 68.4311 1.59217 68.1416 1.29002C67.852 0.987861 67.4596 0.817766 67.0501 0.816986H12.4227Z" fill="#E6E6E6"/>
<path d="M128.247 84.2559H73.6165C73.1883 84.2551 72.7779 84.0772 72.4751 83.7612C72.1723 83.4452 72.0018 83.0169 72.0011 82.57V2.42907C72.0056 1.98475 72.1776 1.56016 72.48 1.24735C72.7824 0.934529 73.1907 0.758687 73.6165 0.757935H128.247C128.672 0.759471 129.079 0.935751 129.38 1.24857C129.682 1.56138 129.853 1.98553 129.857 2.42907V82.57C129.857 83.0161 129.687 83.444 129.385 83.76C129.084 84.076 128.674 84.2543 128.247 84.2559ZM73.6165 0.816986C73.2071 0.817766 72.8146 0.987861 72.5251 1.29002C72.2356 1.59217 72.0726 2.00176 72.0718 2.42907V82.57C72.0726 82.9973 72.2356 83.4069 72.5251 83.709C72.8146 84.0112 73.2071 84.1813 73.6165 84.1821H128.247C128.656 84.1813 129.049 84.0112 129.338 83.709C129.628 83.4069 129.791 82.9973 129.792 82.57V2.42907C129.791 2.00176 129.628 1.59217 129.338 1.29002C129.049 0.987861 128.656 0.817766 128.247 0.816986H73.6165Z" fill="#E6E6E6"/>
<path d="M33.7231 97.4244H27.7254C24.5964 91.72 22.8564 76.4347 27.2557 59.8267C28.0088 56.9869 28.9213 54.1959 29.9887 51.468C31.6409 74.7961 38.8155 90.5154 33.7231 97.4244Z" fill="#F0F0F0"/>
<path d="M22.6329 97.4241H28.6363C31.423 93.2079 32.2434 81.9114 26.8455 69.6347C25.904 67.5008 24.8246 65.4361 23.6146 63.4551C23.3572 80.6979 17.1303 92.3103 22.6329 97.4241Z" fill="#F5F5F5"/>
<path d="M98.1902 73.9456C92.102 64.093 92.7923 93.1224 81.6031 80.2227C67.8593 64.3764 48.1346 59.0648 56.755 71.1968C65.3753 83.3288 60.2602 87.5273 38.476 73.9456C22.6952 64.0959 51.7955 93.6243 43.8259 92.5024C35.8563 91.3804 23.8212 89.0833 34.1305 97.4242H101C101 97.4242 104.281 83.7983 98.1902 73.9456Z" fill="#F0F0F0"/>
<path d="M110.834 97.4981H115.855C118.472 93.1519 119.926 81.5071 116.249 68.8584C115.617 66.6874 114.854 64.5603 113.965 62.4897C112.573 80.2582 106.57 92.2248 110.834 97.4981Z" fill="#EBEBEB"/>
<path d="M120.105 97.4981H115.083C112.752 94.2857 112.064 85.6879 116.582 76.3283C117.374 74.693 118.277 73.1192 119.284 71.619C119.502 84.7549 124.713 93.6007 120.105 97.4981Z" fill="#EBEBEB"/>
<path d="M107.224 97.4981H111.377C113.303 94.8408 113.872 87.7222 110.135 79.9866C109.481 78.6339 108.734 77.3323 107.9 76.0922C107.71 86.9723 103.401 94.2739 107.224 97.4981Z" fill="#EBEBEB"/>
<path d="M39.3247 97.4251C39.3247 97.4251 39.0418 95.2987 35.9666 94.203C36.3346 94.6402 36.6121 95.1521 36.7815 95.7066C36.951 96.2611 37.0087 96.8462 36.9511 97.4251H39.3247Z" fill="#FAFAFA"/>
<path d="M53.9796 97.4251C53.9796 97.4251 54.2625 95.2987 57.3378 94.203C56.9704 94.6407 56.6934 95.1526 56.524 95.707C56.3546 96.2614 56.2965 96.8462 56.3532 97.4251H53.9796Z" fill="#E6E6E6"/>
<path d="M93.2732 97.4243C93.2732 97.4243 93.4684 93.2907 95.6016 91.1678C95.0633 93.2036 94.8324 95.3144 94.9169 97.4243H93.2732Z" fill="#E6E6E6"/>
<path d="M122.744 97.4242C122.744 97.4242 123.737 94.454 128.34 92.9246C126.148 95.077 126.06 97.4242 126.06 97.4242H122.744Z" fill="#E6E6E6"/>
<path d="M19.0881 97.4242C19.0881 97.4242 18.3072 93.0574 23.923 90.8105C22.3217 93.9757 23.9598 97.4242 23.9598 97.4242H19.0881Z" fill="#EBEBEB"/>
<path d="M22.2086 97.4243C22.2086 97.4243 20.6243 93.8576 14.8896 92.0211C17.8121 94.6046 18.228 97.4243 18.228 97.4243H22.2086Z" fill="#EBEBEB"/>
<path d="M41.0788 97.4243C41.0788 97.4243 40.8723 93.8517 37.118 92.5585C38.7929 94.389 38.6967 97.4243 38.6967 97.4243H41.0788Z" fill="#FAFAFA"/>
<path d="M73.8966 97.4243C73.8966 97.4243 73.4241 93.8812 68.278 92.0388C68.8935 92.7695 69.3577 93.625 69.6416 94.5518C69.9254 95.4785 70.0227 96.4564 69.9273 97.4243H73.8966Z" fill="#FAFAFA"/>
<path d="M74.0437 97.4243C74.0437 97.4243 74.5162 93.8812 79.6623 92.0388C79.0468 92.7695 78.5826 93.625 78.2987 94.5518C78.0149 95.4785 77.9176 96.4564 78.013 97.4243H74.0437Z" fill="#FAFAFA"/>
<path d="M76.853 97.4243C76.853 97.4243 76.5079 91.4543 70.2442 89.2871C73.045 92.3489 72.8838 97.4243 72.8838 97.4243H76.853Z" fill="#FAFAFA"/>
<path d="M112.197 97.4251C112.197 97.4251 111.957 95.8805 115.026 94.7848C113.764 96.3264 114.562 97.4251 114.562 97.4251H112.197Z" fill="#FAFAFA"/>
<path d="M112.11 97.4251C112.11 97.4251 111.827 95.2987 108.751 94.203C109.119 94.6402 109.397 95.1521 109.566 95.7066C109.736 96.2611 109.793 96.8462 109.736 97.4251H112.11Z" fill="#FAFAFA"/>
<path d="M110.432 97.4243C110.432 97.4243 110.636 93.8517 114.393 92.5585C112.721 94.389 112.814 97.4243 112.814 97.4243H110.432Z" fill="#FAFAFA"/>
<path d="M123.185 15.2256C122.447 13.8792 120.959 12.837 119.858 12.9019C119.684 12.902 119.513 12.9461 119.359 13.0304C119.204 13.1148 119.072 13.2368 118.973 13.3862C116.964 11.7091 114.653 10.6787 112.749 10.7909C111.909 10.7995 111.105 11.1452 110.503 11.7564C108.347 9.22603 105.597 7.43089 103.602 7.43089C102.471 7.43089 101.766 8.02139 101.514 8.98097C99.3021 7.28031 97.0275 6.23511 95.1942 6.23511C92.2717 6.23511 91.3211 8.8924 92.5178 12.6156C92.0397 13.3183 89.734 14.2985 89.8273 15.4736H123.316C123.273 15.3909 123.234 15.3083 123.185 15.2256Z" fill="#F5F5F5"/>
<path d="M90.5657 29.123C90.3252 29.1287 90.0911 29.2055 89.8908 29.3445C89.6905 29.4835 89.5321 29.6791 89.4341 29.9084C86.6983 27.1744 83.6118 25.4973 81.1278 25.6833C80.5657 25.7025 80.015 25.8543 79.5172 26.1274C79.0194 26.4004 78.5873 26.7877 78.2534 27.26C75.28 23.1412 71.5739 20.2211 68.9626 20.2211C67.4773 20.2211 66.5946 21.1659 66.3315 22.7426C63.3298 19.9731 60.2913 18.2754 57.8922 18.2754C54.9188 18.2754 53.6061 20.8854 54.0163 24.9039C52.582 23.7228 51.1872 23.0467 50.0273 23.0467C48.4402 23.0467 47.6961 24.3665 47.8234 26.4362C47.6852 26.4366 47.5471 26.4475 47.4104 26.4687C44.9858 26.8141 44.0579 29.4892 45.2234 32.548H94.8858C93.7966 30.5284 91.9237 29.0227 90.5657 29.123Z" fill="#F5F5F5"/>
<path d="M42.3265 16.2559C42.2067 16.256 42.0895 16.2923 41.9891 16.3604C41.8887 16.4285 41.8093 16.5256 41.7606 16.6398C40.4281 15.3082 38.9315 14.4903 37.7122 14.573C37.4357 14.5806 37.1646 14.654 36.9195 14.7875C36.6743 14.9211 36.4616 15.1113 36.2976 15.3436C34.8463 13.3359 33.0385 11.9128 31.771 11.9128C31.0468 11.9128 30.6139 12.3734 30.4866 13.141C29.024 11.7887 27.5415 10.962 26.3731 10.962C24.9217 10.962 24.2824 12.2346 24.4804 14.2098C23.7816 13.64 23.097 13.3034 22.5368 13.3034C21.7644 13.3034 21.4051 13.9471 21.4645 14.9568C21.3967 14.9523 21.3287 14.9523 21.2609 14.9568C20.0811 15.1251 19.6256 16.4331 20.1943 17.9094H44.4087C43.9023 16.9439 43.0026 16.2087 42.3265 16.2559Z" fill="#F5F5F5"/>
<path d="M70.728 110.758C101.023 110.758 125.582 109.262 125.582 107.416C125.582 105.57 101.023 104.073 70.728 104.073C40.4331 104.073 15.8742 105.57 15.8742 107.416C15.8742 109.262 40.4331 110.758 70.728 110.758Z" fill="#F5F5F5"/>
<path d="M50.0527 33.0618H47.3538V107.416H50.0527V33.0618Z" fill="#E0E0E0"/>
<g style="mix-blend-mode:multiply">
<path d="M50.0527 33.0618H47.3538V39.8054H50.0527V33.0618Z" fill="#E0E0E0"/>
</g>
<path d="M57.018 7.56946H40.3913C38.6554 7.56946 37.2482 9.03809 37.2482 10.8497V34.6738C37.2482 36.4855 38.6554 37.9541 40.3913 37.9541H57.018C58.754 37.9541 60.1612 36.4855 60.1612 34.6738V10.8497C60.1612 9.03809 58.754 7.56946 57.018 7.56946Z" fill="#2429A6"/>
<path opacity="0.7" d="M57.018 7.56946H40.3913C38.6554 7.56946 37.2482 9.03809 37.2482 10.8497V34.6738C37.2482 36.4855 38.6554 37.9541 40.3913 37.9541H57.018C58.754 37.9541 60.1612 36.4855 60.1612 34.6738V10.8497C60.1612 9.03809 58.754 7.56946 57.018 7.56946Z" fill="white"/>
<path d="M58.9843 34.6678V10.8496C58.9843 9.71472 58.1027 8.79468 57.0152 8.79468L40.3913 8.79468C39.3038 8.79468 38.4222 9.71472 38.4222 10.8496V34.6678C38.4222 35.8027 39.3038 36.7228 40.3913 36.7228H57.0152C58.1027 36.7228 58.9843 35.8027 58.9843 34.6678Z" fill="#2429A6"/>
<path d="M42.7197 23.5928H45.0226C45.3421 23.5699 45.658 23.6755 45.9053 23.8881C46.0047 23.9806 46.0837 24.0944 46.137 24.2219C46.1902 24.3493 46.2163 24.4872 46.2136 24.6262C46.2182 24.8582 46.1395 25.0835 45.993 25.258C45.8759 25.3875 45.7287 25.4831 45.5658 25.5356C45.8095 25.582 46.0315 25.7119 46.1967 25.9046C46.3349 26.0931 46.4059 26.3259 46.3975 26.5631C46.4017 26.7699 46.3518 26.974 46.2532 27.1536C46.1598 27.324 46.0239 27.4648 45.86 27.561C45.7138 27.6361 45.5555 27.6822 45.3932 27.6968C45.1103 27.7323 44.9349 27.7529 44.8443 27.7529H42.7197V23.5928ZM43.9616 25.2197H44.4964C44.6368 25.2343 44.7777 25.1978 44.8953 25.1163C44.934 25.079 44.9643 25.0331 44.9839 24.9821C45.0035 24.931 45.0118 24.876 45.0084 24.8211C45.0131 24.766 45.0053 24.7106 44.9857 24.6593C44.966 24.608 44.935 24.5623 44.8953 24.5258C44.7806 24.445 44.6425 24.4084 44.5048 24.4225H43.9645L43.9616 25.2197ZM43.9616 26.8524H44.5869C44.7453 26.8672 44.9038 26.8255 45.0367 26.7343C45.0793 26.6949 45.1131 26.6461 45.1356 26.5915C45.158 26.5369 45.1687 26.4778 45.1669 26.4184C45.1691 26.3619 45.1584 26.3057 45.1358 26.2544C45.1132 26.2031 45.0792 26.1581 45.0367 26.1231C44.9024 26.0331 44.7428 25.9935 44.5841 26.0109H43.9616V26.8524Z" fill="#2429A6"/>
<path d="M49.4898 23.5929H50.7176V26.0642C50.719 26.3013 50.6817 26.5369 50.6073 26.761C50.5352 26.9758 50.4171 27.1707 50.2621 27.3308C50.1243 27.4823 49.9563 27.6002 49.7699 27.6763C49.4967 27.7731 49.2096 27.82 48.9211 27.815C48.7093 27.8134 48.4978 27.7996 48.2874 27.7737C48.0904 27.7527 47.8987 27.6947 47.7216 27.6024C47.5595 27.5141 47.4162 27.3926 47.3 27.2452C47.181 27.1069 47.0914 26.9439 47.0369 26.7669C46.9667 26.5396 46.9286 26.3029 46.9238 26.0642V23.5929H48.1488V26.1232C48.1436 26.2199 48.157 26.3167 48.1881 26.408C48.2192 26.4992 48.2674 26.5831 48.3298 26.6547C48.4696 26.7775 48.6465 26.8449 48.8292 26.8449C49.0119 26.8449 49.1888 26.7775 49.3285 26.6547C49.3918 26.583 49.4404 26.4987 49.4715 26.4068C49.5026 26.315 49.5156 26.2175 49.5096 26.1203L49.4898 23.5929Z" fill="#2429A6"/>
<path d="M51.3174 26.3711L52.4858 26.2944C52.4981 26.4567 52.5518 26.6127 52.6414 26.7461C52.7059 26.8307 52.7889 26.8978 52.8834 26.942C52.9779 26.9862 53.0812 27.0061 53.1846 27C53.3301 27.0092 53.4738 26.963 53.5892 26.8701C53.6326 26.8354 53.6678 26.7907 53.692 26.7395C53.7162 26.6883 53.7288 26.632 53.7288 26.5749C53.7288 26.5178 53.7162 26.4614 53.692 26.4102C53.6678 26.359 53.6326 26.3143 53.5892 26.2796C53.3989 26.1528 53.1847 26.0702 52.9611 26.0375C52.5438 25.9677 52.1482 25.7956 51.8068 25.5356C51.6947 25.4376 51.6053 25.3145 51.545 25.1755C51.4848 25.0364 51.4553 24.885 51.4588 24.7325C51.4599 24.5168 51.5219 24.3062 51.6371 24.1272C51.7688 23.9263 51.955 23.7711 52.1718 23.6814C52.4843 23.5591 52.8172 23.5038 53.1507 23.519C53.5581 23.4899 53.9643 23.593 54.3134 23.8142C54.4531 23.9261 54.5679 24.0682 54.65 24.2308C54.732 24.3934 54.7793 24.5726 54.7887 24.7561L53.6316 24.827C53.6168 24.6707 53.5473 24.5256 53.4364 24.4195C53.3196 24.3273 53.1752 24.2813 53.029 24.2896C52.9137 24.2803 52.7992 24.3149 52.7065 24.387C52.6726 24.4142 52.6451 24.4491 52.626 24.489C52.6069 24.5288 52.5967 24.5727 52.5961 24.6173C52.5976 24.652 52.6065 24.6859 52.6222 24.7166C52.6379 24.7472 52.6599 24.7738 52.6867 24.7945C52.8115 24.8776 52.9527 24.9301 53.0997 24.948C53.4969 25.0224 53.8843 25.1452 54.254 25.3141C54.4611 25.4147 54.6366 25.5744 54.7604 25.7747C54.8673 25.9599 54.9222 26.1727 54.9188 26.3888C54.9211 26.6512 54.8482 26.9082 54.7095 27.127C54.5637 27.3543 54.3571 27.5319 54.1154 27.6378C53.8114 27.7634 53.4859 27.8227 53.1591 27.812C52.4839 27.812 52.0124 27.6762 51.7446 27.4045C51.4874 27.1251 51.3357 26.7581 51.3174 26.3711Z" fill="#2429A6"/>
<path d="M40.6771 31.6858L41.8483 31.6119C41.8598 31.774 41.9125 31.93 42.0011 32.0637C42.0659 32.1479 42.1489 32.2148 42.2434 32.2589C42.3378 32.3031 42.4409 32.3232 42.5443 32.3176C42.6906 32.3267 42.8352 32.2806 42.9517 32.1877C42.9945 32.1523 43.0294 32.1075 43.0538 32.0565C43.0783 32.0054 43.0917 31.9495 43.0931 31.8924C43.093 31.8358 43.0807 31.7799 43.0572 31.7288C43.0337 31.6777 42.9996 31.6328 42.9573 31.5972C42.7662 31.47 42.551 31.3874 42.3264 31.3551C41.9098 31.2839 41.5153 31.1109 41.175 30.8502C41.063 30.7528 40.9735 30.6302 40.9132 30.4917C40.853 30.3531 40.8235 30.2022 40.827 30.05C40.8277 29.8343 40.8897 29.6237 41.0052 29.4448C41.137 29.2439 41.3232 29.0887 41.5399 28.9989C41.8522 28.8755 42.1852 28.8192 42.5188 28.8336C42.9262 28.8061 43.3319 28.9091 43.6816 29.1289C43.8209 29.2411 43.9354 29.3833 44.0174 29.5458C44.0994 29.7083 44.147 29.8873 44.1569 30.0707L42.9969 30.1416C42.9829 29.9857 42.9144 29.8407 42.8046 29.7341C42.6869 29.6415 42.5415 29.5955 42.3943 29.6042C42.2797 29.5964 42.1658 29.6297 42.0718 29.6987C42.0381 29.7265 42.0109 29.762 41.9923 29.8024C41.9736 29.8428 41.9641 29.8871 41.9643 29.9319C41.9653 29.9664 41.9737 30.0003 41.9888 30.0309C42.004 30.0616 42.0256 30.0883 42.052 30.1091C42.1773 30.1911 42.3183 30.2435 42.4651 30.2626C42.863 30.3376 43.2513 30.4604 43.6222 30.6287C43.8287 30.7302 44.0041 30.8897 44.1286 31.0893C44.2342 31.2751 44.289 31.4875 44.287 31.7035C44.2877 31.966 44.2139 32.2228 44.0748 32.4416C43.93 32.6687 43.7244 32.8463 43.4835 32.9524C43.1785 33.0779 42.8522 33.1372 42.5245 33.1266C41.8483 33.1266 41.3928 32.9908 41.1099 32.7191C40.8511 32.4403 40.6974 32.0734 40.6771 31.6858Z" fill="#2429A6"/>
<path d="M44.6265 28.9075H48.3779V29.935H47.1246V33.0617H45.894V29.935H44.6407L44.6265 28.9075Z" fill="#2429A6"/>
<path d="M48.576 30.9888C48.5481 30.6987 48.5824 30.4057 48.6764 30.1312C48.7704 29.8566 48.9217 29.6073 49.1194 29.4013C49.317 29.1953 49.5561 29.0377 49.8194 28.94C50.0826 28.8423 50.3633 28.8069 50.6412 28.8364C50.9192 28.8177 51.1979 28.8574 51.4608 28.9533C51.7237 29.0492 51.9655 29.1992 52.1718 29.3944C52.3582 29.6025 52.502 29.8481 52.5944 30.1161C52.6868 30.3841 52.7259 30.669 52.7093 30.9533C52.7221 31.3609 52.6416 31.7658 52.4745 32.1344C52.3227 32.4417 52.0862 32.6947 51.7955 32.8607C51.4539 33.0438 51.0732 33.1333 50.6893 33.1205C50.3064 33.1332 49.9256 33.0565 49.5747 32.8961C49.2732 32.7415 49.0244 32.4942 48.8617 32.1875C48.665 31.822 48.5663 31.4079 48.576 30.9888ZM49.8038 30.9888C49.7771 31.3077 49.856 31.6266 50.0273 31.8922C50.1065 31.9784 50.2016 32.047 50.3069 32.0939C50.4121 32.1407 50.5254 32.1648 50.6398 32.1648C50.7543 32.1648 50.8675 32.1407 50.9728 32.0939C51.078 32.047 51.1731 31.9784 51.2523 31.8922C51.4245 31.6042 51.5001 31.2646 51.4673 30.9268C51.4929 30.6222 51.4125 30.3183 51.241 30.0705C51.1644 29.9808 51.0694 29.9101 50.9632 29.8636C50.857 29.8171 50.7421 29.796 50.6271 29.8018C50.5141 29.7973 50.4017 29.8196 50.2982 29.8672C50.1948 29.9148 50.1031 29.9863 50.0301 30.0764C49.8506 30.343 49.7665 30.667 49.7925 30.9917L49.8038 30.9888Z" fill="#2429A6"/>
<path d="M53.3544 28.9072H55.397C55.7597 28.8778 56.1191 28.9976 56.3985 29.2408C56.5134 29.3652 56.6021 29.5132 56.6591 29.6754C56.7161 29.8375 56.7401 30.0103 56.7295 30.1827C56.7397 30.364 56.7127 30.5456 56.6502 30.7151C56.5878 30.8847 56.4914 31.0384 56.3674 31.1659C56.0556 31.4272 55.6598 31.554 55.2612 31.5202H54.602V33.0614H53.3685L53.3544 28.9072ZM54.5879 30.6787H54.8849C55.0612 30.6973 55.2383 30.6514 55.3857 30.5488C55.4311 30.5085 55.4673 30.4583 55.4918 30.4016C55.5162 30.3449 55.5283 30.2832 55.5271 30.2211C55.5288 30.1596 55.5186 30.0984 55.4972 30.0411C55.4758 29.9838 55.4437 29.9316 55.4027 29.8874C55.2686 29.781 55.1005 29.7323 54.933 29.7516H54.602L54.5879 30.6787Z" fill="#2429A6"/>
<path d="M55.8298 12.6567H43.7099C43.6256 12.6568 43.5438 12.6857 43.4768 12.7391C43.4099 12.7924 43.3615 12.8672 43.3392 12.952L42.7197 15.0276C42.665 15.2111 42.5638 15.3757 42.4269 15.504C42.2899 15.6324 42.1223 15.7198 41.9417 15.7569L41.5597 15.8366C41.4544 15.8585 41.3596 15.9178 41.2915 16.0045C41.2234 16.0912 41.1862 16.1999 41.1863 16.312V18.3965C41.1862 18.4507 41.1967 18.5044 41.2171 18.5543C41.2375 18.6042 41.2674 18.6493 41.3049 18.6868C41.3425 18.7244 41.3869 18.7536 41.4356 18.7727C41.4842 18.7918 41.5361 18.8004 41.588 18.798H43.6929C43.6929 18.3227 43.8738 17.8668 44.1959 17.5307C44.5179 17.1946 44.9547 17.0058 45.4102 17.0058C45.8656 17.0058 46.3024 17.1946 46.6245 17.5307C46.9465 17.8668 47.1274 18.3227 47.1274 18.798H52.2821C52.3001 18.3349 52.489 17.897 52.8094 17.576C53.1297 17.2549 53.5566 17.0756 54.0008 17.0756C54.4449 17.0756 54.8718 17.2549 55.1922 17.576C55.5125 17.897 55.7015 18.3349 55.7195 18.798H55.8383C55.889 18.7984 55.9394 18.7883 55.9864 18.7683C56.0334 18.7483 56.0762 18.7188 56.1122 18.6814C56.1482 18.6441 56.1768 18.5997 56.1963 18.5508C56.2158 18.5019 56.2259 18.4494 56.2259 18.3965V13.0583C56.2255 13.0046 56.2149 12.9516 56.1948 12.9023C56.1746 12.853 56.1452 12.8083 56.1084 12.771C56.0715 12.7336 56.0279 12.7043 55.9801 12.6847C55.9323 12.665 55.8812 12.6555 55.8298 12.6567ZM47.5744 15.1368C47.5744 15.2342 47.5376 15.3277 47.4719 15.3968C47.4061 15.4659 47.3169 15.5051 47.2236 15.5059H45.8996C45.8065 15.5044 45.7177 15.4649 45.6522 15.3959C45.5866 15.327 45.5495 15.234 45.5488 15.1368V13.7492C45.5495 13.6518 45.5871 13.5587 45.6534 13.4901C45.7196 13.4215 45.8091 13.383 45.9024 13.383H47.2264C47.3188 13.3846 47.4069 13.4237 47.4719 13.4921C47.5369 13.5606 47.5737 13.6528 47.5744 13.7492V15.1368ZM50.0527 15.1368C50.0527 15.2347 50.0155 15.3286 49.9492 15.3978C49.8828 15.467 49.7929 15.5059 49.6991 15.5059H48.3779C48.2841 15.5059 48.1942 15.467 48.1278 15.3978C48.0615 15.3286 48.0243 15.2347 48.0243 15.1368V13.7492C48.0265 13.6528 48.0647 13.5612 48.1308 13.4939C48.1969 13.4266 48.2856 13.3889 48.3779 13.3889H49.6991C49.7914 13.3889 49.8801 13.4266 49.9462 13.4939C50.0123 13.5612 50.0505 13.6528 50.0527 13.7492V15.1368ZM52.531 15.1368C52.531 15.2347 52.4938 15.3286 52.4275 15.3978C52.3611 15.467 52.2712 15.5059 52.1774 15.5059H50.8562C50.7624 15.5059 50.6725 15.467 50.6061 15.3978C50.5398 15.3286 50.5026 15.2347 50.5026 15.1368V13.7492C50.5033 13.6518 50.5409 13.5587 50.6071 13.4901C50.6734 13.4215 50.7629 13.383 50.8562 13.383H52.1774C52.2707 13.383 52.3602 13.4215 52.4265 13.4901C52.4927 13.5587 52.5303 13.6518 52.531 13.7492V15.1368ZM55.0094 15.1368C55.0094 15.2347 54.9721 15.3286 54.9058 15.3978C54.8395 15.467 54.7495 15.5059 54.6557 15.5059H53.3317C53.2381 15.5051 53.1486 15.466 53.0824 15.397C53.0163 15.3279 52.9788 15.2345 52.978 15.1368V13.7492C52.9788 13.6518 53.0164 13.5587 53.0826 13.4901C53.1489 13.4215 53.2384 13.383 53.3317 13.383H54.6557C54.749 13.383 54.8385 13.4215 54.9048 13.4901C54.971 13.5587 55.0086 13.6518 55.0094 13.7492V15.1368Z" fill="#2429A6"/>
<path d="M45.3989 17.7084C45.1918 17.709 44.9896 17.7736 44.8178 17.8942C44.646 18.0147 44.5122 18.1858 44.4335 18.3857C44.3548 18.5856 44.3347 18.8053 44.3756 19.0172C44.4165 19.229 44.5167 19.4235 44.6635 19.5759C44.8103 19.7283 44.9971 19.8318 45.2003 19.8734C45.4034 19.915 45.6138 19.8928 45.8049 19.8095C45.9959 19.7263 46.1591 19.5858 46.2736 19.4057C46.3882 19.2257 46.449 19.0143 46.4485 18.7981C46.4481 18.6547 46.4206 18.5126 46.3677 18.3802C46.3148 18.2478 46.2373 18.1275 46.1399 18.0263C46.0424 17.9251 45.9268 17.845 45.7997 17.7904C45.6725 17.7359 45.5363 17.708 45.3989 17.7084Z" fill="#2429A6"/>
<path d="M53.9937 17.7084C53.7866 17.7084 53.5841 17.7725 53.4119 17.8927C53.2397 18.0129 53.1055 18.1838 53.0264 18.3836C52.9472 18.5835 52.9267 18.8033 52.9673 19.0154C53.0079 19.2274 53.1079 19.4221 53.2546 19.5748C53.4012 19.7275 53.588 19.8314 53.7913 19.8732C53.9945 19.915 54.2051 19.893 54.3963 19.8098C54.5875 19.7266 54.7508 19.5861 54.8655 19.406C54.9801 19.2259 55.0411 19.0144 55.0405 18.7981C55.039 18.5091 54.9282 18.2324 54.7321 18.0282C54.536 17.8241 54.2706 17.7091 53.9937 17.7084Z" fill="#2429A6"/>
<path d="M58.9843 34.6678V10.8496C58.9843 9.71472 58.1027 8.79468 57.0152 8.79468L40.3913 8.79468C39.3038 8.79468 38.4222 9.71472 38.4222 10.8496V34.6678C38.4222 35.8027 39.3038 36.7228 40.3913 36.7228H57.0152C58.1027 36.7228 58.9843 35.8027 58.9843 34.6678Z" fill="#2429A6"/>
<path d="M42.7197 23.5928H45.0226C45.3421 23.5699 45.658 23.6755 45.9053 23.8881C46.0047 23.9806 46.0837 24.0944 46.137 24.2219C46.1902 24.3493 46.2163 24.4872 46.2136 24.6262C46.2182 24.8582 46.1395 25.0835 45.993 25.258C45.8759 25.3875 45.7287 25.4831 45.5658 25.5356C45.8095 25.582 46.0315 25.7119 46.1967 25.9046C46.3349 26.0931 46.4059 26.3259 46.3975 26.5631C46.4017 26.7699 46.3518 26.974 46.2532 27.1536C46.1598 27.324 46.0239 27.4648 45.86 27.561C45.7138 27.6361 45.5555 27.6822 45.3932 27.6968C45.1103 27.7323 44.9349 27.7529 44.8443 27.7529H42.7197V23.5928ZM43.9616 25.2197H44.4964C44.6368 25.2343 44.7777 25.1978 44.8953 25.1163C44.934 25.079 44.9643 25.0331 44.9839 24.9821C45.0035 24.931 45.0118 24.876 45.0084 24.8211C45.0131 24.766 45.0053 24.7106 44.9857 24.6593C44.966 24.608 44.935 24.5623 44.8953 24.5258C44.7806 24.445 44.6425 24.4084 44.5048 24.4225H43.9645L43.9616 25.2197ZM43.9616 26.8524H44.5869C44.7453 26.8672 44.9038 26.8255 45.0367 26.7343C45.0793 26.6949 45.1131 26.6461 45.1356 26.5915C45.158 26.5369 45.1687 26.4778 45.1669 26.4184C45.1691 26.3619 45.1584 26.3057 45.1358 26.2544C45.1132 26.2031 45.0792 26.1581 45.0367 26.1231C44.9024 26.0331 44.7428 25.9935 44.5841 26.0109H43.9616V26.8524Z" fill="white"/>
<path d="M49.4898 23.5929H50.7176V26.0642C50.719 26.3013 50.6817 26.5369 50.6073 26.761C50.5352 26.9758 50.4171 27.1707 50.2621 27.3308C50.1243 27.4823 49.9563 27.6002 49.7699 27.6763C49.4967 27.7731 49.2096 27.82 48.9211 27.815C48.7093 27.8134 48.4978 27.7996 48.2874 27.7737C48.0904 27.7527 47.8987 27.6947 47.7216 27.6024C47.5595 27.5141 47.4162 27.3926 47.3 27.2452C47.181 27.1069 47.0914 26.9439 47.0369 26.7669C46.9667 26.5396 46.9286 26.3029 46.9238 26.0642V23.5929H48.1488V26.1232C48.1436 26.2199 48.157 26.3167 48.1881 26.408C48.2192 26.4992 48.2674 26.5831 48.3298 26.6547C48.4696 26.7775 48.6465 26.8449 48.8292 26.8449C49.0119 26.8449 49.1888 26.7775 49.3285 26.6547C49.3918 26.583 49.4404 26.4987 49.4715 26.4068C49.5026 26.315 49.5156 26.2175 49.5096 26.1203L49.4898 23.5929Z" fill="white"/>
<path d="M51.3174 26.3711L52.4858 26.2944C52.4981 26.4567 52.5518 26.6127 52.6414 26.7461C52.7059 26.8307 52.7889 26.8978 52.8834 26.942C52.9779 26.9862 53.0812 27.0061 53.1846 27C53.3301 27.0092 53.4738 26.963 53.5892 26.8701C53.6326 26.8354 53.6678 26.7907 53.692 26.7395C53.7162 26.6883 53.7288 26.632 53.7288 26.5749C53.7288 26.5178 53.7162 26.4614 53.692 26.4102C53.6678 26.359 53.6326 26.3143 53.5892 26.2796C53.3989 26.1528 53.1847 26.0702 52.9611 26.0375C52.5438 25.9677 52.1482 25.7956 51.8068 25.5356C51.6947 25.4376 51.6053 25.3145 51.545 25.1755C51.4848 25.0364 51.4553 24.885 51.4588 24.7325C51.4599 24.5168 51.5219 24.3062 51.6371 24.1272C51.7688 23.9263 51.955 23.7711 52.1718 23.6814C52.4843 23.5591 52.8172 23.5038 53.1507 23.519C53.5581 23.4899 53.9643 23.593 54.3134 23.8142C54.4531 23.9261 54.5679 24.0682 54.65 24.2308C54.732 24.3934 54.7793 24.5726 54.7887 24.7561L53.6316 24.827C53.6168 24.6707 53.5473 24.5256 53.4364 24.4195C53.3196 24.3273 53.1752 24.2813 53.029 24.2896C52.9137 24.2803 52.7992 24.3149 52.7065 24.387C52.6726 24.4142 52.6451 24.4491 52.626 24.489C52.6069 24.5288 52.5967 24.5727 52.5961 24.6173C52.5976 24.652 52.6065 24.6859 52.6222 24.7166C52.6379 24.7472 52.6599 24.7738 52.6867 24.7945C52.8115 24.8776 52.9527 24.9301 53.0997 24.948C53.4969 25.0224 53.8843 25.1452 54.254 25.3141C54.4611 25.4147 54.6366 25.5744 54.7604 25.7747C54.8673 25.9599 54.9222 26.1727 54.9188 26.3888C54.9211 26.6512 54.8482 26.9082 54.7095 27.127C54.5637 27.3543 54.3571 27.5319 54.1154 27.6378C53.8114 27.7634 53.4859 27.8227 53.1591 27.812C52.4839 27.812 52.0124 27.6762 51.7446 27.4045C51.4874 27.1251 51.3357 26.7581 51.3174 26.3711Z" fill="white"/>
<path d="M40.6771 31.6858L41.8483 31.6119C41.8598 31.774 41.9125 31.93 42.0011 32.0637C42.0659 32.1479 42.1489 32.2148 42.2434 32.2589C42.3378 32.3031 42.4409 32.3232 42.5443 32.3176C42.6906 32.3267 42.8352 32.2806 42.9517 32.1877C42.9945 32.1523 43.0294 32.1075 43.0538 32.0565C43.0783 32.0054 43.0917 31.9495 43.0931 31.8924C43.093 31.8358 43.0807 31.7799 43.0572 31.7288C43.0337 31.6777 42.9996 31.6328 42.9573 31.5972C42.7662 31.47 42.551 31.3874 42.3264 31.3551C41.9098 31.2839 41.5153 31.1109 41.175 30.8502C41.063 30.7528 40.9735 30.6302 40.9132 30.4917C40.853 30.3531 40.8235 30.2022 40.827 30.05C40.8277 29.8343 40.8897 29.6237 41.0052 29.4448C41.137 29.2439 41.3232 29.0887 41.5399 28.9989C41.8522 28.8755 42.1852 28.8192 42.5188 28.8336C42.9262 28.8061 43.3319 28.9091 43.6816 29.1289C43.8209 29.2411 43.9354 29.3833 44.0174 29.5458C44.0994 29.7083 44.147 29.8873 44.1569 30.0707L42.9969 30.1416C42.9829 29.9857 42.9144 29.8407 42.8046 29.7341C42.6869 29.6415 42.5415 29.5955 42.3943 29.6042C42.2797 29.5964 42.1658 29.6297 42.0718 29.6987C42.0381 29.7265 42.0109 29.762 41.9923 29.8024C41.9736 29.8428 41.9641 29.8871 41.9643 29.9319C41.9653 29.9664 41.9737 30.0003 41.9888 30.0309C42.004 30.0616 42.0256 30.0883 42.052 30.1091C42.1773 30.1911 42.3183 30.2435 42.4651 30.2626C42.863 30.3376 43.2513 30.4604 43.6222 30.6287C43.8287 30.7302 44.0041 30.8897 44.1286 31.0893C44.2342 31.2751 44.289 31.4875 44.287 31.7035C44.2877 31.966 44.2139 32.2228 44.0748 32.4416C43.93 32.6687 43.7244 32.8463 43.4835 32.9524C43.1785 33.0779 42.8522 33.1372 42.5245 33.1266C41.8483 33.1266 41.3928 32.9908 41.1099 32.7191C40.8511 32.4403 40.6974 32.0734 40.6771 31.6858Z" fill="white"/>
<path d="M44.6265 28.9075H48.3779V29.935H47.1246V33.0617H45.894V29.935H44.6407L44.6265 28.9075Z" fill="white"/>
<path d="M48.576 30.9888C48.5481 30.6987 48.5824 30.4057 48.6764 30.1312C48.7704 29.8566 48.9217 29.6073 49.1194 29.4013C49.317 29.1953 49.5561 29.0377 49.8194 28.94C50.0826 28.8423 50.3633 28.8069 50.6412 28.8364C50.9192 28.8177 51.1979 28.8574 51.4608 28.9533C51.7237 29.0492 51.9655 29.1992 52.1718 29.3944C52.3582 29.6025 52.502 29.8481 52.5944 30.1161C52.6868 30.3841 52.7259 30.669 52.7093 30.9533C52.7221 31.3609 52.6416 31.7658 52.4745 32.1344C52.3227 32.4417 52.0862 32.6947 51.7955 32.8607C51.4539 33.0438 51.0732 33.1333 50.6893 33.1205C50.3064 33.1332 49.9256 33.0565 49.5747 32.8961C49.2732 32.7415 49.0244 32.4942 48.8617 32.1875C48.665 31.822 48.5663 31.4079 48.576 30.9888ZM49.8038 30.9888C49.7771 31.3077 49.856 31.6266 50.0273 31.8922C50.1065 31.9784 50.2016 32.047 50.3069 32.0939C50.4121 32.1407 50.5254 32.1648 50.6398 32.1648C50.7543 32.1648 50.8675 32.1407 50.9728 32.0939C51.078 32.047 51.1731 31.9784 51.2523 31.8922C51.4245 31.6042 51.5001 31.2646 51.4673 30.9268C51.4929 30.6222 51.4125 30.3183 51.241 30.0705C51.1644 29.9808 51.0694 29.9101 50.9632 29.8636C50.857 29.8171 50.7421 29.796 50.6271 29.8018C50.5141 29.7973 50.4017 29.8196 50.2982 29.8672C50.1948 29.9148 50.1031 29.9863 50.0301 30.0764C49.8506 30.343 49.7665 30.667 49.7925 30.9917L49.8038 30.9888Z" fill="white"/>
<path d="M53.3544 28.9072H55.397C55.7597 28.8778 56.1191 28.9976 56.3985 29.2408C56.5134 29.3652 56.6021 29.5132 56.6591 29.6754C56.7161 29.8375 56.7401 30.0103 56.7295 30.1827C56.7397 30.364 56.7127 30.5456 56.6502 30.7151C56.5878 30.8847 56.4914 31.0384 56.3674 31.1659C56.0556 31.4272 55.6598 31.554 55.2612 31.5202H54.602V33.0614H53.3685L53.3544 28.9072ZM54.5879 30.6787H54.8849C55.0612 30.6973 55.2383 30.6514 55.3857 30.5488C55.4311 30.5085 55.4673 30.4583 55.4918 30.4016C55.5162 30.3449 55.5283 30.2832 55.5271 30.2211C55.5288 30.1596 55.5186 30.0984 55.4972 30.0411C55.4758 29.9838 55.4437 29.9316 55.4027 29.8874C55.2686 29.781 55.1005 29.7323 54.933 29.7516H54.602L54.5879 30.6787Z" fill="white"/>
<path d="M55.8298 12.6567H43.7099C43.6256 12.6568 43.5438 12.6857 43.4768 12.7391C43.4099 12.7924 43.3615 12.8672 43.3392 12.952L42.7197 15.0276C42.665 15.2111 42.5638 15.3757 42.4269 15.504C42.2899 15.6324 42.1223 15.7198 41.9417 15.7569L41.5597 15.8366C41.4544 15.8585 41.3596 15.9178 41.2915 16.0045C41.2234 16.0912 41.1862 16.1999 41.1863 16.312V18.3965C41.1862 18.4507 41.1967 18.5044 41.2171 18.5543C41.2375 18.6042 41.2674 18.6493 41.3049 18.6868C41.3425 18.7244 41.3869 18.7536 41.4356 18.7727C41.4842 18.7918 41.5361 18.8004 41.588 18.798H43.6929C43.6929 18.3227 43.8738 17.8668 44.1959 17.5307C44.5179 17.1946 44.9547 17.0058 45.4102 17.0058C45.8656 17.0058 46.3024 17.1946 46.6245 17.5307C46.9465 17.8668 47.1274 18.3227 47.1274 18.798H52.2821C52.3001 18.3349 52.489 17.897 52.8094 17.576C53.1297 17.2549 53.5566 17.0756 54.0008 17.0756C54.4449 17.0756 54.8718 17.2549 55.1922 17.576C55.5125 17.897 55.7015 18.3349 55.7195 18.798H55.8383C55.889 18.7984 55.9394 18.7883 55.9864 18.7683C56.0334 18.7483 56.0762 18.7188 56.1122 18.6814C56.1482 18.6441 56.1768 18.5997 56.1963 18.5508C56.2158 18.5019 56.2259 18.4494 56.2259 18.3965V13.0583C56.2255 13.0046 56.2149 12.9516 56.1948 12.9023C56.1746 12.853 56.1452 12.8083 56.1084 12.771C56.0715 12.7336 56.0279 12.7043 55.9801 12.6847C55.9323 12.665 55.8812 12.6555 55.8298 12.6567ZM47.5744 15.1368C47.5744 15.2342 47.5376 15.3277 47.4719 15.3968C47.4061 15.4659 47.3169 15.5051 47.2236 15.5059H45.8996C45.8065 15.5044 45.7177 15.4649 45.6522 15.3959C45.5866 15.327 45.5495 15.234 45.5488 15.1368V13.7492C45.5495 13.6518 45.5871 13.5587 45.6534 13.4901C45.7196 13.4215 45.8091 13.383 45.9024 13.383H47.2264C47.3188 13.3846 47.4069 13.4237 47.4719 13.4921C47.5369 13.5606 47.5737 13.6528 47.5744 13.7492V15.1368ZM50.0527 15.1368C50.0527 15.2347 50.0155 15.3286 49.9492 15.3978C49.8828 15.467 49.7929 15.5059 49.6991 15.5059H48.3779C48.2841 15.5059 48.1942 15.467 48.1278 15.3978C48.0615 15.3286 48.0243 15.2347 48.0243 15.1368V13.7492C48.0265 13.6528 48.0647 13.5612 48.1308 13.4939C48.1969 13.4266 48.2856 13.3889 48.3779 13.3889H49.6991C49.7914 13.3889 49.8801 13.4266 49.9462 13.4939C50.0123 13.5612 50.0505 13.6528 50.0527 13.7492V15.1368ZM52.531 15.1368C52.531 15.2347 52.4938 15.3286 52.4275 15.3978C52.3611 15.467 52.2712 15.5059 52.1774 15.5059H50.8562C50.7624 15.5059 50.6725 15.467 50.6061 15.3978C50.5398 15.3286 50.5026 15.2347 50.5026 15.1368V13.7492C50.5033 13.6518 50.5409 13.5587 50.6071 13.4901C50.6734 13.4215 50.7629 13.383 50.8562 13.383H52.1774C52.2707 13.383 52.3602 13.4215 52.4265 13.4901C52.4927 13.5587 52.5303 13.6518 52.531 13.7492V15.1368ZM55.0094 15.1368C55.0094 15.2347 54.9721 15.3286 54.9058 15.3978C54.8395 15.467 54.7495 15.5059 54.6557 15.5059H53.3317C53.2381 15.5051 53.1486 15.466 53.0824 15.397C53.0163 15.3279 52.9788 15.2345 52.978 15.1368V13.7492C52.9788 13.6518 53.0164 13.5587 53.0826 13.4901C53.1489 13.4215 53.2384 13.383 53.3317 13.383H54.6557C54.749 13.383 54.8385 13.4215 54.9048 13.4901C54.971 13.5587 55.0086 13.6518 55.0094 13.7492V15.1368Z" fill="white"/>
<path d="M45.3989 17.7084C45.1918 17.709 44.9896 17.7736 44.8178 17.8942C44.646 18.0147 44.5122 18.1858 44.4335 18.3857C44.3548 18.5856 44.3347 18.8053 44.3756 19.0172C44.4165 19.229 44.5167 19.4235 44.6635 19.5759C44.8103 19.7283 44.9971 19.8318 45.2003 19.8734C45.4034 19.915 45.6138 19.8928 45.8049 19.8095C45.9959 19.7263 46.1591 19.5858 46.2736 19.4057C46.3882 19.2257 46.449 19.0143 46.4485 18.7981C46.4481 18.6547 46.4206 18.5126 46.3677 18.3802C46.3148 18.2478 46.2373 18.1275 46.1399 18.0263C46.0424 17.9251 45.9268 17.845 45.7997 17.7904C45.6725 17.7359 45.5363 17.708 45.3989 17.7084Z" fill="white"/>
<path d="M53.9937 17.7084C53.7866 17.7084 53.5841 17.7725 53.4119 17.8927C53.2397 18.0129 53.1055 18.1838 53.0264 18.3836C52.9472 18.5835 52.9267 18.8033 52.9673 19.0154C53.0079 19.2274 53.1079 19.4221 53.2546 19.5748C53.4012 19.7275 53.588 19.8314 53.7913 19.8732C53.9945 19.915 54.2051 19.893 54.3963 19.8098C54.5875 19.7266 54.7508 19.5861 54.8655 19.406C54.9801 19.2259 55.0411 19.0144 55.0405 18.7981C55.039 18.5091 54.9282 18.2324 54.7321 18.0282C54.536 17.8241 54.2706 17.7091 53.9937 17.7084Z" fill="white"/>
<path d="M97.7489 88.8055L97.5169 90.5239L96.2579 107.415H94.7642L96.0203 90.5239L96.2523 88.8055H97.7489Z" fill="#E0E0E0"/>
<path d="M105.3 88.8055L105.532 90.5239L106.788 107.415H108.282L107.026 90.5239L106.794 88.8055H105.3Z" fill="#E0E0E0"/>
<path d="M33.6948 88.8055L33.46 90.5239L32.2038 107.415H30.7129L31.9662 90.5239L32.201 88.8055H33.6948Z" fill="#E0E0E0"/>
<path d="M41.2429 88.8055L41.4748 90.5239L42.7366 107.415H44.2304L42.9743 90.5239L42.7395 88.8055H41.2429Z" fill="#E0E0E0"/>
<path d="M43.2714 71.6454L40.9402 88.8056L40.7082 90.524H39.2144L39.4464 88.8056L41.7776 71.6454H43.2714Z" fill="#E0E0E0"/>
<path d="M107.323 71.6454L104.991 88.8056L104.759 90.524H103.266L103.498 88.8056L105.829 71.6454H107.323Z" fill="#E0E0E0"/>
<path d="M107.566 85.9624H39.1069L40.38 81.1852H108.836L107.566 85.9624Z" fill="#2429A6"/>
<path d="M106.004 85.9624H37.5452L38.8155 81.1852H107.275L106.004 85.9624Z" fill="#2429A6"/>
<path opacity="0.1" d="M107.566 85.9624H39.1069L40.38 81.1852H108.836L107.566 85.9624Z" fill="black"/>
<path d="M109.473 74.034H41.0137L42.2868 69.2568H110.743L109.473 74.034Z" fill="#2429A6"/>
<path opacity="0.1" d="M109.473 74.034H41.0137L42.2868 69.2568H110.743L109.473 74.034Z" fill="black"/>
<path d="M107.911 74.034H39.452L40.7223 69.2568H109.181L107.911 74.034Z" fill="white"/>
<path d="M107.911 74.034H39.452L40.7223 69.2568H109.181L107.911 74.034Z" fill="#2429A6"/>
<path opacity="0.3" d="M107.911 74.034H39.452L40.7223 69.2568H109.181L107.911 74.034Z" fill="white"/>
<path d="M108.519 79.9953H40.0603L41.3334 75.2151H109.79L108.519 79.9953Z" fill="#2429A6"/>
<path d="M106.958 79.9953H38.4987L39.7689 75.2151H108.228L106.958 79.9953Z" fill="#2429A6"/>
<path opacity="0.1" d="M108.519 79.9953H40.0603L41.3334 75.2151H109.79L108.519 79.9953Z" fill="black"/>
<path d="M106.958 79.9953H38.4987L39.7689 75.2151H108.228L106.958 79.9953Z" fill="#2429A6"/>
<path opacity="0.3" d="M106.958 79.9953H38.4987L39.7689 75.2151H108.228L106.958 79.9953Z" fill="white"/>
<path d="M106.004 85.9624H37.5452L38.8155 81.1852H107.275L106.004 85.9624Z" fill="#2429A6"/>
<path opacity="0.3" d="M106.004 85.9624H37.5452L38.8155 81.1852H107.275L106.004 85.9624Z" fill="white"/>
<path d="M99.4746 88.8055H31.3183V90.5239H99.4746V88.8055Z" fill="#2429A6"/>
<path d="M99.4746 88.8055H31.3183V90.5239H99.4746V88.8055Z" fill="#2429A6"/>
<path opacity="0.3" d="M99.4746 88.8055H31.3183V90.5239H99.4746V88.8055Z" fill="white"/>
<path d="M108.839 88.8055H99.4718V90.5239H108.839V88.8055Z" fill="#2429A6"/>
<path opacity="0.1" d="M108.839 88.8055H99.4718V90.5239H108.839V88.8055Z" fill="black"/>
<path d="M56.4466 107.239C56.307 107.25 56.1679 107.21 56.0533 107.126C56.0178 107.093 55.9911 107.05 55.9757 107.002C55.9604 106.955 55.9569 106.904 55.9656 106.855C55.9673 106.824 55.9769 106.794 55.9933 106.769C56.0097 106.743 56.0324 106.723 56.059 106.71C56.2938 106.592 56.9303 107.005 57.0011 107.061C57.01 107.066 57.0175 107.073 57.0228 107.082C57.028 107.091 57.0308 107.101 57.0308 107.112C57.0308 107.122 57.028 107.132 57.0228 107.141C57.0175 107.15 57.01 107.157 57.0011 107.162C56.8196 107.209 56.6336 107.235 56.4466 107.239ZM56.1636 106.796C56.144 106.792 56.1239 106.792 56.1042 106.796C56.0937 106.801 56.0848 106.81 56.0783 106.82C56.0719 106.83 56.0681 106.842 56.0674 106.855C56.0611 106.887 56.0627 106.92 56.0721 106.952C56.0815 106.983 56.0984 107.012 56.1212 107.035C56.3466 107.142 56.6023 107.155 56.837 107.073C56.6327 106.934 56.4037 106.84 56.1636 106.796Z" fill="#2429A6"/>
<path d="M56.9728 107.162C56.9645 107.165 56.9556 107.165 56.9473 107.162C56.7465 107.044 56.3617 106.571 56.407 106.338C56.4136 106.298 56.4334 106.262 56.4629 106.236C56.4924 106.21 56.5297 106.196 56.5682 106.196C56.6058 106.191 56.644 106.194 56.6802 106.206C56.7164 106.217 56.7496 106.237 56.7776 106.264C57.0068 106.471 57.0237 107.088 57.0266 107.115C57.0265 107.125 57.0241 107.134 57.0197 107.142C57.0152 107.15 57.0088 107.157 57.0011 107.162C56.9919 107.165 56.982 107.165 56.9728 107.162ZM56.6022 106.297H56.5824C56.5173 106.297 56.5117 106.335 56.5088 106.35C56.4834 106.489 56.7182 106.834 56.9162 106.997C56.912 106.761 56.8401 106.531 56.7097 106.338C56.6802 106.31 56.6418 106.296 56.6022 106.297Z" fill="#2429A6"/>
<path d="M57.2614 108.124H59.3068L59.5643 103.184H57.5188L57.2614 108.124Z" fill="#E4897B"/>
<path d="M57.1482 106.86H59.4454C59.4855 106.86 59.5242 106.875 59.5547 106.902C59.5853 106.929 59.6057 106.967 59.6124 107.008L59.9207 108.904C59.9272 108.951 59.9239 109 59.9109 109.046C59.898 109.091 59.8757 109.134 59.8457 109.17C59.8156 109.206 59.7785 109.235 59.7367 109.255C59.695 109.275 59.6497 109.285 59.6039 109.285C58.8004 109.27 58.4156 109.22 57.4028 109.22C56.7832 109.22 54.7293 109.288 53.8721 109.288C53.0148 109.288 52.9441 108.402 53.3062 108.322C54.899 107.962 56.2853 107.466 56.8144 106.993C56.9071 106.909 57.0254 106.862 57.1482 106.86Z" fill="#263238"/>
<path d="M76.9181 65.8907C76.2023 67.4762 75.4554 69.0322 74.6802 70.5823C73.9051 72.1324 73.1072 73.6677 72.2585 75.1942L71.936 75.767L71.8539 75.9116L71.7295 76.1154C71.6418 76.26 71.5597 76.3575 71.472 76.4815C71.1612 76.8728 70.8196 77.2362 70.4507 77.568C69.788 78.1682 69.0927 78.7281 68.3685 79.2451C66.9654 80.2493 65.5026 81.1596 63.989 81.9703L63.1403 80.6269C64.402 79.5256 65.6865 78.4125 66.8888 77.2875C67.4886 76.7265 68.0799 76.1508 68.5863 75.5751C68.8244 75.312 69.0455 75.0329 69.2483 74.7395C69.2794 74.6804 69.3304 74.6125 69.3445 74.5712L69.452 74.3527L69.7349 73.7799C71.1948 70.7093 72.6206 67.5618 74.1144 64.4764L76.9181 65.8907Z" fill="#E4897B"/>
<path d="M77.7725 64.3437C78.3694 66.254 74.5982 71.8757 74.5982 71.8757L70.6233 69.552C71.3267 67.7975 72.2018 66.1233 73.2346 64.5563C74.7934 62.3124 77.1218 62.2504 77.7725 64.3437Z" fill="#2429A6"/>
<path d="M63.2167 80.5828L61.3127 81.7316L62.6905 83.8462C62.6905 83.8462 64.1644 83.0695 64.32 81.4835L63.2167 80.5828Z" fill="#E4897B"/>
<path d="M60.099 84.3301L61.6578 84.1677L62.6905 83.8458L61.3127 81.7312L60.099 84.3301Z" fill="#E4897B"/>
<path d="M57.5188 103.184H59.5642L59.4284 105.733H57.383L57.5188 103.184Z" fill="#CE6F64"/>
<path d="M76.0976 108.124H74.0522L72.5584 103.184H74.6039L76.0976 108.124Z" fill="#E4897B"/>
<path d="M73.6702 106.86H75.9675C76.0077 106.86 76.0467 106.875 76.0774 106.902C76.108 106.929 76.1283 106.967 76.1344 107.008L76.4456 108.904C76.4516 108.952 76.4479 109 76.4346 109.046C76.4213 109.092 76.3988 109.134 76.3685 109.17C76.3382 109.206 76.3009 109.235 76.2591 109.255C76.2173 109.275 76.1718 109.285 76.1259 109.285C75.3253 109.27 74.9377 109.22 73.9277 109.22C73.3053 109.22 71.2542 109.288 70.3941 109.288C69.5341 109.288 69.469 108.402 69.8283 108.322C71.4211 107.962 72.8074 107.466 73.3336 106.993C73.4273 106.909 73.5465 106.862 73.6702 106.86Z" fill="#263238"/>
<path d="M74.6039 103.184H72.5584L73.3308 105.733H75.3762L74.6039 103.184Z" fill="#CE6F64"/>
<path d="M72.9912 107.239C72.8508 107.25 72.7109 107.21 72.5952 107.126C72.5597 107.093 72.533 107.05 72.5176 107.002C72.5023 106.955 72.4988 106.904 72.5075 106.855C72.5095 106.824 72.5192 106.795 72.5355 106.769C72.5519 106.744 72.5745 106.723 72.6008 106.71C72.8385 106.592 73.475 107.005 73.5458 107.061C73.5541 107.068 73.5605 107.076 73.5645 107.086C73.5685 107.096 73.5699 107.107 73.5684 107.118C73.5665 107.128 73.5618 107.138 73.5548 107.146C73.5478 107.154 73.5388 107.159 73.5288 107.162C73.3529 107.208 73.1726 107.234 72.9912 107.239ZM72.7083 106.796C72.6877 106.792 72.6667 106.792 72.6461 106.796C72.6357 106.801 72.627 106.81 72.621 106.82C72.615 106.83 72.6119 106.842 72.6121 106.855C72.6058 106.887 72.6073 106.92 72.6167 106.952C72.6262 106.983 72.6431 107.012 72.6659 107.035C72.8903 107.141 73.1451 107.155 73.3788 107.073C73.1755 106.934 72.9475 106.84 72.7083 106.796Z" fill="#2429A6"/>
<path d="M73.5061 107.162C73.4979 107.165 73.489 107.165 73.4807 107.162C73.2798 107.044 72.8922 106.572 72.9375 106.338C72.9452 106.298 72.9657 106.263 72.9956 106.237C73.0254 106.211 73.0628 106.197 73.1016 106.196C73.1391 106.191 73.1772 106.195 73.2133 106.206C73.2495 106.218 73.2828 106.238 73.3109 106.264C73.5373 106.471 73.5571 107.089 73.5571 107.115C73.557 107.125 73.5546 107.134 73.5502 107.142C73.5457 107.151 73.5393 107.157 73.5316 107.162C73.5233 107.165 73.5144 107.165 73.5061 107.162ZM73.1355 106.297H73.1129C73.0506 106.297 73.0422 106.335 73.0393 106.35C73.0139 106.489 73.2515 106.834 73.4467 106.997C73.4446 106.761 73.3735 106.531 73.243 106.338C73.2133 106.311 73.175 106.296 73.1355 106.297Z" fill="#2429A6"/>
<path d="M86.3164 63.5791C86.6984 63.6588 87.0209 63.7415 87.3632 63.8389C87.7055 63.9364 88.0337 64.0367 88.3675 64.1342C89.0314 64.3487 89.6916 64.5938 90.3479 64.8694C90.9958 65.141 91.6352 65.4451 92.2661 65.7876C92.5829 65.953 92.8941 66.136 93.2025 66.322C93.3553 66.4165 93.508 66.5198 93.6608 66.6173L93.89 66.7679C93.9041 66.7679 94.0258 66.8594 94.105 66.9214C94.192 66.9933 94.2751 67.0702 94.3539 67.1517C94.6327 67.4623 94.8279 67.8442 94.9198 68.2589C94.9886 68.5623 95.0115 68.8752 94.9877 69.186C94.9507 69.6478 94.8556 70.1024 94.7048 70.5382C94.4536 71.258 94.1352 71.9503 93.7542 72.605C93.0475 73.8459 92.229 75.0135 91.3098 76.092L90.0537 75.1708C90.6365 73.9898 91.2108 72.7379 91.6804 71.5333C91.9099 70.9596 92.0935 70.367 92.2293 69.7617C92.2826 69.5368 92.3064 69.3054 92.3 69.0738C92.3 68.997 92.2745 68.9527 92.2717 68.9734C92.2836 69.0534 92.3204 69.127 92.3764 69.183C92.3933 69.2056 92.4134 69.2255 92.4358 69.2421C92.4358 69.2569 92.5009 69.2893 92.4358 69.2568L92.2321 69.1506C92.0963 69.0797 91.9492 69.0029 91.8247 68.938C91.5418 68.8051 91.2589 68.6663 90.976 68.5423C90.4102 68.2855 89.8245 68.0552 89.2332 67.8367C88.642 67.6182 88.045 67.4174 87.4396 67.2285C87.1369 67.134 86.8341 67.0395 86.5314 66.9539L85.6487 66.7118L86.3164 63.5791Z" fill="#E4897B"/>
<path d="M89.8415 75.2504L88.6024 76.9693L91.1486 77.1524C91.1486 77.1524 91.9973 75.4188 91.1005 75.0289L89.8415 75.2504Z" fill="#E4897B"/>
<path d="M88.7466 79.3757L90.8628 79.42L91.157 77.1519L88.6024 76.9688L88.7466 79.3757Z" fill="#E4897B"/>
<path d="M74.3832 81.3298C74.3832 81.3298 60.2376 80.8219 58.3477 86.6945C56.274 93.1222 56.7069 105.033 56.7069 105.033H60.2602C60.2602 105.033 61.6267 96.5324 62.5631 92.2217C63.5363 87.7456 77.3481 89.7799 79.1022 88.1442C80.5026 86.8392 81.2098 84.6307 81.3966 81.3298H74.3832Z" fill="#2429A6"/>
<path opacity="0.7" d="M74.3832 81.3298C74.3832 81.3298 60.2376 80.8219 58.3477 86.6945C56.274 93.1222 56.7069 105.033 56.7069 105.033H60.2602C60.2602 105.033 61.6267 96.5324 62.5631 92.2217C63.5363 87.7456 77.3481 89.7799 79.1022 88.1442C80.5026 86.8392 81.2098 84.6307 81.3966 81.3298H74.3832Z" fill="black"/>
<path d="M78.2619 81.3296C78.2619 81.3296 64.3794 82.0736 65.3527 88.1824C66.4164 94.8729 72.4028 105.033 72.4028 105.033H75.976C75.976 105.033 73.5373 95.2656 72.4085 91.008C71.6305 88.0555 81.2721 89.7798 83.0262 88.1441C84.4266 86.839 85.1338 84.6305 85.3206 81.3296H78.2619Z" fill="#2429A6"/>
<path opacity="0.6" d="M78.2619 81.3296C78.2619 81.3296 64.3794 82.0736 65.3527 88.1824C66.4164 94.8729 72.4028 105.033 72.4028 105.033H75.976C75.976 105.033 73.5373 95.2656 72.4085 91.008C71.6305 88.0555 81.2721 89.7798 83.0262 88.1441C84.4266 86.839 85.1338 84.6305 85.3206 81.3296H78.2619Z" fill="black"/>
<path d="M60.4894 105.121H56.4692L56.3589 103.793L60.7497 103.911L60.4894 105.121Z" fill="#2429A6"/>
<path d="M76.1882 105.121H72.168L71.3871 103.793H76.1627L76.1882 105.121Z" fill="#2429A6"/>
<path d="M77.8234 64.5858C77.0397 64.1901 76.1259 64.5208 75.1442 66.0975C74.1625 67.6741 73.3053 70.3108 73.2034 71.0637L74.5982 71.8756C74.5982 71.8756 78.0837 66.685 77.8234 64.5858Z" fill="#2429A6"/>
<path opacity="0.1" d="M77.8234 64.5858C77.0397 64.1901 76.1259 64.5208 75.1442 66.0975C74.1625 67.6741 73.3053 70.3108 73.2034 71.0637L74.5982 71.8756C74.5982 71.8756 78.0837 66.685 77.8234 64.5858Z" fill="black"/>
<path d="M86.8794 62.7612C86.8115 63.0358 86.7465 63.3104 86.6871 63.585C86.6871 63.585 86.6871 63.5998 86.6871 63.6086C86.2586 65.5554 85.943 67.5273 85.7421 69.5137C85.1452 75.218 85.4422 80.0513 85.3263 81.3239H74.3832C72.6858 69.3218 75.4187 62.8793 75.4187 62.8793C75.4187 62.8793 76.3325 62.6195 77.4924 62.4305C77.8432 62.3715 78.2167 62.3213 78.5929 62.2859C80.141 62.1913 81.6931 62.1913 83.2412 62.2859C83.575 62.3036 83.9117 62.3302 84.237 62.3626C85.6516 62.5132 86.8794 62.7612 86.8794 62.7612Z" fill="#2429A6"/>
<path d="M84.237 62.3687L83.9286 62.8117C83.8692 62.8973 82.449 64.8937 79.4586 65.4549L79.1927 65.5051L78.9465 65.384C78.0044 64.9203 77.4669 64.2972 77.3509 63.5352C77.2959 63.1624 77.345 62.781 77.4924 62.4366C77.8432 62.3775 78.2166 62.3273 78.5929 62.2919C80.141 62.1973 81.693 62.1973 83.2411 62.2919C83.575 62.3096 83.9116 62.3362 84.237 62.3687Z" fill="white"/>
<path d="M78.2138 72.1089C78.0786 72.1078 77.945 72.0781 77.8211 72.0218C77.6971 71.9655 77.5853 71.8836 77.4924 71.7812C77.0878 71.3589 76.8926 70.6001 76.9718 69.7144C77.0991 68.3267 77.8602 67.1752 78.7089 67.0955C78.8583 67.0819 79.0087 67.1038 79.1488 67.1595C79.289 67.2152 79.4152 67.3034 79.518 67.4173C79.9226 67.8425 80.1178 68.5983 80.0386 69.4841C79.9113 70.8747 79.1502 72.0262 78.3043 72.1059L78.2138 72.1089ZM78.7994 67.3848H78.7344C78.0412 67.4498 77.3651 68.5304 77.2547 69.7469C77.184 70.5145 77.3537 71.2231 77.6932 71.5715C77.767 71.6551 77.8581 71.7199 77.9597 71.7608C78.0612 71.8018 78.1704 71.8179 78.2789 71.8077C78.9692 71.7428 79.6482 70.6651 79.7585 69.4457C79.8264 68.678 79.6595 67.9694 79.3172 67.621C79.2503 67.548 79.17 67.4899 79.081 67.4503C78.992 67.4107 78.8962 67.3904 78.7994 67.3907V67.3848Z" fill="white"/>
<path d="M83.0516 56.8297C82.681 58.3887 82.2481 61.2585 83.2412 62.2919C83.2412 62.2919 81.9963 64.0634 79.3087 64.5831C77.283 63.5851 78.5929 62.2919 78.5929 62.2919C80.2904 61.8756 80.2904 60.5853 80.0726 59.3719L83.0516 56.8297Z" fill="#E4897B"/>
<path d="M81.8379 57.8658L80.0641 59.3691C80.1227 59.6528 80.1568 59.9414 80.1659 60.2314C80.8081 60.1369 81.7191 59.4045 81.821 58.7075C81.8749 58.4303 81.8806 58.1452 81.8379 57.8658Z" fill="#CE6F64"/>
<path d="M78.5363 52.0256C77.5065 52.4714 76.8134 55.4151 78.0667 56.0912C79.32 56.7674 80.4828 51.1841 78.5363 52.0256Z" fill="#263238"/>
<path d="M83.3458 54.4942C83.1167 56.6082 83.0855 57.8512 82.0076 58.9378C81.6697 59.2955 81.2439 59.5492 80.7769 59.6712C80.3099 59.7931 79.8198 59.7786 79.3602 59.6292C78.9007 59.4798 78.4894 59.2012 78.1714 58.8241C77.8534 58.447 77.641 57.9858 77.5574 57.491C77.218 55.5896 77.648 52.454 79.6736 51.6125C80.1018 51.4157 80.5725 51.3414 81.0374 51.3974C81.5022 51.4534 81.9443 51.6376 82.3183 51.9311C82.6923 52.2245 82.9846 52.6167 83.1652 53.0672C83.3458 53.5177 83.4081 54.0102 83.3458 54.4942Z" fill="#E4897B"/>
<path d="M81.7615 49.8528C82.8706 49.1235 84.5652 49.8528 84.2229 50.8478C83.674 52.4569 85.0858 50.9128 85.0716 52.8171C85.0716 54.0602 83.7278 57.0068 82.879 56.93C82.0303 56.8533 81.705 55.2855 82.2199 53.5435C82.6046 52.2325 81.5437 52.7492 80.0018 52.9087C76.8728 53.2275 74.7199 48.9493 78.3213 49.1796C81.804 49.401 81.4334 47.4081 81.4334 47.4081C81.4334 47.4081 82.6867 49.5457 80.7091 49.5546C78.7316 49.5634 79.4615 51.3615 81.7615 49.8528Z" fill="#263238"/>
<path d="M84.1465 56.8092C83.8527 57.2584 83.407 57.575 82.8988 57.6952C82.2311 57.8458 81.9709 57.2197 82.217 56.5907C82.4377 56.0236 83.0516 55.2617 83.6938 55.3916C84.336 55.5215 84.5029 56.2658 84.1465 56.8092Z" fill="#E4897B"/>
<path d="M83.6683 51.4774C83.9435 51.4393 84.2061 51.3338 84.4347 51.1695C84.6634 51.0051 84.8515 50.7867 84.9839 50.5319C84.9839 50.5319 85.0376 52.2073 83.6683 51.4774Z" fill="#263238"/>
<path d="M80.2451 55.0847C80.2451 55.2561 80.1404 55.395 80.0329 55.395C79.9254 55.395 79.8462 55.2561 79.8547 55.0847C79.8632 54.9133 79.9565 54.7715 80.064 54.7715C80.1715 54.7715 80.2536 54.8985 80.2451 55.0847Z" fill="#263238"/>
<path d="M78.3807 55.0847C78.3807 55.2561 78.276 55.395 78.1685 55.395C78.061 55.395 77.9818 55.2561 77.9903 55.0847C77.9988 54.9133 78.0922 54.7715 78.1997 54.7715C78.3072 54.7715 78.3892 54.8985 78.3807 55.0847Z" fill="#263238"/>
<path d="M78.9692 55.1554C78.745 55.6849 78.4548 56.1813 78.1063 56.6317C78.2176 56.7156 78.3453 56.7729 78.4803 56.7995C78.6153 56.826 78.7542 56.8211 78.8872 56.7852L78.9692 55.1554Z" fill="#DE5753"/>
<path d="M79.3483 57.2581C79.3355 57.2581 79.3233 57.2528 79.3143 57.2434C79.3053 57.2339 79.3002 57.2212 79.3002 57.2078C79.2998 57.2011 79.3007 57.1944 79.303 57.1881C79.3053 57.1818 79.3088 57.1761 79.3134 57.1714C79.3179 57.1666 79.3234 57.1629 79.3294 57.1605C79.3354 57.1582 79.3419 57.1572 79.3483 57.1576C79.5571 57.1597 79.7636 57.1127 79.9527 57.0202C80.1417 56.9276 80.3084 56.7918 80.4403 56.6228C80.4478 56.6118 80.4589 56.6042 80.4715 56.6015C80.4841 56.5987 80.4972 56.6011 80.5082 56.608C80.5172 56.6174 80.5223 56.6302 80.5223 56.6435C80.5223 56.6568 80.5172 56.6695 80.5082 56.6789C80.3703 56.8619 80.194 57.0092 79.9929 57.1097C79.7918 57.2101 79.5712 57.2609 79.3483 57.2581Z" fill="#263238"/>
<path d="M80.8421 54.4413C80.8267 54.4413 80.8115 54.4376 80.7978 54.4304C80.784 54.4232 80.7721 54.4128 80.7629 54.4C80.6961 54.2976 80.6068 54.2136 80.5024 54.155C80.398 54.0964 80.2816 54.0648 80.1631 54.0631C80.1503 54.0652 80.1372 54.0644 80.1248 54.0608C80.1123 54.0572 80.1007 54.0509 80.0908 54.0422C80.0809 54.0335 80.0728 54.0227 80.0673 54.0105C80.0617 53.9983 80.0587 53.985 80.0584 53.9715C80.0568 53.9445 80.0654 53.918 80.0824 53.8976C80.0993 53.8771 80.1232 53.8644 80.1489 53.8622C80.3009 53.8598 80.451 53.8968 80.5858 53.9701C80.7207 54.0433 80.8359 54.1504 80.9213 54.2818C80.9359 54.3038 80.9417 54.331 80.9374 54.3575C80.9332 54.3839 80.9193 54.4076 80.8987 54.4236C80.8819 54.4352 80.8622 54.4414 80.8421 54.4413Z" fill="#263238"/>
<path d="M77.6027 54.403C77.5878 54.4061 77.5724 54.4061 77.5575 54.403C77.5348 54.3899 77.5179 54.368 77.5105 54.3421C77.5031 54.3161 77.5057 54.2881 77.5178 54.2642C77.5876 54.1184 77.6888 53.9915 77.8135 53.8936C77.9382 53.7956 78.083 53.7293 78.2364 53.6998C78.2616 53.6964 78.2869 53.7035 78.307 53.7196C78.3272 53.7356 78.3404 53.7593 78.344 53.7855C78.3472 53.8121 78.3405 53.8389 78.3252 53.8604C78.3099 53.8819 78.2872 53.8964 78.2619 53.9007C78.14 53.9269 78.0255 53.9822 77.9274 54.0621C77.8293 54.1421 77.7501 54.2446 77.6961 54.3617C77.6855 54.3767 77.6713 54.3885 77.6549 54.3958C77.6384 54.4031 77.6204 54.4056 77.6027 54.403Z" fill="#263238"/>
<path d="M86.687 63.579V63.5967C86.687 63.5967 86.687 63.6115 86.687 63.6203C86.2585 65.5671 85.943 67.539 85.7421 69.5254C84.551 67.7745 84.2002 65.944 84.4096 64.8013C84.6387 63.5376 85.9713 63.5022 86.687 63.579Z" fill="#2429A6"/>
<path opacity="0.1" d="M86.687 63.579V63.5967C86.687 63.5967 86.687 63.6115 86.687 63.6203C86.2585 65.5671 85.943 67.539 85.7421 69.5254C84.551 67.7745 84.2002 65.944 84.4096 64.8013C84.6387 63.5376 85.9713 63.5022 86.687 63.579Z" fill="black"/>
<path d="M84.8736 62.9591C86.3673 61.6658 91.8134 64.7158 91.8134 64.7158L88.6052 68.9114C88.6052 68.9114 88.0393 68.7785 85.776 67.7156C83.4024 66.5995 83.2694 64.3438 84.8736 62.9591Z" fill="#2429A6"/>
<path d="M55.2159 82.7412L54.8142 88.8057H51.8917L51.8125 87.6041L51.5692 83.9429L51.49 82.7412H55.2159Z" fill="#2429A6"/>
<path opacity="0.2" d="M55.2159 82.7412L54.8142 88.8057H51.8917L51.8125 87.6041L51.5692 83.9429L51.49 82.7412H55.2159Z" fill="black"/>
<path d="M55.5356 82.5433H51.1731V82.9371H55.5356V82.5433Z" fill="#E6E6E6"/>
<path d="M55.2668 82.1506H51.439V82.5444H55.2668V82.1506Z" fill="#F5F5F5"/>
<path d="M53.1874 83.9427V87.6049H51.7757L51.5352 83.9427H53.1874Z" fill="#F5F5F5"/>
</svg>
