<svg width="121" height="111" viewBox="0 0 121 111" fill="none" xmlns="http://www.w3.org/2000/svg">
<path d="M117.922 21.3233L91.0869 21.5188C91.0869 21.5188 93.7539 15.3023 97.8474 15.2724C101.941 15.2426 103.223 19.5123 103.223 19.5123C103.223 19.5123 105.988 17.1671 108.257 17.1506C110.525 17.134 112.496 20.1919 112.496 20.1919C112.496 20.1919 115.701 18.5163 117.922 21.3233Z" fill="#EBEBEB"/>
<path d="M94.4859 8.28235L81.9458 8.37379C81.9458 8.37379 84.7567 4.88492 86.9581 4.86887C89.1595 4.85282 89.8174 7.16027 89.8174 7.16027C89.8174 7.16027 91.3767 6.06953 92.8198 6.2509C94.2629 6.43226 94.4859 8.28235 94.4859 8.28235Z" fill="#EBEBEB"/>
<path d="M27.3209 21.3857L2.89215 21.5638C2.89215 21.5638 6.24473 15.1556 9.82234 14.7363C13.4 14.3169 15.1083 19.4364 15.1083 19.4364C15.1083 19.4364 17.418 17.6042 19.2347 17.5909C21.0514 17.5777 22.4477 19.9656 22.4477 19.9656C22.4477 19.9656 26.0797 18.294 27.3209 21.3857Z" fill="#EBEBEB"/>
<path d="M52.6286 5.72802L36.1292 5.84841C36.1292 5.84841 38.9664 1.20587 42.0299 1.11636C45.0934 1.02685 46.7189 4.5791 46.7189 4.5791C46.7189 4.5791 51.5177 1.26539 52.6286 5.72802Z" fill="#EBEBEB"/>
<path d="M24.8895 38.3217L8.38727 38.442C8.38727 38.442 11.2245 33.7995 14.288 33.71C17.3515 33.6205 18.977 37.1728 18.977 37.1728C18.977 37.1728 23.7758 33.8687 24.8895 38.3217Z" fill="#EBEBEB"/>
<path d="M61.8354 17.6534L50.6963 17.7347C50.6963 17.7347 52.614 14.6019 54.6891 14.5387C56.7642 14.4756 57.8544 16.8764 57.8544 16.8764C57.8544 16.8764 61.0855 14.6384 61.8354 17.6534Z" fill="#EBEBEB"/>
<path d="M44.5825 31.14L33.4434 31.2212C33.4434 31.2212 35.3583 28.0885 37.4334 28.0253C39.5085 27.9622 40.5987 30.3653 40.5987 30.3653C40.5987 30.3653 43.8298 28.1274 44.5825 31.14Z" fill="#EBEBEB"/>
<path d="M57.5234 29.1019L54.63 29.123L54.6274 32.0531L57.5208 32.032L57.5234 29.1019Z" fill="#DBDBDB"/>
<path d="M59.3534 29.0924L57.5178 29.1058L57.5151 32.1469L59.3507 32.1335L59.3534 29.0924Z" fill="#C7C7C7"/>
<path d="M59.473 30.3892L57.6539 30.4025L57.6523 32.1454L59.4714 32.1321L59.473 30.3892Z" fill="#DBDBDB"/>
<path d="M60.6067 30.3833L59.4696 30.3916L59.4681 32.136L60.6052 32.1276L60.6067 30.3833Z" fill="#C7C7C7"/>
<path d="M58.2226 31.8452L53.5249 31.8795L53.5121 46.479L58.2098 46.4447L58.2226 31.8452Z" fill="#EBEBEB"/>
<path d="M55.5271 32.4849L54.0583 32.4956L54.0579 33.0098L55.5266 32.9991L55.5271 32.4849Z" fill="white"/>
<path d="M57.4046 32.4752L55.9358 32.486L55.9354 33.0002L57.4041 32.9895L57.4046 32.4752Z" fill="white"/>
<path d="M55.5281 33.362L54.0593 33.3727L54.0589 33.8869L55.5276 33.8762L55.5281 33.362Z" fill="white"/>
<path d="M57.4055 33.3522L55.9368 33.3629L55.9364 33.8771L57.4051 33.8664L57.4055 33.3522Z" fill="white"/>
<path d="M55.529 34.2388L54.0603 34.2495L54.0598 34.7637L55.5286 34.753L55.529 34.2388Z" fill="white"/>
<path d="M57.4065 34.229L55.9377 34.2397L55.9373 34.754L57.406 34.7433L57.4065 34.229Z" fill="white"/>
<path d="M55.53 35.116L54.0613 35.1267L54.0608 35.6409L55.5295 35.6302L55.53 35.116Z" fill="white"/>
<path d="M57.4074 35.1062L55.9387 35.1169L55.9383 35.6312L57.407 35.6204L57.4074 35.1062Z" fill="white"/>
<path d="M55.531 35.9929L54.0622 36.0037L54.0618 36.5179L55.5305 36.5072L55.531 35.9929Z" fill="white"/>
<path d="M57.4084 35.9831L55.9397 35.9938L55.9392 36.508L57.408 36.4973L57.4084 35.9831Z" fill="white"/>
<path d="M55.5319 36.87L54.0632 36.8807L54.0627 37.395L55.5314 37.3842L55.5319 36.87Z" fill="white"/>
<path d="M57.4094 36.8603L55.9406 36.871L55.9402 37.3852L57.4089 37.3745L57.4094 36.8603Z" fill="white"/>
<path d="M55.5329 37.7468L54.0641 37.7576L54.0637 38.2718L55.5324 38.2611L55.5329 37.7468Z" fill="white"/>
<path d="M57.4103 37.7372L55.9416 37.7479L55.9412 38.2622L57.4099 38.2514L57.4103 37.7372Z" fill="white"/>
<path d="M55.5338 38.6239L54.0651 38.6346L54.0646 39.1489L55.5334 39.1381L55.5338 38.6239Z" fill="white"/>
<path d="M57.4113 38.6142L55.9426 38.6249L55.9421 39.1391L57.4108 39.1284L57.4113 38.6142Z" fill="white"/>
<path d="M55.5348 39.5008L54.0661 39.5115L54.0656 40.0257L55.5343 40.015L55.5348 39.5008Z" fill="white"/>
<path d="M57.4123 39.4911L55.9435 39.5018L55.9431 40.0161L57.4118 40.0053L57.4123 39.4911Z" fill="white"/>
<path d="M55.5358 40.3781L54.067 40.3888L54.0666 40.903L55.5353 40.8923L55.5358 40.3781Z" fill="white"/>
<path d="M57.4132 40.3682L55.9445 40.3789L55.944 40.8931L57.4128 40.8824L57.4132 40.3682Z" fill="white"/>
<path d="M55.5367 41.2549L54.068 41.2656L54.0675 41.7799L55.5363 41.7691L55.5367 41.2549Z" fill="white"/>
<path d="M57.4142 41.245L55.9454 41.2557L55.945 41.77L57.4137 41.7592L57.4142 41.245Z" fill="white"/>
<path d="M55.5377 42.1319L54.069 42.1426L54.0685 42.6568L55.5372 42.6461L55.5377 42.1319Z" fill="white"/>
<path d="M57.4151 42.1221L55.9464 42.1328L55.9459 42.647L57.4147 42.6363L57.4151 42.1221Z" fill="white"/>
<path d="M55.5387 43.0088L54.0699 43.0195L54.0695 43.5338L55.5382 43.523L55.5387 43.0088Z" fill="white"/>
<path d="M57.4161 42.999L55.9474 43.0098L55.9469 43.524L57.4157 43.5133L57.4161 42.999Z" fill="white"/>
<path d="M55.5396 43.8859L54.0709 43.8966L54.0704 44.4108L55.5391 44.4001L55.5396 43.8859Z" fill="white"/>
<path d="M57.4171 43.876L55.9483 43.8867L55.9479 44.4009L57.4166 44.3902L57.4171 43.876Z" fill="white"/>
<path d="M62.0056 31.8257L58.1947 31.8535L58.182 46.4549L61.9928 46.4271L62.0056 31.8257Z" fill="#C7C7C7"/>
<path d="M60.4044 44.3749L61.6122 44.3661L61.6126 43.8513L60.4049 43.8601L60.4044 44.3749Z" fill="#EBEBEB"/>
<path d="M58.8609 44.383L60.0686 44.3741L60.0691 43.8594L58.8614 43.8682L58.8609 44.383Z" fill="#EBEBEB"/>
<path d="M60.4035 43.4981L61.6112 43.4893L61.6116 42.9745L60.4039 42.9833L60.4035 43.4981Z" fill="#EBEBEB"/>
<path d="M58.86 43.506L60.0677 43.4972L60.0682 42.9824L58.8604 42.9912L58.86 43.506Z" fill="#EBEBEB"/>
<path d="M60.4025 42.621L61.6102 42.6122L61.6107 42.0974L60.4029 42.1062L60.4025 42.621Z" fill="#EBEBEB"/>
<path d="M58.859 42.6292L60.0667 42.6204L60.0671 42.1056L58.8594 42.1144L58.859 42.6292Z" fill="#EBEBEB"/>
<path d="M60.4015 41.7441L61.6093 41.7352L61.6097 41.2205L60.402 41.2293L60.4015 41.7441Z" fill="#EBEBEB"/>
<path d="M58.858 41.7521L60.0658 41.7433L60.0662 41.2285L58.8585 41.2373L58.858 41.7521Z" fill="#EBEBEB"/>
<path d="M60.4006 40.8695L61.6083 40.8607L61.6087 40.346L60.401 40.3548L60.4006 40.8695Z" fill="#EBEBEB"/>
<path d="M58.857 40.8776L60.0648 40.8688L60.0652 40.354L58.8575 40.3628L58.857 40.8776Z" fill="#EBEBEB"/>
<path d="M60.3996 39.9926L61.6073 39.9838L61.6078 39.469L60.4001 39.4778L60.3996 39.9926Z" fill="#EBEBEB"/>
<path d="M58.8561 40.0008L60.0638 39.9919L60.0643 39.4772L58.8565 39.486L58.8561 40.0008Z" fill="#EBEBEB"/>
<path d="M60.3986 39.1156L61.6064 39.1068L61.6068 38.592L60.3991 38.6009L60.3986 39.1156Z" fill="#EBEBEB"/>
<path d="M58.8551 39.1236L60.0629 39.1147L60.0633 38.6L58.8556 38.6088L58.8551 39.1236Z" fill="#EBEBEB"/>
<path d="M60.3977 38.2386L61.6054 38.2297L61.6059 37.715L60.3981 37.7238L60.3977 38.2386Z" fill="#EBEBEB"/>
<path d="M58.8542 38.2464L60.0619 38.2375L60.0624 37.7228L58.8546 37.7316L58.8542 38.2464Z" fill="#EBEBEB"/>
<path d="M60.3967 37.3616L61.6044 37.3528L61.6049 36.838L60.3971 36.8468L60.3967 37.3616Z" fill="#EBEBEB"/>
<path d="M58.8532 37.3697L60.0609 37.3608L60.0614 36.8461L58.8537 36.8549L58.8532 37.3697Z" fill="#EBEBEB"/>
<path d="M60.3957 36.4845L61.6035 36.4757L61.6039 35.9609L60.3962 35.9698L60.3957 36.4845Z" fill="#EBEBEB"/>
<path d="M58.8522 36.4925L60.06 36.4836L60.0604 35.9689L58.8527 35.9777L58.8522 36.4925Z" fill="#EBEBEB"/>
<path d="M60.3948 35.6075L61.6025 35.5986L61.603 35.0839L60.3952 35.0927L60.3948 35.6075Z" fill="#EBEBEB"/>
<path d="M58.8513 35.6156L60.059 35.6068L60.0595 35.092L58.8517 35.1009L58.8513 35.6156Z" fill="#EBEBEB"/>
<path d="M60.3938 34.7306L61.6016 34.7218L61.602 34.207L60.3943 34.2159L60.3938 34.7306Z" fill="#EBEBEB"/>
<path d="M58.8503 34.7388L60.0581 34.73L60.0585 34.2152L58.8508 34.224L58.8503 34.7388Z" fill="#EBEBEB"/>
<path d="M60.3929 33.856L61.6006 33.8472L61.6011 33.3324L60.3933 33.3412L60.3929 33.856Z" fill="#EBEBEB"/>
<path d="M58.8494 33.864L60.0571 33.8552L60.0576 33.3405L58.8498 33.3493L58.8494 33.864Z" fill="#EBEBEB"/>
<path d="M60.3919 32.979L61.5996 32.9702L61.6001 32.4555L60.3924 32.4643L60.3919 32.979Z" fill="#EBEBEB"/>
<path d="M58.8484 32.9871L60.0561 32.9783L60.0566 32.4635L58.8488 32.4723L58.8484 32.9871Z" fill="#EBEBEB"/>
<path d="M91.8789 25.5646L87.2511 25.5983L87.233 46.3006L91.8608 46.2669L91.8789 25.5646Z" fill="#DBDBDB"/>
<path d="M88.8579 26.254L87.964 26.2605L87.9633 27.0493L88.8572 27.0427L88.8579 26.254Z" fill="#EBEBEB"/>
<path d="M89.9973 26.2482L89.1033 26.2548L89.1026 27.0435L89.9966 27.037L89.9973 26.2482Z" fill="#EBEBEB"/>
<path d="M88.8594 27.5948L87.9654 27.6013L87.9647 28.3901L88.8587 28.3835L88.8594 27.5948Z" fill="#EBEBEB"/>
<path d="M89.9988 27.589L89.1048 27.5956L89.1041 28.3843L89.9981 28.3778L89.9988 27.589Z" fill="#EBEBEB"/>
<path d="M88.8609 28.9383L87.9669 28.9448L87.9662 29.7336L88.8602 29.727L88.8609 28.9383Z" fill="#EBEBEB"/>
<path d="M90.0002 28.9322L89.1063 28.9387L89.1056 29.7275L89.9995 29.7209L90.0002 28.9322Z" fill="#EBEBEB"/>
<path d="M88.8623 30.2814L87.9684 30.288L87.9677 31.0767L88.8616 31.0702L88.8623 30.2814Z" fill="#EBEBEB"/>
<path d="M90.0017 30.2753L89.1077 30.2819L89.107 31.0706L90.001 31.0641L90.0017 30.2753Z" fill="#EBEBEB"/>
<path d="M88.8638 31.6246L87.9698 31.6311L87.9692 32.4199L88.8631 32.4133L88.8638 31.6246Z" fill="#EBEBEB"/>
<path d="M90.0032 31.6188L89.1092 31.6254L89.1085 32.4141L90.0025 32.4076L90.0032 31.6188Z" fill="#EBEBEB"/>
<path d="M88.8652 32.9658L87.9713 32.9723L87.9706 33.7611L88.8645 33.7545L88.8652 32.9658Z" fill="#EBEBEB"/>
<path d="M90.0047 32.9595L89.1107 32.9661L89.11 33.7548L90.004 33.7483L90.0047 32.9595Z" fill="#EBEBEB"/>
<path d="M88.8667 34.3089L87.9728 34.3154L87.9721 35.1042L88.866 35.0977L88.8667 34.3089Z" fill="#EBEBEB"/>
<path d="M90.0061 34.3028L89.1122 34.3093L89.1115 35.0981L90.0054 35.0915L90.0061 34.3028Z" fill="#EBEBEB"/>
<path d="M88.8682 35.6522L87.9743 35.6587L87.9736 36.4475L88.8675 36.4409L88.8682 35.6522Z" fill="#EBEBEB"/>
<path d="M90.0076 35.6463L89.1136 35.6528L89.113 36.4416L90.0069 36.4351L90.0076 35.6463Z" fill="#EBEBEB"/>
<path d="M88.8697 36.9954L87.9757 37.002L87.975 37.7907L88.869 37.7842L88.8697 36.9954Z" fill="#EBEBEB"/>
<path d="M90.0091 36.9896L89.1151 36.9961L89.1144 37.7849L90.0084 37.7783L90.0091 36.9896Z" fill="#EBEBEB"/>
<path d="M88.8712 38.3362L87.9772 38.3428L87.9765 39.1315L88.8705 39.125L88.8712 38.3362Z" fill="#EBEBEB"/>
<path d="M90.0106 38.3304L89.1166 38.3369L89.1159 39.1257L90.0099 39.1191L90.0106 38.3304Z" fill="#EBEBEB"/>
<path d="M88.8726 39.6794L87.9787 39.6859L87.978 40.4747L88.8719 40.4681L88.8726 39.6794Z" fill="#EBEBEB"/>
<path d="M90.0121 39.6735L89.1181 39.6801L89.1174 40.4688L90.0114 40.4623L90.0121 39.6735Z" fill="#EBEBEB"/>
<path d="M88.8741 41.0229L87.9801 41.0294L87.9795 41.8182L88.8734 41.8116L88.8741 41.0229Z" fill="#EBEBEB"/>
<path d="M90.0135 41.0168L89.1195 41.0233L89.1188 41.8121L90.0128 41.8055L90.0135 41.0168Z" fill="#EBEBEB"/>
<path d="M88.8756 42.3661L87.9816 42.3727L87.9809 43.1614L88.8749 43.1549L88.8756 42.3661Z" fill="#EBEBEB"/>
<path d="M90.015 42.3603L89.121 42.3668L89.1203 43.1556L90.0143 43.149L90.015 42.3603Z" fill="#EBEBEB"/>
<path d="M88.8771 43.7068L87.9831 43.7134L87.9824 44.5021L88.8764 44.4956L88.8771 43.7068Z" fill="#EBEBEB"/>
<path d="M90.2556 44.4923L91.1495 44.4857L91.1502 43.697L90.2562 43.7035L90.2556 44.4923Z" fill="#EBEBEB"/>
<path d="M90.2541 43.1489L91.1481 43.1423L91.1488 42.3536L90.2548 42.3601L90.2541 43.1489Z" fill="#EBEBEB"/>
<path d="M90.2526 41.8055L91.1466 41.799L91.1473 41.0102L90.2533 41.0167L90.2526 41.8055Z" fill="#EBEBEB"/>
<path d="M90.2511 40.4648L91.1451 40.4583L91.1458 39.6695L90.2518 39.676L90.2511 40.4648Z" fill="#EBEBEB"/>
<path d="M90.2497 39.1214L91.1436 39.1149L91.1443 38.3261L90.2504 38.3326L90.2497 39.1214Z" fill="#EBEBEB"/>
<path d="M90.2482 37.7781L91.1422 37.7716L91.1428 36.9828L90.2489 36.9894L90.2482 37.7781Z" fill="#EBEBEB"/>
<path d="M90.2467 36.435L91.1407 36.4285L91.1414 35.6397L90.2474 35.6462L90.2467 36.435Z" fill="#EBEBEB"/>
<path d="M90.2453 35.0939L91.1392 35.0874L91.1399 34.2986L90.2459 34.3052L90.2453 35.0939Z" fill="#EBEBEB"/>
<path d="M90.2438 33.7508L91.1377 33.7443L91.1384 32.9555L90.2445 32.962L90.2438 33.7508Z" fill="#EBEBEB"/>
<path d="M90.2423 32.4074L91.1363 32.4009L91.137 31.6121L90.243 31.6187L90.2423 32.4074Z" fill="#EBEBEB"/>
<path d="M90.2408 31.0643L91.1348 31.0577L91.1355 30.269L90.2415 30.2755L90.2408 31.0643Z" fill="#EBEBEB"/>
<path d="M90.2393 29.7233L91.1333 29.7168L91.134 28.928L90.24 28.9346L90.2393 29.7233Z" fill="#EBEBEB"/>
<path d="M90.2379 28.3802L91.1318 28.3737L91.1325 27.5849L90.2386 27.5914L90.2379 28.3802Z" fill="#EBEBEB"/>
<path d="M90.2364 27.0344L91.1304 27.0278L91.1311 26.2391L90.2371 26.2456L90.2364 27.0344Z" fill="#EBEBEB"/>
<path d="M90.0165 43.7009L89.1225 43.7074L89.1218 44.4962L90.0158 44.4896L90.0165 43.7009Z" fill="#EBEBEB"/>
<path d="M95.4962 25.5454L91.8395 25.572L91.8215 46.2764L95.4783 46.2498L95.4962 25.5454Z" fill="#A6A6A6"/>
<path d="M94.3669 44.4707L95.1065 44.4653L95.1072 43.6763L94.3676 43.6817L94.3669 44.4707Z" fill="#C7C7C7"/>
<path d="M93.424 44.4757L94.1636 44.4703L94.1643 43.6813L93.4247 43.6867L93.424 44.4757Z" fill="#C7C7C7"/>
<path d="M94.3654 43.1274L95.105 43.1219L95.1057 42.3329L94.3661 42.3383L94.3654 43.1274Z" fill="#C7C7C7"/>
<path d="M93.4225 43.1322L94.1621 43.1268L94.1628 42.3377L93.4232 42.3432L93.4225 43.1322Z" fill="#C7C7C7"/>
<path d="M94.364 41.7842L95.1036 41.7788L95.1043 40.9897L94.3647 40.9951L94.364 41.7842Z" fill="#C7C7C7"/>
<path d="M93.421 41.7891L94.1606 41.7837L94.1613 40.9946L93.4217 41L93.421 41.7891Z" fill="#C7C7C7"/>
<path d="M94.3625 40.4433L95.1021 40.4379L95.1028 39.6488L94.3632 39.6542L94.3625 40.4433Z" fill="#C7C7C7"/>
<path d="M93.4195 40.4483L94.1591 40.4429L94.1598 39.6538L93.4202 39.6592L93.4195 40.4483Z" fill="#C7C7C7"/>
<path d="M94.361 39.1L95.1006 39.0946L95.1013 38.3055L94.3617 38.3109L94.361 39.1Z" fill="#C7C7C7"/>
<path d="M93.4181 39.1049L94.1577 39.0995L94.1584 38.3104L93.4188 38.3158L93.4181 39.1049Z" fill="#C7C7C7"/>
<path d="M94.3595 37.7566L95.0991 37.7512L95.0998 36.9621L94.3602 36.9675L94.3595 37.7566Z" fill="#C7C7C7"/>
<path d="M93.4166 37.7615L94.1562 37.7561L94.1569 36.967L93.4173 36.9724L93.4166 37.7615Z" fill="#C7C7C7"/>
<path d="M94.3581 36.4136L95.0977 36.4082L95.0984 35.6191L94.3588 35.6245L94.3581 36.4136Z" fill="#C7C7C7"/>
<path d="M93.4151 36.4186L94.1547 36.4132L94.1554 35.6241L93.4158 35.6295L93.4151 36.4186Z" fill="#C7C7C7"/>
<path d="M94.3566 35.0727L95.0962 35.0673L95.0969 34.2782L94.3573 34.2836L94.3566 35.0727Z" fill="#C7C7C7"/>
<path d="M93.4136 35.0776L94.1532 35.0721L94.1539 34.2831L93.4143 34.2885L93.4136 35.0776Z" fill="#C7C7C7"/>
<path d="M94.3551 33.7294L95.0947 33.724L95.0954 32.9349L94.3558 32.9403L94.3551 33.7294Z" fill="#C7C7C7"/>
<path d="M93.4122 33.7342L94.1518 33.7288L94.1525 32.9397L93.4129 32.9451L93.4122 33.7342Z" fill="#C7C7C7"/>
<path d="M94.3536 32.3863L95.0932 32.3809L95.0939 31.5918L94.3543 31.5972L94.3536 32.3863Z" fill="#C7C7C7"/>
<path d="M93.4107 32.391L94.1503 32.3856L94.151 31.5965L93.4114 31.6019L93.4107 32.391Z" fill="#C7C7C7"/>
<path d="M94.3522 31.0429L95.0918 31.0375L95.0925 30.2484L94.3529 30.2538L94.3522 31.0429Z" fill="#C7C7C7"/>
<path d="M93.4093 31.0478L94.1488 31.0424L94.1495 30.2533L93.4099 30.2587L93.4093 31.0478Z" fill="#C7C7C7"/>
<path d="M94.3507 29.7019L95.0903 29.6965L95.091 28.9074L94.3514 28.9129L94.3507 29.7019Z" fill="#C7C7C7"/>
<path d="M93.4078 29.7067L94.1474 29.7013L94.1481 28.9122L93.4085 28.9176L93.4078 29.7067Z" fill="#C7C7C7"/>
<path d="M94.3492 28.3587L95.0888 28.3533L95.0895 27.5642L94.3499 27.5696L94.3492 28.3587Z" fill="#C7C7C7"/>
<path d="M93.4063 28.3634L94.1459 28.358L94.1466 27.5689L93.407 27.5744L93.4063 28.3634Z" fill="#C7C7C7"/>
<path d="M94.3477 27.0131L95.0873 27.0077L95.088 26.2186L94.3484 26.224L94.3477 27.0131Z" fill="#C7C7C7"/>
<path d="M93.2106 26.2314L92.471 26.2368L92.4703 27.0259L93.2099 27.0205L93.2106 26.2314Z" fill="#C7C7C7"/>
<path d="M93.2121 27.5721L92.4725 27.5775L92.4718 28.3666L93.2114 28.3612L93.2121 27.5721Z" fill="#C7C7C7"/>
<path d="M93.2135 28.9152L92.4739 28.9207L92.4732 29.7097L93.2128 29.7043L93.2135 28.9152Z" fill="#C7C7C7"/>
<path d="M93.215 30.2589L92.4754 30.2643L92.4747 31.0534L93.2143 31.048L93.215 30.2589Z" fill="#C7C7C7"/>
<path d="M93.2165 31.602L92.4769 31.6074L92.4762 32.3965L93.2158 32.3911L93.2165 31.602Z" fill="#C7C7C7"/>
<path d="M93.218 32.9428L92.4784 32.9482L92.4777 33.7373L93.2173 33.7319L93.218 32.9428Z" fill="#C7C7C7"/>
<path d="M93.2194 34.2863L92.4798 34.2917L92.4791 35.0808L93.2187 35.0754L93.2194 34.2863Z" fill="#C7C7C7"/>
<path d="M93.2209 35.6294L92.4813 35.6348L92.4806 36.4238L93.2202 36.4184L93.2209 35.6294Z" fill="#C7C7C7"/>
<path d="M93.2224 36.9726L92.4828 36.978L92.4821 37.7671L93.2217 37.7617L93.2224 36.9726Z" fill="#C7C7C7"/>
<path d="M93.2239 38.3133L92.4843 38.3187L92.4836 39.1078L93.2232 39.1024L93.2239 38.3133Z" fill="#C7C7C7"/>
<path d="M93.2253 39.6569L92.4857 39.6624L92.485 40.4514L93.2246 40.446L93.2253 39.6569Z" fill="#C7C7C7"/>
<path d="M93.2268 41.0001L92.4872 41.0055L92.4865 41.7946L93.2261 41.7892L93.2268 41.0001Z" fill="#C7C7C7"/>
<path d="M93.2282 42.3433L92.4886 42.3488L92.4879 43.1378L93.2275 43.1324L93.2282 42.3433Z" fill="#C7C7C7"/>
<path d="M93.2298 43.6843L92.4902 43.6897L92.4895 44.4788L93.2291 44.4734L93.2298 43.6843Z" fill="#C7C7C7"/>
<path d="M93.4048 27.018L94.1444 27.0126L94.1451 26.2235L93.4055 26.2289L93.4048 27.018Z" fill="#C7C7C7"/>
<path d="M65.9377 24.5839L60.4658 24.6238L60.4467 46.4405L65.9187 46.4006L65.9377 24.5839Z" fill="#EBEBEB"/>
<path d="M65.893 24.1056L60.3327 24.146L60.3323 24.6145L65.8927 24.5741L65.893 24.1056Z" fill="#C7C7C7"/>
<path d="M61.5447 25.3096L60.9577 25.3137L60.9425 46.4377L61.5295 46.4336L61.5447 25.3096Z" fill="white"/>
<path d="M62.5185 25.3046L61.9316 25.3087L61.9163 46.4327L62.5033 46.4286L62.5185 25.3046Z" fill="white"/>
<path d="M63.4923 25.2994L62.9054 25.3035L62.8901 46.4275L63.4771 46.4234L63.4923 25.2994Z" fill="white"/>
<path d="M64.4661 25.2944L63.8792 25.2985L63.864 46.4225L64.4509 46.4184L64.4661 25.2944Z" fill="white"/>
<path d="M65.44 25.2894L64.853 25.2935L64.8378 46.4175L65.4247 46.4133L65.44 25.2894Z" fill="white"/>
<path d="M61.5095 25.9138L60.9577 25.9178L60.9568 26.8596L61.5087 26.8556L61.5095 25.9138Z" fill="#EBEBEB"/>
<path d="M62.4834 25.9086L61.9315 25.9126L61.9307 26.8544L62.4825 26.8504L62.4834 25.9086Z" fill="#EBEBEB"/>
<path d="M63.4572 25.9036L62.9053 25.9076L62.9045 26.8494L63.4563 26.8454L63.4572 25.9036Z" fill="#EBEBEB"/>
<path d="M64.431 25.8984L63.8791 25.9025L63.8783 26.8443L64.4301 26.8402L64.431 25.8984Z" fill="#EBEBEB"/>
<path d="M65.4048 25.8933L64.8529 25.8973L64.8521 26.8391L65.404 26.8351L65.4048 25.8933Z" fill="#EBEBEB"/>
<path d="M61.5112 27.4477L60.9594 27.4518L60.9585 28.396L61.5104 28.392L61.5112 27.4477Z" fill="#EBEBEB"/>
<path d="M62.485 27.4427L61.9332 27.4468L61.9323 28.391L62.4842 28.387L62.485 27.4427Z" fill="#EBEBEB"/>
<path d="M63.4589 27.4379L62.907 27.4419L62.9062 28.3861L63.458 28.3821L63.4589 27.4379Z" fill="#EBEBEB"/>
<path d="M64.4327 27.4326L63.8808 27.4366L63.88 28.3809L64.4318 28.3768L64.4327 27.4326Z" fill="#EBEBEB"/>
<path d="M65.4065 27.4275L64.8546 27.4315L64.8538 28.3757L65.4056 28.3717L65.4065 27.4275Z" fill="#EBEBEB"/>
<path d="M61.5129 28.9821L60.9611 28.9861L60.9602 29.9279L61.5121 29.9239L61.5129 28.9821Z" fill="#EBEBEB"/>
<path d="M62.4867 28.977L61.9349 28.9811L61.934 29.9229L62.4859 29.9188L62.4867 28.977Z" fill="#EBEBEB"/>
<path d="M63.4605 28.9718L62.9087 28.9758L62.9078 29.9176L63.4597 29.9136L63.4605 28.9718Z" fill="#EBEBEB"/>
<path d="M64.4344 28.9668L63.8825 28.9708L63.8817 29.9126L64.4335 29.9086L64.4344 28.9668Z" fill="#EBEBEB"/>
<path d="M65.4082 28.9617L64.8563 28.9657L64.8555 29.9075L65.4073 29.9035L65.4082 28.9617Z" fill="#EBEBEB"/>
<path d="M61.5146 30.5138L60.9627 30.5178L60.9619 31.462L61.5138 31.458L61.5146 30.5138Z" fill="#EBEBEB"/>
<path d="M62.4884 30.5087L61.9365 30.5127L61.9357 31.4569L62.4876 31.4529L62.4884 30.5087Z" fill="#EBEBEB"/>
<path d="M63.4622 30.5035L62.9104 30.5076L62.9095 31.4518L63.4614 31.4478L63.4622 30.5035Z" fill="#EBEBEB"/>
<path d="M64.436 30.4985L63.8842 30.5026L63.8833 31.4468L64.4352 31.4427L64.436 30.4985Z" fill="#EBEBEB"/>
<path d="M65.4098 30.4932L64.858 30.4972L64.8571 31.4414L65.409 31.4374L65.4098 30.4932Z" fill="#EBEBEB"/>
<path d="M61.5163 32.0478L60.9644 32.0519L60.9636 32.9937L61.5154 32.9896L61.5163 32.0478Z" fill="#EBEBEB"/>
<path d="M62.4901 32.0428L61.9382 32.0469L61.9374 32.9887L62.4892 32.9846L62.4901 32.0428Z" fill="#EBEBEB"/>
<path d="M63.4639 32.0376L62.912 32.0416L62.9112 32.9834L63.4631 32.9794L63.4639 32.0376Z" fill="#EBEBEB"/>
<path d="M64.4377 32.0326L63.8858 32.0366L63.885 32.9784L64.4369 32.9744L64.4377 32.0326Z" fill="#EBEBEB"/>
<path d="M65.4115 32.0276L64.8596 32.0316L64.8588 32.9734L65.4107 32.9694L65.4115 32.0276Z" fill="#EBEBEB"/>
<path d="M61.518 33.5818L60.9661 33.5858L60.9653 34.53L61.5171 34.526L61.518 33.5818Z" fill="#EBEBEB"/>
<path d="M62.4918 33.5767L61.9399 33.5807L61.9391 34.5249L62.4909 34.5209L62.4918 33.5767Z" fill="#EBEBEB"/>
<path d="M63.4656 33.5719L62.9137 33.5759L62.9129 34.5201L63.4648 34.5161L63.4656 33.5719Z" fill="#EBEBEB"/>
<path d="M64.4394 33.5666L63.8875 33.5707L63.8867 34.5149L64.4386 34.5109L64.4394 33.5666Z" fill="#EBEBEB"/>
<path d="M65.4132 33.5615L64.8613 33.5656L64.8605 34.5098L65.4124 34.5057L65.4132 33.5615Z" fill="#EBEBEB"/>
<path d="M61.5196 35.1138L60.9678 35.1178L60.967 36.0596L61.5188 36.0556L61.5196 35.1138Z" fill="#EBEBEB"/>
<path d="M62.4934 35.1086L61.9416 35.1127L61.9408 36.0545L62.4926 36.0504L62.4934 35.1086Z" fill="#EBEBEB"/>
<path d="M63.4673 35.1036L62.9154 35.1077L62.9146 36.0495L63.4664 36.0454L63.4673 35.1036Z" fill="#EBEBEB"/>
<path d="M64.4411 35.0984L63.8892 35.1024L63.8884 36.0442L64.4403 36.0402L64.4411 35.0984Z" fill="#EBEBEB"/>
<path d="M65.4149 35.0934L64.863 35.0974L64.8622 36.0392L65.4141 36.0352L65.4149 35.0934Z" fill="#EBEBEB"/>
<path d="M61.5213 36.6479L60.9695 36.652L60.9686 37.5938L61.5205 37.5897L61.5213 36.6479Z" fill="#EBEBEB"/>
<path d="M62.4951 36.6427L61.9433 36.6467L61.9424 37.5885L62.4943 37.5845L62.4951 36.6427Z" fill="#EBEBEB"/>
<path d="M63.4689 36.6377L62.9171 36.6417L62.9162 37.5835L63.4681 37.5795L63.4689 36.6377Z" fill="#EBEBEB"/>
<path d="M64.4427 36.6327L63.8909 36.6367L63.8901 37.5785L64.4419 37.5745L64.4427 36.6327Z" fill="#EBEBEB"/>
<path d="M65.4166 36.6273L64.8647 36.6313L64.8639 37.5731L65.4157 37.5691L65.4166 36.6273Z" fill="#EBEBEB"/>
<path d="M61.523 38.1819L60.9712 38.1859L60.9703 39.1301L61.5222 39.1261L61.523 38.1819Z" fill="#EBEBEB"/>
<path d="M62.4968 38.1769L61.945 38.1809L61.9441 39.1251L62.496 39.1211L62.4968 38.1769Z" fill="#EBEBEB"/>
<path d="M63.4707 38.1716L62.9188 38.1757L62.918 39.1199L63.4698 39.1158L63.4707 38.1716Z" fill="#EBEBEB"/>
<path d="M64.4445 38.1666L63.8926 38.1707L63.8918 39.1149L64.4436 39.1108L64.4445 38.1666Z" fill="#EBEBEB"/>
<path d="M65.4183 38.1615L64.8664 38.1655L64.8656 39.1097L65.4175 39.1057L65.4183 38.1615Z" fill="#EBEBEB"/>
<path d="M61.5247 39.7137L60.9728 39.7178L60.972 40.6596L61.5239 40.6555L61.5247 39.7137Z" fill="#EBEBEB"/>
<path d="M62.4985 39.7085L61.9466 39.7125L61.9458 40.6543L62.4977 40.6503L62.4985 39.7085Z" fill="#EBEBEB"/>
<path d="M63.4723 39.7035L62.9204 39.7075L62.9196 40.6493L63.4715 40.6453L63.4723 39.7035Z" fill="#EBEBEB"/>
<path d="M64.4462 39.6984L63.8943 39.7024L63.8935 40.6442L64.4453 40.6402L64.4462 39.6984Z" fill="#EBEBEB"/>
<path d="M65.42 39.6932L64.8681 39.6973L64.8673 40.6391L65.4191 40.635L65.42 39.6932Z" fill="#EBEBEB"/>
<path d="M61.5264 41.2477L60.9745 41.2517L60.9737 42.1935L61.5255 42.1895L61.5264 41.2477Z" fill="#EBEBEB"/>
<path d="M62.5002 41.2424L61.9483 41.2465L61.9475 42.1883L62.4993 42.1842L62.5002 41.2424Z" fill="#EBEBEB"/>
<path d="M63.474 41.2375L62.9221 41.2416L62.9213 42.1834L63.4732 42.1793L63.474 41.2375Z" fill="#EBEBEB"/>
<path d="M64.4478 41.2324L63.8959 41.2365L63.8951 42.1782L64.447 42.1742L64.4478 41.2324Z" fill="#EBEBEB"/>
<path d="M65.4216 41.2274L64.8698 41.2314L64.8689 42.1732L65.4208 42.1692L65.4216 41.2274Z" fill="#EBEBEB"/>
<path d="M61.528 42.7795L60.9762 42.7836L60.9753 43.7254L61.5272 43.7213L61.528 42.7795Z" fill="#EBEBEB"/>
<path d="M62.5019 42.7743L61.95 42.7783L61.9492 43.7201L62.501 43.7161L62.5019 42.7743Z" fill="#EBEBEB"/>
<path d="M63.4757 42.7693L62.9238 42.7733L62.923 43.7151L63.4749 43.7111L63.4757 42.7693Z" fill="#EBEBEB"/>
<path d="M64.4495 42.7642L63.8976 42.7682L63.8968 43.71L64.4487 43.706L64.4495 42.7642Z" fill="#EBEBEB"/>
<path d="M65.4233 42.759L64.8714 42.7631L64.8706 43.7049L65.4225 43.7008L65.4233 42.759Z" fill="#EBEBEB"/>
<path d="M61.5297 44.3136L60.9779 44.3176L60.977 45.2594L61.5289 45.2554L61.5297 44.3136Z" fill="#EBEBEB"/>
<path d="M62.5036 44.3086L61.9517 44.3126L61.9509 45.2544L62.5027 45.2504L62.5036 44.3086Z" fill="#EBEBEB"/>
<path d="M63.4774 44.3033L62.9255 44.3074L62.9247 45.2492L63.4766 45.2451L63.4774 44.3033Z" fill="#EBEBEB"/>
<path d="M64.4512 44.2983L63.8993 44.3024L63.8985 45.2442L64.4504 45.2401L64.4512 44.2983Z" fill="#EBEBEB"/>
<path d="M65.425 44.2932L64.8731 44.2972L64.8723 45.239L65.4242 45.235L65.425 44.2932Z" fill="#EBEBEB"/>
<path d="M61.5307 45.8475L60.9796 45.8516L60.979 46.4379L61.5302 46.4339L61.5307 45.8475Z" fill="#EBEBEB"/>
<path d="M62.5045 45.8428L61.9534 45.8468L61.9529 46.4332L62.504 46.4292L62.5045 45.8428Z" fill="#EBEBEB"/>
<path d="M63.4784 45.8376L62.9272 45.8417L62.9267 46.4281L63.4778 46.424L63.4784 45.8376Z" fill="#EBEBEB"/>
<path d="M64.4522 45.8325L63.901 45.8365L63.9005 46.4229L64.4517 46.4189L64.4522 45.8325Z" fill="#EBEBEB"/>
<path d="M65.426 45.8273L64.8748 45.8313L64.8743 46.4177L65.4255 46.4136L65.426 45.8273Z" fill="#EBEBEB"/>
<path d="M69.4202 24.5658L65.8934 24.5914L65.8745 46.4123L69.4014 46.3866L69.4202 24.5658Z" fill="#DBDBDB"/>
<path d="M69.5301 24.0863L65.8921 24.1133L65.8917 24.5845L69.5297 24.5575L69.5301 24.0863Z" fill="#C7C7C7"/>
<path d="M66.9722 25.2813L66.3853 25.2854L66.3701 46.4094L66.957 46.4053L66.9722 25.2813Z" fill="#C7C7C7"/>
<path d="M67.9489 25.2762L67.3619 25.2803L67.3467 46.4043L67.9336 46.4002L67.9489 25.2762Z" fill="#C7C7C7"/>
<path d="M68.9227 25.271L68.3357 25.2751L68.3205 46.3991L68.9075 46.395L68.9227 25.271Z" fill="#C7C7C7"/>
<path d="M66.9371 25.8854L66.3852 25.8894L66.3844 26.8312L66.9362 26.8272L66.9371 25.8854Z" fill="#DBDBDB"/>
<path d="M67.9137 25.8804L67.3618 25.8844L67.361 26.8262L67.9128 26.8222L67.9137 25.8804Z" fill="#DBDBDB"/>
<path d="M68.8875 25.8751L68.3357 25.8792L68.3348 26.8209L68.8867 26.8169L68.8875 25.8751Z" fill="#DBDBDB"/>
<path d="M66.9388 27.4194L66.3869 27.4235L66.3861 28.3677L66.9379 28.3636L66.9388 27.4194Z" fill="#DBDBDB"/>
<path d="M67.9153 27.4144L67.3635 27.4185L67.3626 28.3627L67.9145 28.3586L67.9153 27.4144Z" fill="#DBDBDB"/>
<path d="M68.8892 27.4095L68.3373 27.4136L68.3365 28.3578L68.8884 28.3538L68.8892 27.4095Z" fill="#DBDBDB"/>
<path d="M66.9404 28.9537L66.3886 28.9578L66.3877 29.8996L66.9396 29.8955L66.9404 28.9537Z" fill="#DBDBDB"/>
<path d="M67.9171 28.9485L67.3652 28.9525L67.3644 29.8943L67.9162 29.8903L67.9171 28.9485Z" fill="#DBDBDB"/>
<path d="M68.8909 28.9435L68.339 28.9475L68.3382 29.8893L68.89 29.8853L68.8909 28.9435Z" fill="#DBDBDB"/>
<path d="M66.9421 30.4853L66.3903 30.4894L66.3894 31.4336L66.9413 31.4296L66.9421 30.4853Z" fill="#DBDBDB"/>
<path d="M67.9188 30.4802L67.3669 30.4843L67.366 31.4285L67.9179 31.4244L67.9188 30.4802Z" fill="#DBDBDB"/>
<path d="M68.8926 30.4751L68.3407 30.4791L68.3398 31.4233L68.8917 31.4193L68.8926 30.4751Z" fill="#DBDBDB"/>
<path d="M66.9438 32.0195L66.392 32.0236L66.3911 32.9654L66.943 32.9613L66.9438 32.0195Z" fill="#DBDBDB"/>
<path d="M67.9204 32.0144L67.3686 32.0184L67.3677 32.9602L67.9196 32.9562L67.9204 32.0144Z" fill="#DBDBDB"/>
<path d="M68.8943 32.0093L68.3424 32.0133L68.3416 32.9551L68.8934 32.9511L68.8943 32.0093Z" fill="#DBDBDB"/>
<path d="M66.9455 33.5536L66.3936 33.5576L66.3928 34.5018L66.9447 34.4978L66.9455 33.5536Z" fill="#DBDBDB"/>
<path d="M67.9221 33.5485L67.3703 33.5525L67.3694 34.4967L67.9213 34.4927L67.9221 33.5485Z" fill="#DBDBDB"/>
<path d="M68.8959 33.5432L68.3441 33.5472L68.3432 34.4915L68.8951 34.4874L68.8959 33.5432Z" fill="#DBDBDB"/>
<path d="M66.9472 35.0853L66.3953 35.0894L66.3945 36.0312L66.9463 36.0271L66.9472 35.0853Z" fill="#DBDBDB"/>
<path d="M67.9238 35.0803L67.3719 35.0844L67.3711 36.0262L67.923 36.0221L67.9238 35.0803Z" fill="#DBDBDB"/>
<path d="M68.8976 35.0752L68.3457 35.0792L68.3449 36.021L68.8968 36.017L68.8976 35.0752Z" fill="#DBDBDB"/>
<path d="M66.9489 36.6195L66.397 36.6235L66.3962 37.5653L66.948 37.5613L66.9489 36.6195Z" fill="#DBDBDB"/>
<path d="M67.9255 36.6143L67.3736 36.6183L67.3728 37.5601L67.9246 37.5561L67.9255 36.6143Z" fill="#DBDBDB"/>
<path d="M68.8993 36.6094L68.3474 36.6134L68.3466 37.5552L68.8985 37.5512L68.8993 36.6094Z" fill="#DBDBDB"/>
<path d="M66.9506 38.1536L66.3987 38.1576L66.3979 39.1018L66.9497 39.0978L66.9506 38.1536Z" fill="#DBDBDB"/>
<path d="M67.9272 38.1486L67.3753 38.1526L67.3745 39.0968L67.9264 39.0928L67.9272 38.1486Z" fill="#DBDBDB"/>
<path d="M68.901 38.1435L68.3491 38.1476L68.3483 39.0918L68.9002 39.0878L68.901 38.1435Z" fill="#DBDBDB"/>
<path d="M66.9522 39.6853L66.4003 39.6893L66.3995 40.6311L66.9514 40.6271L66.9522 39.6853Z" fill="#DBDBDB"/>
<path d="M67.9288 39.6802L67.377 39.6842L67.3761 40.626L67.928 40.622L67.9288 39.6802Z" fill="#DBDBDB"/>
<path d="M68.9027 39.6752L68.3508 39.6792L68.35 40.621L68.9018 40.617L68.9027 39.6752Z" fill="#DBDBDB"/>
<path d="M66.9539 41.2195L66.402 41.2235L66.4012 42.1653L66.9531 42.1613L66.9539 41.2195Z" fill="#DBDBDB"/>
<path d="M67.9305 41.2142L67.3786 41.2183L67.3778 42.1601L67.9297 42.156L67.9305 41.2142Z" fill="#DBDBDB"/>
<path d="M68.9043 41.2093L68.3525 41.2134L68.3516 42.1552L68.9035 42.1511L68.9043 41.2093Z" fill="#DBDBDB"/>
<path d="M66.9556 42.7511L66.4037 42.7551L66.4029 43.6969L66.9548 43.6929L66.9556 42.7511Z" fill="#DBDBDB"/>
<path d="M67.9322 42.746L67.3803 42.75L67.3795 43.6918L67.9314 43.6878L67.9322 42.746Z" fill="#DBDBDB"/>
<path d="M68.906 42.741L68.3541 42.745L68.3533 43.6868L68.9052 43.6828L68.906 42.741Z" fill="#DBDBDB"/>
<path d="M66.9573 44.2854L66.4054 44.2894L66.4046 45.2312L66.9564 45.2272L66.9573 44.2854Z" fill="#DBDBDB"/>
<path d="M67.9339 44.2801L67.382 44.2842L67.3812 45.226L67.9331 45.2219L67.9339 44.2801Z" fill="#DBDBDB"/>
<path d="M68.9077 44.2753L68.3559 44.2793L68.355 45.2211L68.9069 45.2171L68.9077 44.2753Z" fill="#DBDBDB"/>
<path d="M66.9583 45.8193L66.4071 45.8234L66.4066 46.4097L66.9577 46.4057L66.9583 45.8193Z" fill="#DBDBDB"/>
<path d="M67.9349 45.8145L67.3837 45.8185L67.3832 46.4049L67.9344 46.4008L67.9349 45.8145Z" fill="#DBDBDB"/>
<path d="M68.9087 45.8092L68.3575 45.8132L68.357 46.3996L68.9082 46.3956L68.9087 45.8092Z" fill="#DBDBDB"/>
<path d="M53.99 32.6671L48.5585 32.7068L48.5463 46.5026L53.9778 46.4629L53.99 32.6671Z" fill="#EBEBEB"/>
<path d="M53.9641 31.4979L49.3257 31.5317L49.3247 32.6948L53.9631 32.661L53.9641 31.4979Z" fill="#C7C7C7"/>
<path d="M53.4001 33.2814L49.1541 33.3124L49.1425 46.4995L53.3885 46.4685L53.4001 33.2814Z" fill="#DBDBDB"/>
<path d="M53.3764 34.5425L49.155 34.5729L49.1548 34.877L53.3762 34.8466L53.3764 34.5425Z" fill="white"/>
<path d="M53.3779 35.8326L49.1564 35.8629L49.1562 36.167L53.3776 36.1367L53.3779 35.8326Z" fill="white"/>
<path d="M53.3793 37.1253L49.1579 37.1556L49.1576 37.4598L53.379 37.4294L53.3793 37.1253Z" fill="white"/>
<path d="M53.3807 38.4153L49.1593 38.4457L49.159 38.7498L53.3804 38.7194L53.3807 38.4153Z" fill="white"/>
<path d="M53.3821 39.7079L49.1607 39.7383L49.1605 40.0424L53.3819 40.012L53.3821 39.7079Z" fill="white"/>
<path d="M53.3835 41.0005L49.1621 41.0309L49.1619 41.335L53.3833 41.3046L53.3835 41.0005Z" fill="white"/>
<path d="M53.385 42.2906L49.1636 42.3209L49.1633 42.625L53.3847 42.5947L53.385 42.2906Z" fill="white"/>
<path d="M53.3864 43.583L49.165 43.6134L49.1647 43.9175L53.3861 43.8872L53.3864 43.583Z" fill="white"/>
<path d="M53.3878 44.8731L49.1664 44.9034L49.1662 45.2076L53.3876 45.1772L53.3878 44.8731Z" fill="white"/>
<path d="M53.3892 46.1656L49.1678 46.1959L49.1676 46.5L53.389 46.4697L53.3892 46.1656Z" fill="white"/>
<path d="M57.38 32.6492L53.9664 32.6741L53.9543 46.4741L57.3679 46.4493L57.38 32.6492Z" fill="#DBDBDB"/>
<path d="M56.8463 31.4829L53.9647 31.5039L53.9636 32.6705L56.8452 32.6495L56.8463 31.4829Z" fill="#A6A6A6"/>
<path d="M57.0623 33.2621L54.4329 33.2812L54.4214 46.4717L57.0508 46.4526L57.0623 33.2621Z" fill="#C7C7C7"/>
<path d="M57.0388 34.5232L54.4338 34.5421L54.4336 34.8495L57.0385 34.8307L57.0388 34.5232Z" fill="white"/>
<path d="M57.0402 35.8134L54.4353 35.8323L54.435 36.1397L57.0399 36.1208L57.0402 35.8134Z" fill="white"/>
<path d="M57.0416 37.1061L54.4367 37.125L54.4364 37.4324L57.0413 37.4136L57.0416 37.1061Z" fill="white"/>
<path d="M57.043 38.3963L54.4381 38.4152L54.4378 38.7226L57.0428 38.7037L57.043 38.3963Z" fill="white"/>
<path d="M57.0444 39.6889L54.4395 39.7078L54.4392 40.0152L57.0442 39.9963L57.0444 39.6889Z" fill="white"/>
<path d="M57.0459 40.9811L54.4409 41L54.4407 41.3074L57.0456 41.2886L57.0459 40.9811Z" fill="white"/>
<path d="M57.0473 42.2713L54.4423 42.2902L54.4421 42.5976L57.047 42.5787L57.0473 42.2713Z" fill="white"/>
<path d="M57.0487 43.564L54.4438 43.5829L54.4435 43.8903L57.0484 43.8714L57.0487 43.564Z" fill="white"/>
<path d="M57.0501 44.8541L54.4452 44.8729L54.4449 45.1803L57.0499 45.1615L57.0501 44.8541Z" fill="white"/>
<path d="M57.0515 46.1465L54.4466 46.1654L54.4464 46.4728L57.0513 46.454L57.0515 46.1465Z" fill="white"/>
<path d="M84.6384 32.5071L79.2069 32.5468L79.1948 46.3426L84.6263 46.3029L84.6384 32.5071Z" fill="#EBEBEB"/>
<path d="M84.6125 31.3378L79.9741 31.3716L79.9731 32.5346L84.6115 32.5008L84.6125 31.3378Z" fill="#C7C7C7"/>
<path d="M84.0485 33.1214L79.8025 33.1523L79.7909 46.3394L84.0369 46.3084L84.0485 33.1214Z" fill="#DBDBDB"/>
<path d="M84.0249 34.3824L79.8035 34.4127L79.8032 34.7168L84.0246 34.6865L84.0249 34.3824Z" fill="white"/>
<path d="M84.0263 35.6725L79.8049 35.7029L79.8046 36.007L84.026 35.9766L84.0263 35.6725Z" fill="white"/>
<path d="M84.0277 36.9651L79.8063 36.9955L79.806 37.2996L84.0274 37.2692L84.0277 36.9651Z" fill="white"/>
<path d="M84.0291 38.2552L79.8077 38.2855L79.8074 38.5896L84.0288 38.5593L84.0291 38.2552Z" fill="white"/>
<path d="M84.0305 39.5479L79.8091 39.5782L79.8089 39.8824L84.0303 39.852L84.0305 39.5479Z" fill="white"/>
<path d="M84.0319 40.8404L79.8105 40.8707L79.8103 41.1748L84.0317 41.1445L84.0319 40.8404Z" fill="white"/>
<path d="M84.0334 42.1304L79.812 42.1608L79.8117 42.4649L84.0331 42.4345L84.0334 42.1304Z" fill="white"/>
<path d="M84.0348 43.4228L79.8134 43.4531L79.8131 43.7572L84.0345 43.7269L84.0348 43.4228Z" fill="white"/>
<path d="M84.0362 44.713L79.8148 44.7434L79.8145 45.0475L84.0359 45.0172L84.0362 44.713Z" fill="white"/>
<path d="M84.0376 46.0057L79.8162 46.036L79.816 46.3401L84.0374 46.3098L84.0376 46.0057Z" fill="white"/>
<path d="M88.0284 32.4894L84.6148 32.5143L84.6027 46.3144L88.0164 46.2895L88.0284 32.4894Z" fill="#DBDBDB"/>
<path d="M87.4947 31.3226L84.6131 31.3436L84.612 32.5103L87.4936 32.4892L87.4947 31.3226Z" fill="#A6A6A6"/>
<path d="M87.7107 33.1021L85.0813 33.1212L85.0699 46.3117L87.6993 46.2926L87.7107 33.1021Z" fill="#C7C7C7"/>
<path d="M87.6872 34.3635L85.0822 34.3823L85.082 34.6898L87.6869 34.6709L87.6872 34.3635Z" fill="white"/>
<path d="M87.6886 35.6535L85.0837 35.6724L85.0834 35.9798L87.6883 35.9609L87.6886 35.6535Z" fill="white"/>
<path d="M87.69 36.9461L85.0851 36.965L85.0849 37.2724L87.6898 37.2535L87.69 36.9461Z" fill="white"/>
<path d="M87.6914 38.2361L85.0865 38.255L85.0862 38.5624L87.6912 38.5436L87.6914 38.2361Z" fill="white"/>
<path d="M87.6928 39.5287L85.0879 39.5476L85.0876 39.855L87.6926 39.8362L87.6928 39.5287Z" fill="white"/>
<path d="M87.6943 40.8212L85.0894 40.8401L85.0891 41.1475L87.694 41.1286L87.6943 40.8212Z" fill="white"/>
<path d="M87.6957 42.1113L85.0908 42.1301L85.0905 42.4375L87.6954 42.4187L87.6957 42.1113Z" fill="white"/>
<path d="M87.6971 43.4037L85.0922 43.4226L85.0919 43.73L87.6968 43.7112L87.6971 43.4037Z" fill="white"/>
<path d="M87.6985 44.6941L85.0936 44.713L85.0933 45.0204L87.6983 45.0016L87.6985 44.6941Z" fill="white"/>
<path d="M87.7 45.9865L85.095 46.0054L85.0948 46.3128L87.6997 46.2939L87.7 45.9865Z" fill="white"/>
<path d="M69.8721 31.5136L64.9774 31.5493L64.9644 46.419L69.8591 46.3832L69.8721 31.5136Z" fill="#DBDBDB"/>
<path d="M66.6067 32.345L65.744 32.3513L65.7435 32.9274L66.6062 32.9211L66.6067 32.345Z" fill="#C7C7C7"/>
<path d="M66.6081 33.5747L65.7454 33.5811L65.7449 34.1571L66.6076 34.1508L66.6081 33.5747Z" fill="#C7C7C7"/>
<path d="M66.6094 34.8066L65.7467 34.8129L65.7462 35.3889L66.6089 35.3826L66.6094 34.8066Z" fill="#C7C7C7"/>
<path d="M66.6107 36.0389L65.7481 36.0452L65.7476 36.6212L66.6102 36.6149L66.6107 36.0389Z" fill="#C7C7C7"/>
<path d="M66.6121 37.271L65.7494 37.2773L65.7489 37.8534L66.6116 37.8471L66.6121 37.271Z" fill="#C7C7C7"/>
<path d="M66.6134 38.5008L65.7508 38.5071L65.7503 39.0831L66.6129 39.0768L66.6134 38.5008Z" fill="#C7C7C7"/>
<path d="M66.6148 39.733L65.7521 39.7393L65.7516 40.3153L66.6143 40.309L66.6148 39.733Z" fill="#C7C7C7"/>
<path d="M67.8471 32.3384L66.9844 32.3447L66.9839 32.9208L67.8466 32.9145L67.8471 32.3384Z" fill="#C7C7C7"/>
<path d="M67.8485 33.568L66.9858 33.5743L66.9853 34.1504L67.848 34.1441L67.8485 33.568Z" fill="#C7C7C7"/>
<path d="M67.8498 34.8003L66.9871 34.8066L66.9866 35.3827L67.8493 35.3764L67.8498 34.8003Z" fill="#C7C7C7"/>
<path d="M67.8512 36.0325L66.9885 36.0388L66.988 36.6149L67.8506 36.6086L67.8512 36.0325Z" fill="#C7C7C7"/>
<path d="M67.8525 37.2646L66.9898 37.2709L66.9893 37.8469L67.852 37.8406L67.8525 37.2646Z" fill="#C7C7C7"/>
<path d="M67.8538 38.4944L66.9912 38.5007L66.9907 39.0768L67.8533 39.0705L67.8538 38.4944Z" fill="#C7C7C7"/>
<path d="M67.8552 39.7265L66.9925 39.7328L66.992 40.3088L67.8547 40.3025L67.8552 39.7265Z" fill="#C7C7C7"/>
<path d="M69.0819 32.3318L68.2192 32.3381L68.2187 32.9142L69.0814 32.9079L69.0819 32.3318Z" fill="#C7C7C7"/>
<path d="M69.0833 33.5618L68.2206 33.5681L68.2201 34.1442L69.0828 34.1379L69.0833 33.5618Z" fill="#C7C7C7"/>
<path d="M69.0846 34.7939L68.2219 34.8002L68.2214 35.3762L69.0841 35.3699L69.0846 34.7939Z" fill="#C7C7C7"/>
<path d="M69.086 36.026L68.2233 36.0323L68.2228 36.6084L69.0855 36.6021L69.086 36.026Z" fill="#C7C7C7"/>
<path d="M69.0873 37.2582L68.2247 37.2645L68.2241 37.8406L69.0868 37.8343L69.0873 37.2582Z" fill="#C7C7C7"/>
<path d="M69.0887 38.488L68.226 38.4943L68.2255 39.0703L69.0881 39.064L69.0887 38.488Z" fill="#C7C7C7"/>
<path d="M69.09 39.72L68.2274 39.7263L68.2268 40.3024L69.0895 40.2961L69.09 39.72Z" fill="#C7C7C7"/>
<path d="M66.6161 40.9649L65.7535 40.9712L65.753 41.5472L66.6156 41.5409L66.6161 40.9649Z" fill="#C7C7C7"/>
<path d="M67.8566 40.9587L66.9939 40.965L66.9934 41.541L67.8561 41.5347L67.8566 40.9587Z" fill="#C7C7C7"/>
<path d="M69.0914 40.9521L68.2287 40.9584L68.2282 41.5344L69.0909 41.5281L69.0914 40.9521Z" fill="#C7C7C7"/>
<path d="M66.6175 42.1949L65.7548 42.2012L65.7543 42.7772L66.617 42.7709L66.6175 42.1949Z" fill="#C7C7C7"/>
<path d="M67.8579 42.1884L66.9953 42.1947L66.9947 42.7708L67.8574 42.7645L67.8579 42.1884Z" fill="#C7C7C7"/>
<path d="M69.0927 42.1819L68.23 42.1882L68.2295 42.7643L69.0922 42.758L69.0927 42.1819Z" fill="#C7C7C7"/>
<path d="M66.6188 43.427L65.7562 43.4333L65.7557 44.0094L66.6183 44.0031L66.6188 43.427Z" fill="#C7C7C7"/>
<path d="M67.8593 43.4207L66.9966 43.427L66.9961 44.0031L67.8587 43.9968L67.8593 43.4207Z" fill="#C7C7C7"/>
<path d="M69.0941 43.414L68.2314 43.4203L68.2309 43.9963L69.0936 43.99L69.0941 43.414Z" fill="#C7C7C7"/>
<path d="M66.6202 44.659L65.7576 44.6653L65.757 45.2413L66.6197 45.235L66.6202 44.659Z" fill="#C7C7C7"/>
<path d="M67.8606 44.6526L66.998 44.6589L66.9974 45.235L67.8601 45.2287L67.8606 44.6526Z" fill="#C7C7C7"/>
<path d="M69.0954 44.6462L68.2328 44.6525L68.2323 45.2285L69.0949 45.2222L69.0954 44.6462Z" fill="#C7C7C7"/>
<path d="M73.2874 31.4961L69.8437 31.5212L69.8307 46.3939L73.2744 46.3688L73.2874 31.4961Z" fill="#A6A6A6"/>
<path d="M72.2146 40.1892L72.9173 40.1841L72.9178 39.6077L72.2151 39.6128L72.2146 40.1892Z" fill="#C7C7C7"/>
<path d="M72.2132 38.9573L72.916 38.9521L72.9165 38.3758L72.2138 38.3809L72.2132 38.9573Z" fill="#C7C7C7"/>
<path d="M72.2119 37.7251L72.9146 37.72L72.9151 37.1436L72.2124 37.1487L72.2119 37.7251Z" fill="#C7C7C7"/>
<path d="M72.2105 36.4928L72.9133 36.4877L72.9138 35.9113L72.2111 35.9164L72.2105 36.4928Z" fill="#C7C7C7"/>
<path d="M72.2092 35.2632L72.9119 35.2581L72.9124 34.6817L72.2097 34.6868L72.2092 35.2632Z" fill="#C7C7C7"/>
<path d="M72.2078 34.0311L72.9105 34.026L72.911 33.4496L72.2083 33.4547L72.2078 34.0311Z" fill="#C7C7C7"/>
<path d="M72.2065 32.7988L72.9092 32.7937L72.9097 32.2173L72.207 32.2224L72.2065 32.7988Z" fill="#C7C7C7"/>
<path d="M71.2071 40.1945L71.9098 40.1893L71.9103 39.6129L71.2076 39.6181L71.2071 40.1945Z" fill="#C7C7C7"/>
<path d="M71.2058 38.9625L71.9085 38.9574L71.909 38.381L71.2063 38.3861L71.2058 38.9625Z" fill="#C7C7C7"/>
<path d="M71.2044 37.7304L71.9071 37.7252L71.9076 37.1488L71.2049 37.154L71.2044 37.7304Z" fill="#C7C7C7"/>
<path d="M71.2031 36.4983L71.9058 36.4932L71.9063 35.9168L71.2036 35.9219L71.2031 36.4983Z" fill="#C7C7C7"/>
<path d="M71.2017 35.2684L71.9044 35.2633L71.9049 34.6869L71.2022 34.692L71.2017 35.2684Z" fill="#C7C7C7"/>
<path d="M71.2003 34.0365L71.903 34.0314L71.9035 33.455L71.2008 33.4601L71.2003 34.0365Z" fill="#C7C7C7"/>
<path d="M71.199 32.8041L71.9017 32.799L71.9022 32.2226L71.1995 32.2277L71.199 32.8041Z" fill="#C7C7C7"/>
<path d="M70.2024 40.1997L70.9051 40.1946L70.9056 39.6182L70.2029 39.6233L70.2024 40.1997Z" fill="#C7C7C7"/>
<path d="M70.2011 38.9678L70.9038 38.9626L70.9043 38.3863L70.2016 38.3914L70.2011 38.9678Z" fill="#C7C7C7"/>
<path d="M72.2159 41.4192L72.9187 41.4141L72.9192 40.8377L72.2165 40.8428L72.2159 41.4192Z" fill="#C7C7C7"/>
<path d="M71.2084 41.4242L71.9111 41.4191L71.9117 40.8427L71.209 40.8478L71.2084 41.4242Z" fill="#C7C7C7"/>
<path d="M70.2038 41.4297L70.9065 41.4246L70.907 40.8482L70.2043 40.8533L70.2038 41.4297Z" fill="#C7C7C7"/>
<path d="M72.2173 42.6511L72.92 42.646L72.9205 42.0696L72.2178 42.0747L72.2173 42.6511Z" fill="#C7C7C7"/>
<path d="M71.2098 42.6565L71.9125 42.6514L71.913 42.075L71.2103 42.0801L71.2098 42.6565Z" fill="#C7C7C7"/>
<path d="M70.2051 42.6616L70.9078 42.6565L70.9083 42.0801L70.2056 42.0852L70.2051 42.6616Z" fill="#C7C7C7"/>
<path d="M72.2187 43.8833L72.9214 43.8782L72.9219 43.3018L72.2192 43.3069L72.2187 43.8833Z" fill="#C7C7C7"/>
<path d="M71.2112 43.8886L71.9139 43.8834L71.9144 43.307L71.2117 43.3122L71.2112 43.8886Z" fill="#C7C7C7"/>
<path d="M70.2065 43.8939L70.9092 43.8888L70.9097 43.3124L70.207 43.3175L70.2065 43.8939Z" fill="#C7C7C7"/>
<path d="M72.22 45.113L72.9227 45.1079L72.9232 44.5315L72.2205 44.5367L72.22 45.113Z" fill="#C7C7C7"/>
<path d="M71.2125 45.1184L71.9152 45.1133L71.9157 44.5369L71.213 44.542L71.2125 45.1184Z" fill="#C7C7C7"/>
<path d="M70.2078 45.1235L70.9105 45.1184L70.911 44.542L70.2083 44.5472L70.2078 45.1235Z" fill="#C7C7C7"/>
<path d="M70.1997 37.7355L70.9024 37.7303L70.9029 37.154L70.2002 37.1591L70.1997 37.7355Z" fill="#C7C7C7"/>
<path d="M70.1984 36.5036L70.9011 36.4984L70.9016 35.922L70.1989 35.9272L70.1984 36.5036Z" fill="#C7C7C7"/>
<path d="M70.197 35.2736L70.8997 35.2684L70.9002 34.692L70.1975 34.6972L70.197 35.2736Z" fill="#C7C7C7"/>
<path d="M70.1957 34.0416L70.8984 34.0365L70.8989 33.4601L70.1962 33.4652L70.1957 34.0416Z" fill="#C7C7C7"/>
<path d="M70.1943 32.8093L70.897 32.8042L70.8975 32.2278L70.1948 32.2329L70.1943 32.8093Z" fill="#C7C7C7"/>
<path d="M109.119 31.3089L104.225 31.3446L104.212 46.2142L109.106 46.1785L109.119 31.3089Z" fill="#DBDBDB"/>
<path d="M105.854 32.1401L104.991 32.1464L104.991 32.7224L105.853 32.7161L105.854 32.1401Z" fill="#C7C7C7"/>
<path d="M105.855 33.3699L104.993 33.3762L104.992 33.9523L105.855 33.946L105.855 33.3699Z" fill="#C7C7C7"/>
<path d="M105.857 34.602L104.994 34.6083L104.993 35.1843L105.856 35.178L105.857 34.602Z" fill="#C7C7C7"/>
<path d="M105.858 35.834L104.995 35.8403L104.995 36.4164L105.857 36.4101L105.858 35.834Z" fill="#C7C7C7"/>
<path d="M105.859 37.0662L104.997 37.0725L104.996 37.6486L105.859 37.6423L105.859 37.0662Z" fill="#C7C7C7"/>
<path d="M105.861 38.2958L104.998 38.3021L104.997 38.8782L105.86 38.8719L105.861 38.2958Z" fill="#C7C7C7"/>
<path d="M105.862 39.5281L104.999 39.5344L104.999 40.1105L105.861 40.1042L105.862 39.5281Z" fill="#C7C7C7"/>
<path d="M107.091 32.1335L106.229 32.1398L106.228 32.7158L107.091 32.7095L107.091 32.1335Z" fill="#C7C7C7"/>
<path d="M107.093 33.3633L106.23 33.3696L106.23 33.9457L107.092 33.9394L107.093 33.3633Z" fill="#C7C7C7"/>
<path d="M107.094 34.5954L106.231 34.6017L106.231 35.1777L107.094 35.1714L107.094 34.5954Z" fill="#C7C7C7"/>
<path d="M107.095 35.8276L106.233 35.8339L106.232 36.4099L107.095 36.4036L107.095 35.8276Z" fill="#C7C7C7"/>
<path d="M107.097 37.0596L106.234 37.0659L106.234 37.642L107.096 37.6357L107.097 37.0596Z" fill="#C7C7C7"/>
<path d="M107.098 38.2895L106.236 38.2958L106.235 38.8718L107.098 38.8655L107.098 38.2895Z" fill="#C7C7C7"/>
<path d="M107.1 39.5215L106.237 39.5278L106.236 40.1039L107.099 40.0976L107.1 39.5215Z" fill="#C7C7C7"/>
<path d="M108.329 32.1271L107.466 32.1334L107.466 32.7095L108.329 32.7032L108.329 32.1271Z" fill="#C7C7C7"/>
<path d="M108.33 33.3569L107.468 33.3632L107.467 33.9392L108.33 33.9329L108.33 33.3569Z" fill="#C7C7C7"/>
<path d="M108.332 34.5888L107.469 34.5951L107.469 35.1711L108.331 35.1648L108.332 34.5888Z" fill="#C7C7C7"/>
<path d="M108.333 35.821L107.47 35.8273L107.47 36.4033L108.333 36.397L108.333 35.821Z" fill="#C7C7C7"/>
<path d="M108.334 37.0531L107.472 37.0594L107.471 37.6355L108.334 37.6292L108.334 37.0531Z" fill="#C7C7C7"/>
<path d="M108.336 38.283L107.473 38.2893L107.473 38.8654L108.335 38.8591L108.336 38.283Z" fill="#C7C7C7"/>
<path d="M108.337 39.5151L107.474 39.5214L107.474 40.0974L108.337 40.0911L108.337 39.5151Z" fill="#C7C7C7"/>
<path d="M105.863 40.7603L105.001 40.7666L105 41.3427L105.863 41.3364L105.863 40.7603Z" fill="#C7C7C7"/>
<path d="M107.101 40.7536L106.238 40.7599L106.238 41.3359L107.1 41.3296L107.101 40.7536Z" fill="#C7C7C7"/>
<path d="M108.339 40.7471L107.476 40.7534L107.475 41.3295L108.338 41.3232L108.339 40.7471Z" fill="#C7C7C7"/>
<path d="M105.865 41.9899L105.002 41.9962L105.001 42.5723L105.864 42.566L105.865 41.9899Z" fill="#C7C7C7"/>
<path d="M107.102 41.9833L106.24 41.9896L106.239 42.5657L107.102 42.5594L107.102 41.9833Z" fill="#C7C7C7"/>
<path d="M108.34 41.9768L107.477 41.9832L107.477 42.5592L108.339 42.5529L108.34 41.9768Z" fill="#C7C7C7"/>
<path d="M105.866 43.222L105.003 43.2283L105.003 43.8043L105.865 43.798L105.866 43.222Z" fill="#C7C7C7"/>
<path d="M107.104 43.2156L106.241 43.2219L106.24 43.798L107.103 43.7917L107.104 43.2156Z" fill="#C7C7C7"/>
<path d="M108.341 43.2091L107.479 43.2155L107.478 43.7915L108.341 43.7852L108.341 43.2091Z" fill="#C7C7C7"/>
<path d="M105.867 44.454L105.005 44.4603L105.004 45.0364L105.867 45.0301L105.867 44.454Z" fill="#C7C7C7"/>
<path d="M107.105 44.4478L106.242 44.4541L106.242 45.0302L107.104 45.0239L107.105 44.4478Z" fill="#C7C7C7"/>
<path d="M108.343 44.4412L107.48 44.4475L107.479 45.0236L108.342 45.0173L108.343 44.4412Z" fill="#C7C7C7"/>
<path d="M112.535 31.2911L109.091 31.3162L109.078 46.1889L112.522 46.1638L112.535 31.2911Z" fill="#A6A6A6"/>
<path d="M111.465 39.9844L112.167 39.9792L112.168 39.4029L111.465 39.408L111.465 39.9844Z" fill="#C7C7C7"/>
<path d="M111.463 38.7523L112.166 38.7472L112.166 38.1708L111.464 38.1759L111.463 38.7523Z" fill="#C7C7C7"/>
<path d="M111.462 37.52L112.165 37.5149L112.165 36.9385L111.462 36.9436L111.462 37.52Z" fill="#C7C7C7"/>
<path d="M111.46 36.2877L112.163 36.2826L112.164 35.7062L111.461 35.7113L111.46 36.2877Z" fill="#C7C7C7"/>
<path d="M111.459 35.0582L112.162 35.0531L112.162 34.4767L111.46 34.4818L111.459 35.0582Z" fill="#C7C7C7"/>
<path d="M111.458 33.8262L112.16 33.821L112.161 33.2447L111.458 33.2498L111.458 33.8262Z" fill="#C7C7C7"/>
<path d="M111.456 32.5941L112.159 32.589L112.16 32.0126L111.457 32.0177L111.456 32.5941Z" fill="#C7C7C7"/>
<path d="M110.454 39.9894L111.157 39.9843L111.157 39.4079L110.455 39.413L110.454 39.9894Z" fill="#C7C7C7"/>
<path d="M110.453 38.7576L111.156 38.7524L111.156 38.1761L110.453 38.1812L110.453 38.7576Z" fill="#C7C7C7"/>
<path d="M110.452 37.5253L111.154 37.5201L111.155 36.9438L110.452 36.9489L110.452 37.5253Z" fill="#C7C7C7"/>
<path d="M110.45 36.2931L111.153 36.288L111.153 35.7116L110.451 35.7167L110.45 36.2931Z" fill="#C7C7C7"/>
<path d="M110.449 35.0634L111.152 35.0582L111.152 34.4818L110.449 34.487L110.449 35.0634Z" fill="#C7C7C7"/>
<path d="M110.448 33.8316L111.15 33.8264L111.151 33.25L110.448 33.2552L110.448 33.8316Z" fill="#C7C7C7"/>
<path d="M110.446 32.5993L111.149 32.5941L111.149 32.0177L110.447 32.0229L110.446 32.5993Z" fill="#C7C7C7"/>
<path d="M109.447 39.9949L110.149 39.9897L110.15 39.4134L109.447 39.4185L109.447 39.9949Z" fill="#C7C7C7"/>
<path d="M109.445 38.7627L110.148 38.7576L110.149 38.1812L109.446 38.1863L109.445 38.7627Z" fill="#C7C7C7"/>
<path d="M111.466 41.2141L112.169 41.209L112.169 40.6326L111.466 40.6377L111.466 41.2141Z" fill="#C7C7C7"/>
<path d="M110.456 41.2194L111.158 41.2142L111.159 40.6378L110.456 40.643L110.456 41.2194Z" fill="#C7C7C7"/>
<path d="M109.448 41.2245L110.151 41.2194L110.151 40.643L109.449 40.6481L109.448 41.2245Z" fill="#C7C7C7"/>
<path d="M111.467 42.4461L112.17 42.4409L112.17 41.8645L111.468 41.8697L111.467 42.4461Z" fill="#C7C7C7"/>
<path d="M110.457 42.4513L111.16 42.4462L111.16 41.8698L110.457 41.8749L110.457 42.4513Z" fill="#C7C7C7"/>
<path d="M109.449 42.4568L110.152 42.4517L110.153 41.8753L109.45 41.8804L109.449 42.4568Z" fill="#C7C7C7"/>
<path d="M111.469 43.6782L112.171 43.6731L112.172 43.0967L111.469 43.1018L111.469 43.6782Z" fill="#C7C7C7"/>
<path d="M110.458 43.6837L111.161 43.6786L111.162 43.1022L110.459 43.1073L110.458 43.6837Z" fill="#C7C7C7"/>
<path d="M109.451 43.689L110.154 43.6838L110.154 43.1074L109.451 43.1126L109.451 43.689Z" fill="#C7C7C7"/>
<path d="M111.47 44.9081L112.173 44.903L112.173 44.3266L111.47 44.3317L111.47 44.9081Z" fill="#C7C7C7"/>
<path d="M110.46 44.9133L111.162 44.9082L111.163 44.3318L110.46 44.337L110.46 44.9133Z" fill="#C7C7C7"/>
<path d="M109.452 44.9187L110.155 44.9136L110.155 44.3372L109.453 44.3423L109.452 44.9187Z" fill="#C7C7C7"/>
<path d="M109.444 37.5307L110.147 37.5255L110.147 36.9491L109.445 36.9543L109.444 37.5307Z" fill="#C7C7C7"/>
<path d="M109.443 36.2985L110.145 36.2933L110.146 35.7169L109.443 35.7221L109.443 36.2985Z" fill="#C7C7C7"/>
<path d="M109.441 35.0687L110.144 35.0636L110.145 34.4872L109.442 34.4923L109.441 35.0687Z" fill="#C7C7C7"/>
<path d="M109.44 33.8366L110.143 33.8314L110.143 33.255L109.441 33.2602L109.44 33.8366Z" fill="#C7C7C7"/>
<path d="M109.439 32.6045L110.141 32.5994L110.142 32.023L109.439 32.0281L109.439 32.6045Z" fill="#C7C7C7"/>
<path d="M98.8697 28.8858L95.9763 28.907L95.9737 31.8371L98.8672 31.8159L98.8697 28.8858Z" fill="#DBDBDB"/>
<path d="M100.7 28.8764L98.8641 28.8898L98.8614 31.9308L100.697 31.9174L100.7 28.8764Z" fill="#C7C7C7"/>
<path d="M100.819 30.1732L99.0002 30.1865L98.9987 31.9295L100.818 31.9162L100.819 30.1732Z" fill="#DBDBDB"/>
<path d="M101.953 30.1672L100.816 30.1755L100.814 31.9199L101.951 31.9116L101.953 30.1672Z" fill="#C7C7C7"/>
<path d="M99.5689 31.6294L94.8712 31.6637L94.8584 46.2632L99.5561 46.2289L99.5689 31.6294Z" fill="#EBEBEB"/>
<path d="M96.8734 32.2688L95.4047 32.2795L95.4042 32.7938L96.873 32.783L96.8734 32.2688Z" fill="white"/>
<path d="M98.7509 32.2592L97.2821 32.2699L97.2817 32.7841L98.7504 32.7734L98.7509 32.2592Z" fill="white"/>
<path d="M96.8744 33.1461L95.4056 33.1569L95.4052 33.6711L96.8739 33.6604L96.8744 33.1461Z" fill="white"/>
<path d="M98.7518 33.136L97.2831 33.1467L97.2826 33.661L98.7514 33.6502L98.7518 33.136Z" fill="white"/>
<path d="M96.8753 34.0231L95.4066 34.0338L95.4061 34.548L96.8748 34.5373L96.8753 34.0231Z" fill="white"/>
<path d="M98.7528 34.0132L97.284 34.0239L97.2836 34.5382L98.7523 34.5274L98.7528 34.0132Z" fill="white"/>
<path d="M96.8763 34.8999L95.4076 34.9106L95.4071 35.4249L96.8759 35.4142L96.8763 34.8999Z" fill="white"/>
<path d="M98.7538 34.8902L97.285 34.9009L97.2846 35.4151L98.7533 35.4044L98.7538 34.8902Z" fill="white"/>
<path d="M96.8772 35.777L95.4085 35.7877L95.4081 36.3019L96.8768 36.2912L96.8772 35.777Z" fill="white"/>
<path d="M98.7547 35.7674L97.286 35.7781L97.2855 36.2923L98.7543 36.2816L98.7547 35.7674Z" fill="white"/>
<path d="M96.8782 36.654L95.4095 36.6647L95.409 37.1789L96.8777 37.1682L96.8782 36.654Z" fill="white"/>
<path d="M98.7557 36.6442L97.2869 36.6549L97.2865 37.1691L98.7552 37.1584L98.7557 36.6442Z" fill="white"/>
<path d="M96.8792 37.5311L95.4104 37.5419L95.41 38.0561L96.8787 38.0454L96.8792 37.5311Z" fill="white"/>
<path d="M98.7566 37.5211L97.2879 37.5319L97.2875 38.0461L98.7562 38.0354L98.7566 37.5211Z" fill="white"/>
<path d="M96.8801 38.4081L95.4114 38.4188L95.411 38.933L96.8797 38.9223L96.8801 38.4081Z" fill="white"/>
<path d="M98.7576 38.3982L97.2889 38.4089L97.2884 38.9232L98.7572 38.9124L98.7576 38.3982Z" fill="white"/>
<path d="M96.8811 39.2849L95.4124 39.2957L95.4119 39.8099L96.8806 39.7992L96.8811 39.2849Z" fill="white"/>
<path d="M98.7585 39.275L97.2898 39.2858L97.2894 39.8L98.7581 39.7893L98.7585 39.275Z" fill="white"/>
<path d="M96.8821 40.1619L95.4133 40.1726L95.4129 40.6868L96.8816 40.6761L96.8821 40.1619Z" fill="white"/>
<path d="M98.7595 40.1521L97.2908 40.1628L97.2904 40.6771L98.7591 40.6663L98.7595 40.1521Z" fill="white"/>
<path d="M96.883 41.039L95.4143 41.0497L95.4138 41.5639L96.8826 41.5532L96.883 41.039Z" fill="white"/>
<path d="M98.7605 41.0292L97.2917 41.0399L97.2913 41.5541L98.76 41.5434L98.7605 41.0292Z" fill="white"/>
<path d="M96.884 41.9159L95.4153 41.9266L95.4148 42.4409L96.8835 42.4301L96.884 41.9159Z" fill="white"/>
<path d="M98.7614 41.9061L97.2927 41.9169L97.2922 42.4311L98.761 42.4204L98.7614 41.9061Z" fill="white"/>
<path d="M96.8849 42.7929L95.4162 42.8036L95.4158 43.3178L96.8845 43.3071L96.8849 42.7929Z" fill="white"/>
<path d="M98.7624 42.7831L97.2937 42.7938L97.2932 43.308L98.762 43.2973L98.7624 42.7831Z" fill="white"/>
<path d="M96.8859 43.6698L95.4172 43.6805L95.4167 44.1948L96.8854 44.184L96.8859 43.6698Z" fill="white"/>
<path d="M98.7634 43.6603L97.2946 43.671L97.2942 44.1852L98.7629 44.1745L98.7634 43.6603Z" fill="white"/>
<path d="M103.352 31.6097L99.5411 31.6375L99.5283 46.2388L103.339 46.211L103.352 31.6097Z" fill="#C7C7C7"/>
<path d="M101.751 44.1592L102.958 44.1504L102.959 43.6356L101.751 43.6444L101.751 44.1592Z" fill="#EBEBEB"/>
<path d="M100.207 44.1673L101.415 44.1584L101.415 43.6437L100.208 43.6525L100.207 44.1673Z" fill="#EBEBEB"/>
<path d="M101.75 43.282L102.957 43.2732L102.958 42.7584L101.75 42.7673L101.75 43.282Z" fill="#EBEBEB"/>
<path d="M100.206 43.2903L101.414 43.2815L101.414 42.7667L100.207 42.7756L100.206 43.2903Z" fill="#EBEBEB"/>
<path d="M101.749 42.4049L102.957 42.3961L102.957 41.8814L101.749 41.8902L101.749 42.4049Z" fill="#EBEBEB"/>
<path d="M100.205 42.4131L101.413 42.4043L101.413 41.8895L100.206 41.8984L100.205 42.4131Z" fill="#EBEBEB"/>
<path d="M101.748 41.5282L102.956 41.5194L102.956 41.0046L101.748 41.0135L101.748 41.5282Z" fill="#EBEBEB"/>
<path d="M100.204 41.5363L101.412 41.5275L101.413 41.0127L100.205 41.0215L100.204 41.5363Z" fill="#EBEBEB"/>
<path d="M101.747 40.6535L102.955 40.6447L102.955 40.1299L101.747 40.1387L101.747 40.6535Z" fill="#EBEBEB"/>
<path d="M100.203 40.6615L101.411 40.6527L101.412 40.1379L100.204 40.1468L100.203 40.6615Z" fill="#EBEBEB"/>
<path d="M101.746 39.7765L102.954 39.7677L102.954 39.2529L101.746 39.2618L101.746 39.7765Z" fill="#EBEBEB"/>
<path d="M100.202 39.7846L101.41 39.7758L101.411 39.261L100.203 39.2698L100.202 39.7846Z" fill="#EBEBEB"/>
<path d="M101.745 38.8997L102.953 38.8909L102.953 38.3761L101.745 38.3849L101.745 38.8997Z" fill="#EBEBEB"/>
<path d="M100.201 38.9075L101.409 38.8987L101.41 38.3839L100.202 38.3927L100.201 38.9075Z" fill="#EBEBEB"/>
<path d="M101.744 38.0227L102.952 38.0139L102.952 37.4992L101.744 37.508L101.744 38.0227Z" fill="#EBEBEB"/>
<path d="M100.2 38.0305L101.408 38.0217L101.409 37.507L100.201 37.5158L100.2 38.0305Z" fill="#EBEBEB"/>
<path d="M101.743 37.1457L102.951 37.1368L102.951 36.6221L101.743 36.6309L101.743 37.1457Z" fill="#EBEBEB"/>
<path d="M100.2 37.1537L101.407 37.1449L101.408 36.6301L100.2 36.639L100.2 37.1537Z" fill="#EBEBEB"/>
<path d="M101.742 36.2685L102.95 36.2596L102.95 35.7449L101.742 35.7537L101.742 36.2685Z" fill="#EBEBEB"/>
<path d="M100.199 36.2766L101.406 36.2678L101.407 35.7531L100.199 35.7619L100.199 36.2766Z" fill="#EBEBEB"/>
<path d="M101.741 35.3914L102.949 35.3826L102.949 34.8678L101.742 34.8766L101.741 35.3914Z" fill="#EBEBEB"/>
<path d="M100.198 35.3998L101.405 35.391L101.406 34.8762L100.198 34.885L100.198 35.3998Z" fill="#EBEBEB"/>
<path d="M101.74 34.5146L102.948 34.5057L102.948 33.991L101.741 33.9998L101.74 34.5146Z" fill="#EBEBEB"/>
<path d="M100.197 34.5227L101.404 34.5139L101.405 33.9992L100.197 34.008L100.197 34.5227Z" fill="#EBEBEB"/>
<path d="M101.739 33.6402L102.947 33.6313L102.947 33.1166L101.74 33.1254L101.739 33.6402Z" fill="#EBEBEB"/>
<path d="M100.196 33.6482L101.403 33.6394L101.404 33.1246L100.196 33.1335L100.196 33.6482Z" fill="#EBEBEB"/>
<path d="M101.738 32.7631L102.946 32.7543L102.946 32.2395L101.739 32.2483L101.738 32.7631Z" fill="#EBEBEB"/>
<path d="M100.195 32.771L101.402 32.7622L101.403 32.2474L100.195 32.2563L100.195 32.771Z" fill="#EBEBEB"/>
<path d="M79.7096 36.8211L74.1852 36.8615L74.1768 46.3687L79.7012 46.3284L79.7096 36.8211Z" fill="#C7C7C7"/>
<path d="M76.028 37.6641L75.053 37.6713L75.0525 38.2519L76.0275 38.2448L76.028 37.6641Z" fill="#DBDBDB"/>
<path d="M76.0293 38.9105L75.0544 38.9176L75.0539 39.4983L76.0288 39.4911L76.0293 38.9105Z" fill="#DBDBDB"/>
<path d="M76.0307 40.1549L75.0558 40.162L75.0553 40.7426L76.0302 40.7355L76.0307 40.1549Z" fill="#DBDBDB"/>
<path d="M76.032 41.4017L75.0571 41.4088L75.0566 41.9895L76.0315 41.9823L76.032 41.4017Z" fill="#DBDBDB"/>
<path d="M76.0335 42.648L75.0585 42.6552L75.058 43.2358L76.0329 43.2287L76.0335 42.648Z" fill="#DBDBDB"/>
<path d="M76.0348 43.8924L75.0599 43.8995L75.0594 44.4802L76.0343 44.4731L76.0348 43.8924Z" fill="#DBDBDB"/>
<path d="M76.0362 45.139L75.0612 45.1461L75.0607 45.7268L76.0357 45.7197L76.0362 45.139Z" fill="#DBDBDB"/>
<path d="M77.4284 37.6566L76.4534 37.6637L76.4529 38.2444L77.4278 38.2372L77.4284 37.6566Z" fill="#DBDBDB"/>
<path d="M77.4297 38.9035L76.4548 38.9106L76.4543 39.4913L77.4292 39.4842L77.4297 38.9035Z" fill="#DBDBDB"/>
<path d="M77.4311 40.1477L76.4561 40.1548L76.4556 40.7354L77.4306 40.7283L77.4311 40.1477Z" fill="#DBDBDB"/>
<path d="M77.4324 41.3942L76.4575 41.4014L76.457 41.982L77.4319 41.9749L77.4324 41.3942Z" fill="#DBDBDB"/>
<path d="M77.4338 42.6409L76.4589 42.6481L76.4584 43.2287L77.4333 43.2216L77.4338 42.6409Z" fill="#DBDBDB"/>
<path d="M77.4352 43.885L76.4603 43.8921L76.4597 44.4727L77.4347 44.4656L77.4352 43.885Z" fill="#DBDBDB"/>
<path d="M77.4366 45.1318L76.4616 45.1389L76.4611 45.7196L77.436 45.7124L77.4366 45.1318Z" fill="#DBDBDB"/>
<path d="M78.8287 37.6492L77.8538 37.6564L77.8533 38.237L78.8282 38.2299L78.8287 37.6492Z" fill="#DBDBDB"/>
<path d="M78.8301 38.8961L77.8552 38.9032L77.8547 39.4839L78.8296 39.4767L78.8301 38.8961Z" fill="#DBDBDB"/>
<path d="M78.8315 40.1402L77.8565 40.1473L77.856 40.728L78.831 40.7209L78.8315 40.1402Z" fill="#DBDBDB"/>
<path d="M78.8328 41.3869L77.8579 41.394L77.8574 41.9747L78.8323 41.9676L78.8328 41.3869Z" fill="#DBDBDB"/>
<path d="M78.8342 42.6335L77.8593 42.6406L77.8588 43.2213L78.8337 43.2142L78.8342 42.6335Z" fill="#DBDBDB"/>
<path d="M78.8356 43.8779L77.8606 43.885L77.8601 44.4657L78.8351 44.4585L78.8356 43.8779Z" fill="#DBDBDB"/>
<path d="M78.837 45.1243L77.862 45.1315L77.8615 45.7121L78.8364 45.705L78.837 45.1243Z" fill="#DBDBDB"/>
<path d="M79.6919 35.8304L76.0248 35.8572L76.024 36.8433L79.691 36.8166L79.6919 35.8304Z" fill="#DBDBDB"/>
<path d="M79.6905 35.2143L77.3656 35.2312L77.3651 35.8405L79.69 35.8236L79.6905 35.2143Z" fill="#EBEBEB"/>
<path d="M83.5768 36.8007L79.6942 36.8291L79.6858 46.3398L83.5684 46.3115L83.5768 36.8007Z" fill="#A6A6A6"/>
<path d="M82.374 45.5964L83.1694 45.5906L83.1699 45.0095L82.3746 45.0154L82.374 45.5964Z" fill="#C7C7C7"/>
<path d="M82.3727 44.3496L83.168 44.3438L83.1685 43.7627L82.3732 43.7685L82.3727 44.3496Z" fill="#C7C7C7"/>
<path d="M82.3713 43.1032L83.1666 43.0974L83.1672 42.5164L82.3718 42.5222L82.3713 43.1032Z" fill="#C7C7C7"/>
<path d="M82.3699 41.859L83.1653 41.8531L83.1658 41.2721L82.3705 41.2779L82.3699 41.859Z" fill="#C7C7C7"/>
<path d="M82.3686 40.612L83.1639 40.6062L83.1644 40.0252L82.3691 40.031L82.3686 40.612Z" fill="#C7C7C7"/>
<path d="M82.3672 39.368L83.1625 39.3622L83.163 38.7811L82.3677 38.787L82.3672 39.368Z" fill="#C7C7C7"/>
<path d="M82.3658 38.1215L83.1612 38.1157L83.1617 37.5347L82.3664 37.5405L82.3658 38.1215Z" fill="#C7C7C7"/>
<path d="M81.2347 45.6024L82.03 45.5966L82.0305 45.0155L81.2352 45.0213L81.2347 45.6024Z" fill="#C7C7C7"/>
<path d="M81.2333 44.3555L82.0286 44.3497L82.0291 43.7687L81.2338 43.7745L81.2333 44.3555Z" fill="#C7C7C7"/>
<path d="M81.2319 43.109L82.0273 43.1031L82.0278 42.5221L81.2324 42.5279L81.2319 43.109Z" fill="#C7C7C7"/>
<path d="M81.2306 41.8649L82.0259 41.8591L82.0264 41.2781L81.2311 41.2839L81.2306 41.8649Z" fill="#C7C7C7"/>
<path d="M81.2292 40.618L82.0245 40.6122L82.025 40.0312L81.2297 40.037L81.2292 40.618Z" fill="#C7C7C7"/>
<path d="M81.2278 39.3739L82.0231 39.368L82.0236 38.787L81.2283 38.7928L81.2278 39.3739Z" fill="#C7C7C7"/>
<path d="M81.2265 38.1274L82.0218 38.1216L82.0223 37.5406L81.227 37.5464L81.2265 38.1274Z" fill="#C7C7C7"/>
<path d="M80.0953 45.6082L80.8906 45.6024L80.8911 45.0214L80.0958 45.0272L80.0953 45.6082Z" fill="#C7C7C7"/>
<path d="M80.0939 44.3616L80.8892 44.3558L80.8897 43.7748L80.0944 43.7806L80.0939 44.3616Z" fill="#C7C7C7"/>
<path d="M80.0925 43.1149L80.8879 43.1091L80.8884 42.5281L80.0931 42.5339L80.0925 43.1149Z" fill="#C7C7C7"/>
<path d="M80.0912 41.8707L80.8865 41.8649L80.887 41.2838L80.0917 41.2896L80.0912 41.8707Z" fill="#C7C7C7"/>
<path d="M80.0898 40.6243L80.8851 40.6185L80.8856 40.0375L80.0903 40.0433L80.0898 40.6243Z" fill="#C7C7C7"/>
<path d="M80.0884 39.38L80.8838 39.3741L80.8843 38.7931L80.0889 38.7989L80.0884 39.38Z" fill="#C7C7C7"/>
<path d="M80.0871 38.1333L80.8824 38.1274L80.8829 37.5464L80.0876 37.5522L80.0871 38.1333Z" fill="#C7C7C7"/>
<path d="M82.9726 35.8135L79.6928 35.8374L79.6919 36.8243L82.9717 36.8004L82.9726 35.8135Z" fill="#C7C7C7"/>
<path d="M81.4697 35.2052L79.6921 35.2181L79.6916 35.8286L81.4692 35.8156L81.4697 35.2052Z" fill="#DBDBDB"/>
<path d="M115.976 36.6317L110.452 36.6721L110.444 46.1794L115.968 46.139L115.976 36.6317Z" fill="#C7C7C7"/>
<path d="M112.295 37.4748L111.32 37.4819L111.319 38.0626L112.294 38.0555L112.295 37.4748Z" fill="#DBDBDB"/>
<path d="M112.296 38.7211L111.321 38.7283L111.321 39.3089L112.296 39.3018L112.296 38.7211Z" fill="#DBDBDB"/>
<path d="M112.297 39.9654L111.323 39.9725L111.322 40.5532L112.297 40.5461L112.297 39.9654Z" fill="#DBDBDB"/>
<path d="M112.299 41.2124L111.324 41.2195L111.323 41.8001L112.298 41.793L112.299 41.2124Z" fill="#DBDBDB"/>
<path d="M112.3 42.4587L111.325 42.4658L111.325 43.0465L112.3 43.0394L112.3 42.4587Z" fill="#DBDBDB"/>
<path d="M112.302 43.703L111.327 43.7101L111.326 44.2907L112.301 44.2836L112.302 43.703Z" fill="#DBDBDB"/>
<path d="M112.303 44.9497L111.328 44.9568L111.327 45.5374L112.302 45.5303L112.303 44.9497Z" fill="#DBDBDB"/>
<path d="M113.695 37.4672L112.72 37.4744L112.72 38.055L113.695 38.0479L113.695 37.4672Z" fill="#DBDBDB"/>
<path d="M113.696 38.7139L112.722 38.7211L112.721 39.3017L113.696 39.2946L113.696 38.7139Z" fill="#DBDBDB"/>
<path d="M113.698 39.9583L112.723 39.9655L112.722 40.5461L113.697 40.539L113.698 39.9583Z" fill="#DBDBDB"/>
<path d="M113.699 41.2049L112.724 41.212L112.724 41.7927L113.699 41.7856L113.699 41.2049Z" fill="#DBDBDB"/>
<path d="M113.701 42.4514L112.726 42.4585L112.725 43.0392L113.7 43.032L113.701 42.4514Z" fill="#DBDBDB"/>
<path d="M113.702 43.6956L112.727 43.7028L112.726 44.2834L113.701 44.2763L113.702 43.6956Z" fill="#DBDBDB"/>
<path d="M113.703 44.9423L112.728 44.9495L112.728 45.5301L113.703 45.523L113.703 44.9423Z" fill="#DBDBDB"/>
<path d="M115.096 37.4599L114.121 37.467L114.12 38.0477L115.095 38.0406L115.096 37.4599Z" fill="#DBDBDB"/>
<path d="M115.097 38.7066L114.122 38.7137L114.121 39.2944L115.096 39.2873L115.097 38.7066Z" fill="#DBDBDB"/>
<path d="M115.098 39.951L114.123 39.9581L114.123 40.5388L115.098 40.5317L115.098 39.951Z" fill="#DBDBDB"/>
<path d="M115.1 41.1975L114.125 41.2046L114.124 41.7852L115.099 41.7781L115.1 41.1975Z" fill="#DBDBDB"/>
<path d="M115.101 42.4442L114.126 42.4513L114.126 43.032L115.1 43.0248L115.101 42.4442Z" fill="#DBDBDB"/>
<path d="M115.102 43.6883L114.127 43.6954L114.127 44.2761L115.102 44.269L115.102 43.6883Z" fill="#DBDBDB"/>
<path d="M115.104 44.935L114.129 44.9421L114.128 45.5228L115.103 45.5157L115.104 44.935Z" fill="#DBDBDB"/>
<path d="M115.961 35.6412L112.292 35.668L112.291 36.6541L115.961 36.6273L115.961 35.6412Z" fill="#DBDBDB"/>
<path d="M115.957 35.0249L113.632 35.0419L113.632 35.6512L115.957 35.6342L115.957 35.0249Z" fill="#EBEBEB"/>
<path d="M119.841 36.6115L115.958 36.6399L115.95 46.1506L119.832 46.1223L119.841 36.6115Z" fill="#A6A6A6"/>
<path d="M118.641 45.4068L119.436 45.401L119.437 44.82L118.641 44.8258L118.641 45.4068Z" fill="#C7C7C7"/>
<path d="M118.639 44.1604L119.435 44.1545L119.435 43.5735L118.64 43.5793L118.639 44.1604Z" fill="#C7C7C7"/>
<path d="M118.638 42.9138L119.433 42.908L119.434 42.3269L118.639 42.3327L118.638 42.9138Z" fill="#C7C7C7"/>
<path d="M118.637 41.6695L119.432 41.6637L119.433 41.0827L118.637 41.0885L118.637 41.6695Z" fill="#C7C7C7"/>
<path d="M118.635 40.4228L119.431 40.417L119.431 39.836L118.636 39.8418L118.635 40.4228Z" fill="#C7C7C7"/>
<path d="M118.634 39.1785L119.429 39.1727L119.43 38.5917L118.635 38.5975L118.634 39.1785Z" fill="#C7C7C7"/>
<path d="M118.633 37.9321L119.428 37.9263L119.428 37.3452L118.633 37.3511L118.633 37.9321Z" fill="#C7C7C7"/>
<path d="M117.501 45.413L118.297 45.4072L118.297 44.8262L117.502 44.832L117.501 45.413Z" fill="#C7C7C7"/>
<path d="M117.5 44.166L118.295 44.1602L118.296 43.5791L117.501 43.5849L117.5 44.166Z" fill="#C7C7C7"/>
<path d="M117.499 42.9195L118.294 42.9137L118.295 42.3327L117.499 42.3385L117.499 42.9195Z" fill="#C7C7C7"/>
<path d="M117.497 41.6755L118.293 41.6697L118.293 41.0886L117.498 41.0945L117.497 41.6755Z" fill="#C7C7C7"/>
<path d="M117.496 40.4288L118.291 40.423L118.292 39.8419L117.496 39.8478L117.496 40.4288Z" fill="#C7C7C7"/>
<path d="M117.495 39.1845L118.29 39.1787L118.29 38.5977L117.495 38.6035L117.495 39.1845Z" fill="#C7C7C7"/>
<path d="M117.493 37.9379L118.289 37.9321L118.289 37.3511L117.494 37.3569L117.493 37.9379Z" fill="#C7C7C7"/>
<path d="M116.365 45.4188L117.16 45.413L117.161 44.8319L116.365 44.8377L116.365 45.4188Z" fill="#C7C7C7"/>
<path d="M116.363 44.1722L117.159 44.1664L117.159 43.5854L116.364 43.5912L116.363 44.1722Z" fill="#C7C7C7"/>
<path d="M116.362 42.9255L117.157 42.9197L117.158 42.3386L116.363 42.3445L116.362 42.9255Z" fill="#C7C7C7"/>
<path d="M116.361 41.6814L117.156 41.6755L117.157 41.0945L116.361 41.1003L116.361 41.6814Z" fill="#C7C7C7"/>
<path d="M116.359 40.4349L117.155 40.4291L117.155 39.848L116.36 39.8539L116.359 40.4349Z" fill="#C7C7C7"/>
<path d="M116.358 39.1905L117.153 39.1847L117.154 38.6037L116.359 38.6095L116.358 39.1905Z" fill="#C7C7C7"/>
<path d="M116.357 37.9439L117.152 37.9381L117.152 37.3571L116.357 37.3629L116.357 37.9439Z" fill="#C7C7C7"/>
<path d="M119.237 35.6239L115.957 35.6478L115.956 36.6347L119.236 36.6108L119.237 35.6239Z" fill="#C7C7C7"/>
<path d="M117.734 35.0157L115.956 35.0287L115.956 35.6391L117.733 35.6261L117.734 35.0157Z" fill="#DBDBDB"/>
<path d="M1.04958 46.7857L15.8982 46.6578L30.744 46.556L60.4412 46.354L90.1385 46.2111L104.987 46.1405L119.833 46.096L104.987 46.2257L90.1385 46.3258L60.4413 46.5278L30.744 46.6707L15.8982 46.7412L1.04958 46.7857Z" fill="#263238"/>
<path d="M79.97 51.3062L68.8696 51.3873L3.86883 105.91L58.7921 105.508L79.97 51.3062Z" fill="#2429A6"/>
<path d="M86.3721 51.2227L62.2643 51.3981L79.06 46.4646L86.3721 51.2227Z" fill="#2429A6"/>
<path d="M33.0662 58.2267L26.148 59.9662L41.3307 78.7084L52.968 67.203L33.0662 58.2267Z" fill="#2429A6"/>
<path d="M39.4286 56.5863L18.6093 61.8023L24.0335 56.0607L39.4286 56.5863Z" fill="#2429A6"/>
<path d="M102.711 57.829L106.316 59.489L54.222 83.3599L64.9581 67.2123L102.711 57.829Z" fill="#2429A6"/>
<path d="M99.3391 56.3087L110.2 61.3012L115.993 55.5484L99.3391 56.3087Z" fill="#2429A6"/>
<g opacity="0.6">
<path d="M80.0395 51.3061L68.9301 51.4215L3.79927 105.91L58.7672 105.339L80.0395 51.3061Z" fill="white"/>
<path d="M86.3716 51.1507L62.2581 51.3982L79.0644 46.4865L86.3716 51.1507Z" fill="white"/>
<path d="M33.0752 58.2881L26.1485 60.0423L41.3176 78.6613L52.9814 67.166L33.0752 58.2881Z" fill="white"/>
<path d="M39.435 56.5791L18.602 61.8022L24.0359 56.1072L39.435 56.5791Z" fill="white"/>
<path d="M102.741 57.8399L106.346 59.4781L54.1896 83.3598L64.9545 67.2813L102.741 57.8399Z" fill="white"/>
<path d="M99.3389 56.3539L110.197 61.2683L116 55.5486L99.3389 56.3539Z" fill="white"/>
</g>
<path d="M39.5429 110.192C59.6574 110.047 75.9644 108.806 75.9655 107.419C75.9666 106.032 59.6615 105.025 39.5469 105.169C19.4323 105.314 3.12532 106.556 3.12421 107.942C3.12309 109.329 19.4283 110.336 39.5429 110.192Z" fill="#DBDBDB"/>
<path d="M5.26674 91.2532C5.26674 91.2532 3.92436 101.964 3.92435 101.971C3.9676 103.945 4.04762 105.678 4.20149 106.569C4.20017 106.574 4.20017 106.579 4.20148 106.584C4.20722 106.796 4.27058 107.003 4.38654 107.19C5.08359 107.571 18.6122 107.619 19.2564 107.433C19.9005 107.248 19.3535 105.663 18.6453 105.171C17.9371 104.68 15.8108 101.954 15.8108 101.954L17.0379 91.2539L5.26674 91.2532Z" fill="#F7A9A0"/>
<path d="M16.4767 102.446C15.3092 102.102 13.8046 102.073 12.7458 102.686C12.7065 102.71 12.7458 102.757 12.7851 102.752C13.9921 102.585 15.2153 102.525 16.4345 102.575C16.4546 102.58 16.4761 102.578 16.4943 102.569C16.5124 102.56 16.5258 102.545 16.5314 102.528C16.537 102.511 16.5344 102.493 16.5241 102.478C16.5139 102.462 16.4968 102.451 16.4767 102.446Z" fill="#263238"/>
<path d="M17.266 103.012C16.0957 102.668 14.5911 102.639 13.5351 103.252C13.4929 103.276 13.535 103.323 13.5743 103.318C14.7813 103.15 16.0045 103.091 17.2238 103.141C17.2439 103.146 17.2654 103.144 17.2835 103.135C17.3017 103.126 17.315 103.111 17.3206 103.094C17.3262 103.077 17.3236 103.059 17.3134 103.044C17.3031 103.028 17.2861 103.017 17.266 103.012Z" fill="#263238"/>
<path d="M18.0524 103.578C16.8821 103.234 15.3803 103.205 14.3215 103.817C14.2794 103.842 14.3214 103.889 14.3607 103.884C15.5674 103.714 16.791 103.655 18.0102 103.707C18.0303 103.712 18.0518 103.71 18.0699 103.701C18.0881 103.692 18.1014 103.677 18.107 103.66C18.1126 103.643 18.11 103.625 18.0998 103.609C18.0895 103.594 18.0725 103.583 18.0524 103.578Z" fill="#263238"/>
<path d="M19.563 107.516C18.9198 107.703 5.10278 107.593 4.39822 107.211C4.11751 107.069 4.00157 104.776 3.9366 101.999L3.93668 101.91L15.8217 101.807L15.8216 101.98C15.8216 101.98 18.2455 104.778 18.9584 105.267C19.6713 105.757 20.2091 107.334 19.563 107.516Z" fill="#37474F"/>
<path d="M3.94227 101.91L3.9422 101.999C4.00717 104.776 4.13434 107.071 4.40382 107.211C4.7182 107.384 8.71159 107.48 13.0224 107.518C18.1841 107.562 19.2006 107.62 19.563 107.518C20.2063 107.334 19.6544 105.752 18.95 105.265C18.2455 104.777 15.8131 101.977 15.8131 101.977L15.8133 101.804L11.8507 101.833L3.94227 101.91Z" fill="#455A64"/>
<path d="M19.3635 106.92C16.2764 106.857 8.33693 106.749 5.26377 106.875C5.23851 106.875 5.2385 106.888 5.26376 106.89C8.33397 107.004 16.2594 107.036 19.3634 106.96C19.428 106.957 19.428 106.919 19.3635 106.92Z" fill="#263238"/>
<path opacity="0.1" d="M11.8563 101.836C12.178 103.534 12.6676 106.038 13.0204 107.529C18.1857 107.573 19.203 107.631 19.5656 107.53C20.2093 107.344 19.6571 105.758 18.9521 105.27C18.2472 104.781 15.8131 101.973 15.8131 101.973L15.8133 101.8L11.8563 101.836Z" fill="black"/>
<path d="M3.01673 102.073L16.4172 101.891C16.4172 101.891 17.7106 82.0139 18.4162 75.8209C19.2868 68.0743 20.416 48.7493 20.416 48.7493L8.99443 48.8327C8.99443 48.8327 6.396 53.5837 8.02868 58.8325L6.34929 77.838L3.01673 102.073Z" fill="#263238"/>
<path d="M4.24556 100.051C4.59629 100.006 4.94948 99.976 5.30369 99.961C5.69663 99.9309 6.08957 99.8984 6.4825 99.8774C7.24029 99.8356 7.99527 99.8097 8.75305 99.7907C10.2826 99.7549 11.8094 99.7327 13.339 99.7402C14.2062 99.7341 15.0762 99.7531 15.9462 99.7767C15.9518 99.7782 15.9567 99.781 15.9602 99.7849C15.9637 99.7888 15.9655 99.7934 15.9655 99.7982C15.9655 99.803 15.9636 99.8077 15.9602 99.8117C15.9567 99.8156 15.9518 99.8185 15.9462 99.8201C14.4334 99.8969 12.9178 99.9463 11.4023 100.003C9.88671 100.059 8.37394 100.113 6.86121 100.121C6.42619 100.124 5.99118 100.127 5.55898 100.117C5.12678 100.106 4.68052 100.134 4.25395 100.094C4.22589 100.09 4.21469 100.058 4.24556 100.051Z" fill="#37474F"/>
<path d="M15.651 89.7958C15.9811 86.8175 16.2711 83.837 16.5495 80.8518C17.1044 74.8895 17.5262 68.9192 17.8148 62.941C17.9786 59.5871 18.1078 56.2333 18.194 52.8799C18.194 52.8413 18.2572 52.8457 18.2572 52.8795C18.2292 58.8872 17.9828 64.9013 17.6127 70.9066C17.2427 76.9119 16.7404 82.8481 16.037 88.793C15.6462 92.1365 15.2122 95.478 14.6576 98.8034C14.6589 98.8066 14.6593 98.8101 14.6587 98.8136C14.6581 98.817 14.6566 98.8203 14.6542 98.8231C14.6518 98.826 14.6486 98.8283 14.645 98.8299C14.6413 98.8315 14.6372 98.8324 14.6331 98.8324C14.629 98.8324 14.6249 98.8316 14.6212 98.8301C14.6176 98.8285 14.6144 98.8262 14.612 98.8234C14.6096 98.8206 14.6081 98.8174 14.6075 98.8139C14.6069 98.8105 14.6073 98.807 14.6087 98.8037C14.959 95.8107 15.3208 92.8056 15.651 89.7958Z" fill="#37474F"/>
<path d="M21.7166 92.7126C21.7166 92.7126 22.011 103.039 22.011 103.047C22.0542 105.02 22.1342 106.751 22.288 107.642C22.2867 107.647 22.2867 107.652 22.288 107.656C22.2934 107.868 22.3557 108.075 22.4701 108.262L22.4701 108.274C23.164 108.657 41.5814 108.667 42.2336 108.481C42.8858 108.296 42.3307 106.712 41.6201 106.221C40.9095 105.73 33.8855 103.023 33.8855 103.023L33.4787 92.7062L21.7166 92.7126Z" fill="#F7A9A0"/>
<path d="M21.9667 100.949C21.9667 100.949 22.0267 103.056 22.0267 103.063C22.0699 105.03 22.1498 106.757 22.3035 107.645C22.3022 107.65 22.3022 107.655 22.3035 107.66C22.3364 107.867 22.3975 108.069 22.4855 108.264L22.4855 108.276C23.1788 108.658 41.5824 108.667 42.2341 108.482C42.8858 108.297 42.3311 106.718 41.621 106.228C40.9109 105.739 33.8923 103.039 33.8923 103.039L33.8661 100.893L21.9667 100.949Z" fill="white"/>
<path d="M35.0204 103.017C33.7907 102.872 32.3052 103.092 31.406 103.871C31.3723 103.9 31.4228 103.943 31.4621 103.93C32.6128 103.56 33.8058 103.298 35.0202 103.146C35.0369 103.142 35.0515 103.134 35.062 103.122C35.0724 103.11 35.0781 103.096 35.0781 103.081C35.0781 103.067 35.0725 103.052 35.062 103.041C35.0516 103.029 35.037 103.021 35.0204 103.017Z" fill="#263238"/>
<path d="M35.9217 103.44C34.692 103.295 33.2065 103.515 32.3074 104.294C32.2737 104.323 32.3242 104.365 32.3607 104.353C33.5125 103.985 34.7064 103.723 35.9216 103.572C35.9395 103.569 35.9557 103.56 35.9674 103.548C35.9791 103.536 35.9854 103.521 35.9855 103.505C35.9855 103.49 35.9791 103.475 35.9675 103.463C35.9558 103.451 35.9396 103.443 35.9217 103.44Z" fill="#263238"/>
<path d="M36.823 103.863C35.5933 103.718 34.1078 103.938 33.2087 104.717C33.1721 104.746 33.2086 104.789 33.262 104.776C34.4138 104.407 35.6077 104.145 36.8229 103.995C36.8408 103.992 36.857 103.983 36.8687 103.971C36.8804 103.959 36.8867 103.944 36.8868 103.928C36.8868 103.913 36.8804 103.898 36.8688 103.886C36.8571 103.874 36.8409 103.866 36.823 103.863Z" fill="#263238"/>
<path d="M42.2371 108.483C41.5911 108.668 23.1882 108.658 22.4921 108.277C22.2255 108.137 22.0955 105.846 22.0305 103.074L22.0306 102.985L33.9053 102.879L33.9052 103.052C33.9052 103.052 40.9113 105.756 41.6241 106.231C42.3369 106.705 42.883 108.301 42.2371 108.483Z" fill="#455A64"/>
<path d="M42.0346 107.893C38.9475 107.835 26.4196 107.82 23.3493 107.941C23.324 107.941 23.324 107.954 23.3493 107.956C26.4195 108.065 38.9334 108.003 42.0346 107.931C42.0991 107.923 42.1019 107.895 42.0346 107.893Z" fill="#263238"/>
<path d="M14.9589 59.6899C14.9589 59.6899 18.8711 74.384 19.0209 77.0958C19.1485 79.4118 21.0915 103.195 21.0915 103.195L34.9667 102.964C34.9667 102.964 31.4996 78.7423 31.2368 76.3307C30.7477 71.8209 27.7379 59.5072 24.2168 48.5319L9.2595 48.856C9.2595 48.856 9.49672 54.6468 12.6491 58.7558C12.6575 58.7582 14.0575 59.2789 14.9589 59.6899Z" fill="#263238"/>
<path d="M21.8374 101.028C23.4344 100.958 25.0875 100.885 26.6872 100.885C28.2869 100.885 29.8586 100.863 31.4414 100.913C32.3395 100.939 33.2348 100.944 34.1328 100.999C34.1609 100.998 34.1608 101.035 34.1328 101.037C32.5414 101.144 30.9389 101.162 29.3391 101.184C27.7394 101.207 26.1705 101.222 24.5849 101.197C23.6868 101.183 22.7915 101.164 21.8935 101.132C21.7952 101.128 21.742 101.031 21.8374 101.028Z" fill="#37474F"/>
<path d="M18.3774 59.863C17.6894 59.8728 17.0021 59.8347 16.3225 59.7489C15.6479 59.6355 14.9809 59.4929 14.3241 59.3217C13.6757 59.2117 13.0194 59.1367 12.3591 59.0971C11.6956 59.0297 11.048 58.8808 10.4365 58.655C10.4313 58.6543 10.426 58.655 10.4213 58.6571C10.4166 58.6591 10.4127 58.6623 10.4103 58.6663C10.4078 58.6702 10.4068 58.6747 10.4075 58.6791C10.4082 58.6836 10.4104 58.6877 10.414 58.6909C11.0063 58.9464 11.623 59.1592 12.2579 59.3271C12.9174 59.4895 13.6024 59.4988 14.2705 59.623C14.9492 59.7806 15.6392 59.9024 16.3363 59.9877C17.0194 60.0441 17.7092 60.019 18.3858 59.913C18.4139 59.8961 18.4027 59.8628 18.3774 59.863Z" fill="#37474F"/>
<path d="M18.2398 72.621C18.1413 72.1387 18.0484 71.6686 17.9414 71.1961C17.7273 70.2318 17.5076 69.2796 17.2596 68.33C16.7692 66.4405 16.3128 64.5411 15.7857 62.659C15.4869 61.5939 15.2221 60.5141 14.861 59.4664C14.8611 59.4398 14.813 59.4498 14.8158 59.4667C14.9676 60.4314 15.2156 61.3955 15.4269 62.3598C15.6381 63.3242 15.8719 64.2714 16.103 65.2259C16.5679 67.1229 17.0158 69.0224 17.5344 70.9069C17.681 71.4346 17.8163 71.96 17.9911 72.4851C18.166 73.0103 18.2729 73.5721 18.4789 74.0946C18.4789 74.1003 18.4816 74.1058 18.4863 74.1099C18.4911 74.1139 18.4976 74.1162 18.5043 74.1161C18.5111 74.1161 18.5176 74.1137 18.5223 74.1096C18.5271 74.1055 18.5298 74.1 18.5298 74.0942C18.4709 73.59 18.3412 73.1056 18.2398 72.621Z" fill="#37474F"/>
<path d="M23.8064 55.0214L25.2206 60.5271L26.6036 66.0404C27.0646 67.8773 27.5057 69.7192 27.9497 71.5611L28.5971 74.3265C28.7017 74.7871 28.812 75.2548 28.8797 75.7252L29.0545 77.1295C29.4826 80.8746 29.8918 84.6207 30.2821 88.3677L30.8448 93.9907L31.382 99.6164L30.7057 94.0038L30.0522 88.3862L28.7763 77.1557L28.6073 75.7538C28.5537 75.2881 28.4463 74.8348 28.3474 74.3718L27.7112 71.6063L26.4049 66.0805L25.1014 60.5521L23.8064 55.0214Z" fill="#37474F"/>
<path d="M18.1666 34.5335C17.2411 34.6175 16.2943 33.4089 16.1742 32.392C16.1743 32.3173 16.369 31.6454 16.5976 30.8141C16.733 30.3091 16.8798 29.7413 16.9562 29.2198L20.654 30.4299C20.3325 31.0611 20.1014 31.7229 19.9659 32.4005C19.9575 32.4727 19.9575 32.5454 19.9657 32.6175C19.9643 32.6296 19.9643 32.6417 19.9657 32.6537C19.9709 33.0709 19.0612 34.4498 18.1666 34.5335Z" fill="#F7A9A0"/>
<path d="M15.5625 24.8128C15.0578 26.2127 15.7072 29.707 16.8623 30.5908C18.5487 31.8903 21.2851 32.0053 22.586 30.2668C23.8475 28.584 22.9627 24.1751 21.6724 23.3622C19.7723 22.1752 16.3096 22.7455 15.5625 24.8128Z" fill="#F7A9A0"/>
<path d="M15.7941 24.1026C15.7941 24.1026 14.8569 24.9703 14.7412 25.4727C14.6254 25.9751 14.739 27.8985 15.6941 29.1188C16.0452 29.5598 16.0247 30.4883 16.601 30.8C17.1772 31.1116 19.7993 29.795 19.9769 29.4103C20.1544 29.0256 19.6971 27.7776 19.5991 27.2574C19.5011 26.7373 20.2099 26.6284 20.4011 26.7138C21.5986 27.2548 21.738 28.6185 21.8507 28.391C21.9634 28.1635 22.338 27.4591 22.361 26.9574C22.3839 26.4557 21.3475 24.949 21.3928 24.5533C21.4382 24.1575 22.096 24.4251 22.5179 24.3593C22.7795 24.3188 22.716 22.969 22.359 22.7329C22.0021 22.4968 21.2342 22.623 20.9052 22.6061C20.5762 22.5893 20.18 22.2305 19.3026 22.2177C18.4252 22.2048 17.3787 22.6273 16.9539 22.7727C16.2788 22.9971 15.7941 24.1026 15.7941 24.1026Z" fill="#263238"/>
<path d="M21.4143 27.7044C21.4143 27.7044 20.4225 26.4573 19.7613 26.7637C19.1001 27.07 19.8298 28.8762 20.603 29.1263C20.6988 29.1641 20.8028 29.1849 20.9086 29.1874C21.0145 29.1898 21.12 29.1739 21.2188 29.1405C21.3176 29.1071 21.4078 29.0569 21.4837 28.993C21.5597 28.9291 21.6199 28.8529 21.6608 28.7688L21.4143 27.7044Z" fill="#F7A9A0"/>
<path d="M19.9775 27.278C19.9775 27.278 19.9606 27.2902 19.9775 27.2949C20.5174 27.4863 20.7927 27.9184 20.9864 28.3656C20.9559 28.3188 20.9139 28.2784 20.8633 28.247C20.8126 28.2157 20.7545 28.1942 20.693 28.1841C20.6314 28.174 20.568 28.1755 20.5069 28.1885C20.4459 28.2015 20.3888 28.2257 20.3395 28.2594C20.3365 28.2606 20.3339 28.2624 20.3321 28.2648C20.3303 28.2672 20.3294 28.2699 20.3294 28.2727C20.3294 28.2756 20.3303 28.2783 20.3321 28.2807C20.3339 28.283 20.3365 28.2848 20.3395 28.2859C20.4349 28.2601 20.537 28.2602 20.6317 28.2863C20.7264 28.3124 20.8091 28.3632 20.8682 28.4316C20.9725 28.5473 21.0611 28.6729 21.1323 28.8059C21.1576 28.8492 21.2448 28.8268 21.228 28.7787L21.228 28.7666C21.2398 28.1708 20.7173 27.3401 19.9775 27.278Z" fill="#263238"/>
<path d="M5.72307 54.6573C5.73712 54.6717 9.8003 55.7633 11.2291 55.7529C11.4485 55.7512 12.1649 53.4888 12.3167 53.5022C12.4686 53.5155 12.8265 55.8593 13.0234 55.8555C17.4588 55.8231 26.7526 54.6386 26.8539 54.5486C26.9552 54.4586 25.4323 49.5888 25.3035 48.9435C24.3347 44.0817 22.8546 35.3122 20.7051 32.9115C19.7132 31.8047 16.8899 31.3286 15.9669 31.8779C13.5693 33.3038 12.5328 34.9319 11.6538 36.6963C11.0029 38.0033 8.24712 46.9605 7.869 48.3499C7.39495 50.0969 5.64158 54.5711 5.72307 54.6573Z" fill="#2429A6"/>
<path d="M19.2869 35.4066C18.5693 40.8372 18.4925 44.8464 18.6718 45.977C19.1285 48.8697 20.8481 53.9253 21.5092 55.0259C21.9368 55.7468 29.9382 54.9643 29.5445 54.1683C28.2059 51.4558 24.9863 44.6831 24.9441 44.5869C24.663 43.9277 23.8079 39.2302 22.6811 35.9151C21.5543 32.6001 19.6527 32.6478 19.2869 35.4066Z" fill="#F7A9A0"/>
<path d="M29.422 53.8543C29.422 53.8543 31.5782 58.8386 31.3428 61.0087C31.2236 62.0973 29.8468 66.5671 28.5783 66.3207C27.4279 66.088 28.169 64.6522 28.169 64.6522C28.169 64.6522 27.5318 66.2946 26.4801 65.7693C25.4284 65.2439 26.5918 63.4361 26.5918 63.4361C26.5918 63.4361 26.0558 65.2176 24.9929 64.5645C24.0679 63.9972 25.1642 61.7967 25.1642 61.7967C25.1642 61.7967 24.8389 63.7287 23.8266 63.2199C22.7018 62.6662 23.8639 59.1941 23.8639 59.1941C21.7556 57.4295 21.4217 56.414 21.6173 54.7146C21.6372 54.4347 29.422 53.8543 29.422 53.8543Z" fill="#F7A9A0"/>
<path d="M26.358 63.9607C26.4455 63.8152 26.5273 63.6697 26.612 63.5242C26.7829 63.2435 26.9347 62.9546 27.0665 62.659C27.1908 62.3684 27.2982 62.0755 27.3942 61.7802C27.4903 61.485 27.5639 61.1416 27.6769 60.8318C27.6782 60.8288 27.6786 60.8257 27.6782 60.8226C27.6777 60.8195 27.6764 60.8166 27.6743 60.814C27.6722 60.8115 27.6695 60.8094 27.6662 60.808C27.663 60.8066 27.6594 60.8059 27.6558 60.8059C27.6522 60.8059 27.6486 60.8067 27.6454 60.8082C27.6421 60.8096 27.6394 60.8117 27.6373 60.8143C27.6352 60.8169 27.6339 60.8198 27.6334 60.8229C27.633 60.826 27.6334 60.8292 27.6346 60.8321C27.5269 61.1404 27.3996 61.4435 27.2534 61.7402C27.1206 62.0333 26.9851 62.3264 26.8496 62.6196C26.714 62.9127 26.6067 63.1984 26.4824 63.4866C26.4203 63.6319 26.3497 63.7748 26.2819 63.9154C26.2058 64.0469 26.1434 64.1839 26.0955 64.3247C26.0955 64.3368 26.1124 64.3439 26.1237 64.3245C26.216 64.2103 26.2945 64.0884 26.358 63.9607Z" fill="#263238"/>
<path d="M28.0278 65.0126C28.3662 64.5011 28.6632 63.9706 28.917 63.4248C29.162 62.8764 29.3428 62.3089 29.4567 61.7309C29.4567 61.7264 29.4547 61.7221 29.451 61.7189C29.4473 61.7158 29.4423 61.7141 29.437 61.7141C29.4318 61.7141 29.4268 61.716 29.4231 61.7191C29.4194 61.7223 29.4173 61.7267 29.4173 61.7311C29.1688 62.2786 28.9316 62.8332 28.6943 63.3854C28.5757 63.6566 28.0054 64.8704 27.963 65.0035C27.9517 65.0132 28.0081 65.0273 28.0278 65.0126Z" fill="#263238"/>
<path d="M24.7592 63.0172C25.0649 62.5308 25.3329 62.0279 25.5615 61.5119C25.7369 60.9674 25.8647 60.4127 25.9437 59.8527C25.9437 59.8334 25.9098 59.8239 25.9042 59.853C25.726 60.3951 25.5592 60.9396 25.3387 61.4724C25.237 61.734 24.7736 62.7539 24.6916 63.0104C24.7028 63.0224 24.7423 63.0366 24.7592 63.0172Z" fill="#263238"/>
<path d="M20.6048 54.928L29.4077 52.5903C29.4077 52.5903 25.4704 44.9927 25.0822 44.3536C24.694 43.7144 23.7779 37.8469 22.5295 35.1433C21.2811 32.4398 19.5827 31.9937 19.0133 35.6276C18.4438 39.2615 18.3859 44.2504 18.4605 45.8669C18.5352 47.4833 20.6048 54.928 20.6048 54.928Z" fill="#2429A6"/>
<path d="M28.1909 51.1459C27.8595 51.1867 27.5366 51.2825 27.208 51.352C26.8794 51.4215 26.5593 51.4981 26.2363 51.5795C25.6129 51.7326 24.9922 51.8953 24.3744 52.0604L22.518 52.5532C21.8777 52.7256 21.2177 52.8766 20.5942 53.092C20.5883 53.092 20.5826 53.0941 20.5783 53.0977C20.5741 53.1013 20.5718 53.1062 20.5718 53.1113C20.5717 53.1164 20.5741 53.1213 20.5783 53.1248C20.5825 53.1284 20.5882 53.1304 20.5942 53.1303C21.2485 53.0177 21.8973 52.8309 22.5404 52.6728L24.4444 52.206C25.0791 52.0481 25.7138 51.8877 26.3457 51.7129C26.6546 51.6292 26.9635 51.5455 27.2697 51.4522C27.5831 51.3709 27.8915 51.2759 28.1937 51.1675C28.233 51.1696 28.2133 51.1434 28.1909 51.1459Z" fill="#263238"/>
<path d="M21.3825 54.7288L20.6361 54.9492L20.6105 54.9494L20.6106 54.9276C20.1692 53.4552 19.7619 51.9729 19.3716 50.4905L18.806 48.2558C18.6307 47.5084 18.4469 46.7659 18.3341 46.0012C18.2625 45.2369 18.2433 44.4694 18.2765 43.7024C18.2942 42.9391 18.3403 42.1781 18.3948 41.4169C18.5068 39.8946 18.6528 38.3745 18.8471 36.8564C18.755 38.3785 18.6685 39.9007 18.5991 41.4227C18.5297 42.9447 18.4404 44.4765 18.5952 45.9703C18.8606 47.4633 19.2254 48.958 19.5816 50.4455L20.6333 54.9178L20.6021 54.9035L21.3825 54.7288Z" fill="#263238"/>
<path d="M18.5129 37.2929L18.5607 37.6261L18.6171 37.9519C18.6537 38.1716 18.7017 38.3887 18.7213 38.6158C18.5999 38.4142 18.5179 38.1969 18.4783 37.9723C18.433 37.7467 18.4448 37.5151 18.5129 37.2929Z" fill="#263238"/>
<path d="M40.5189 19.2676C40.3841 20.3692 39.8952 21.4199 39.1067 22.3024C38.3182 23.1849 37.2612 23.8644 36.0536 24.2651C34.846 24.6658 33.5355 24.772 32.2681 24.5717C31.0008 24.3714 29.8266 23.8726 28.8766 23.1309L25.391 23.5949L27.1387 20.9991C26.7037 20.0931 26.5404 19.1063 26.6635 18.128C26.7592 17.3473 27.0332 16.589 27.4698 15.8964C27.9064 15.2038 28.497 14.5904 29.208 14.0913C29.919 13.5921 30.7364 13.2171 31.6136 12.9874C32.4907 12.7578 33.4104 12.6781 34.3202 12.7529C35.2299 12.8278 36.1119 13.0556 36.9158 13.4235C37.7197 13.7914 38.4297 14.2921 39.0053 14.897C39.5809 15.502 40.0108 16.1993 40.2705 16.9492C40.5302 17.6991 40.6146 18.4869 40.5189 19.2676Z" fill="white"/>
<path d="M40.519 19.2673C40.3844 20.3697 39.8971 21.4215 39.111 22.3063C38.7268 22.7522 38.2658 23.1456 37.744 23.4729C37.2286 23.8111 36.6606 24.0854 36.0569 24.2876C35.4557 24.4938 34.8246 24.6274 34.1819 24.6844C33.8595 24.712 33.5354 24.7193 33.2122 24.706C32.8887 24.703 32.5663 24.6772 32.2483 24.6287C30.9638 24.4354 29.771 23.9385 28.8037 23.1937L28.8852 23.2148L25.4053 23.7005L25.1523 23.7337L25.2789 23.5424L27.0154 20.9419L27.0153 21.0431C26.6073 20.1899 26.4344 19.266 26.5097 18.3426C26.5851 17.4192 26.9068 16.521 27.45 15.7173C27.993 14.9172 28.7393 14.2313 29.6328 13.7111C30.5256 13.1981 31.5404 12.8639 32.6011 12.7335C33.6618 12.603 34.741 12.6798 35.7578 12.9579C36.7641 13.2447 37.6815 13.7203 38.4435 14.3502C39.2021 14.9785 39.783 15.7474 40.1425 16.5991C40.502 17.4507 40.6307 18.363 40.519 19.2673ZM40.519 19.2673C40.633 18.3668 40.5045 17.4579 40.1434 16.6105C39.7823 15.7631 39.1982 15 38.4361 14.38C37.6741 13.76 36.7545 13.2996 35.7482 13.0345C34.742 12.7693 33.676 12.7065 32.6325 12.8507C31.5998 12.9871 30.615 13.3239 29.7535 13.8355C28.9025 14.3554 28.1906 15.0255 27.6663 15.8001C27.1517 16.5781 26.8492 17.4446 26.7816 18.3341C26.7155 19.2224 26.8818 20.1103 27.2683 20.9328L27.2936 20.9856L27.2598 21.0341L25.5037 23.6251L25.3802 23.4694L28.8685 23.0246L28.9163 23.0242L28.95 23.0529C29.8801 23.7932 31.035 24.2945 32.2849 24.5007C32.5967 24.5543 32.9136 24.585 33.232 24.5926C33.5492 24.6095 33.8676 24.6072 34.1848 24.5856C34.8211 24.5385 35.4475 24.4155 36.0457 24.2202C36.649 24.0287 37.2173 23.7632 37.7328 23.432C37.9894 23.2668 38.2345 23.0888 38.4668 22.899C38.6934 22.7031 38.9057 22.4956 39.1026 22.2775C39.8869 21.402 40.3769 20.3606 40.519 19.2673Z" fill="#263238"/>
<path d="M34.1131 19.5433L34.1124 20.3129C34.1147 20.3898 34.0987 20.4664 34.0653 20.5381C34.032 20.6098 33.9821 20.675 33.9186 20.7299C33.8551 20.7848 33.7793 20.8281 33.696 20.8572C33.6126 20.8863 33.5233 20.9006 33.4336 20.8993C33.2537 20.9006 33.0813 20.8406 32.9541 20.7325C32.827 20.6244 32.7557 20.477 32.7558 20.3228L32.7569 19.0852C32.7569 19.0852 32.771 19.0851 32.771 19.0609C32.771 19.0368 32.757 19.061 32.757 19.0369C32.7628 18.8844 32.8363 18.7391 32.9624 18.6305C33.0886 18.522 33.2579 18.4585 33.4358 18.4529C33.6469 18.4623 33.8584 18.4345 34.0574 18.3713C34.2563 18.3081 34.4384 18.2108 34.5925 18.0854C34.7467 17.96 34.8695 17.8091 34.9535 17.6421C35.0376 17.475 35.081 17.2953 35.0812 17.114C35.0813 16.9327 35.0382 16.7536 34.9545 16.5878C34.8707 16.4219 34.7482 16.2728 34.5943 16.1497C34.4404 16.0265 34.2584 15.9319 34.0596 15.8716C33.8608 15.8113 33.6493 15.7866 33.4381 15.7991C33.1695 15.8002 32.9053 15.8618 32.672 15.9779C32.4387 16.0939 32.2446 16.2603 32.1091 16.4602C32.0644 16.5281 32.0045 16.5878 31.9328 16.6358C31.861 16.6839 31.779 16.7192 31.6914 16.7399C31.6039 16.7605 31.5126 16.766 31.4228 16.756C31.3331 16.746 31.2468 16.7208 31.1689 16.6818C31.0925 16.6436 31.0258 16.5927 30.9728 16.5322C30.9197 16.4716 30.8812 16.4025 30.8595 16.3289C30.8379 16.2553 30.8335 16.1785 30.8466 16.1032C30.8597 16.0278 30.8901 15.9553 30.936 15.8897C31.1776 15.5304 31.5191 15.2274 31.9297 15.0079C32.3403 14.7885 32.8071 14.6594 33.2882 14.6324C33.7694 14.6054 34.2497 14.6812 34.686 14.8531C35.1222 15.0251 35.5008 15.2876 35.7877 15.6173C36.0745 15.9469 36.2606 16.3333 36.3292 16.7416C36.3979 17.1499 36.3468 17.5674 36.1808 17.9564C36.0147 18.3455 35.7388 18.694 35.3779 18.9706C35.017 19.2472 34.5824 19.4431 34.1131 19.5409L34.1131 19.5433ZM34.1108 22.1393L34.1106 22.3516C34.1129 22.4284 34.0969 22.5051 34.0635 22.5767C34.0302 22.6484 33.9803 22.7137 33.9168 22.7685C33.8533 22.8234 33.7775 22.8667 33.6942 22.8958C33.6108 22.925 33.5215 22.9393 33.4318 22.938C33.2519 22.9393 33.0795 22.8793 32.9523 22.7712C32.8252 22.6631 32.7539 22.5157 32.754 22.3615L32.7542 22.1492C32.7566 21.9955 32.8288 21.8482 32.9557 21.7386C33.0825 21.6291 33.2538 21.566 33.433 21.5628C33.5224 21.5612 33.6111 21.5749 33.6939 21.6031C33.7767 21.6314 33.8519 21.6737 33.915 21.7274C33.9782 21.7811 34.0281 21.8452 34.0617 21.916C34.0953 21.9867 34.112 22.0626 34.1108 22.1393Z" fill="#2429A6"/>
<path d="M68.8219 78.9721L76.4033 78.9162C76.4033 78.9162 76.1542 78.0041 75.6488 77.943C75.4978 77.9323 75.3461 77.9616 75.2144 78.027C75.0828 78.0923 74.9774 78.1906 74.9128 78.3083C74.9128 78.3083 74.9364 77.0343 73.9959 76.8229C73.0554 76.6116 72.2682 77.7449 72.2682 77.7449C72.2682 77.7449 71.6791 77.1087 70.8648 77.1555C70.0505 77.2023 69.8586 78.264 69.8586 78.264C69.8586 78.264 69.1457 77.8998 68.8219 78.9721Z" fill="#455A64"/>
<path d="M63.4542 104.258L79.4899 104.141C79.4899 104.141 79.4552 102.099 77.8774 101.568C77.4515 101.415 76.9779 101.384 76.5274 101.481C76.0769 101.577 75.6735 101.795 75.3775 102.102C75.3775 102.102 74.7236 98.3598 71.786 98.3812C68.8485 98.4027 67.4415 101.651 67.4415 101.651C67.4415 101.651 66.7824 100.678 65.1534 100.873C63.5244 101.067 63.4542 104.258 63.4542 104.258Z" fill="#455A64"/>
<path d="M71.3122 104.968L88.0951 104.846C88.0951 104.846 87.5353 102.828 86.4319 102.699C85.3285 102.571 84.7998 103.505 84.7998 103.505C84.7998 103.505 84.8528 100.684 82.7754 100.22C80.6979 99.7552 78.952 102.257 78.952 102.257C78.952 102.257 77.6504 100.847 75.8645 100.951C74.0785 101.055 73.6357 103.404 73.6357 103.404C73.6357 103.404 72.0302 102.598 71.3122 104.968Z" fill="#37474F"/>
<path d="M118.94 86.8345L107.513 86.9179C107.513 86.9179 107.539 85.462 108.663 85.0694C108.968 84.9537 109.308 84.9257 109.631 84.9897C109.954 85.0536 110.243 85.206 110.454 85.4239C110.454 85.4239 110.914 82.7445 113.01 82.7292C115.105 82.7139 116.097 85.0152 116.097 85.0152C116.274 84.7931 116.523 84.6197 116.813 84.5164C117.103 84.4131 117.422 84.3844 117.729 84.4339C118.897 84.5551 118.94 86.8345 118.94 86.8345Z" fill="#455A64"/>
<path d="M112.145 88.9309C112.145 88.9309 111.527 86.466 110.294 86.0955C109.062 85.725 108.305 86.8307 108.305 86.8307C108.305 86.8307 108.026 84.4738 106.266 83.7804C104.506 83.0871 103.199 84.5427 103.199 84.5427C103.199 84.5427 101.859 81.5594 99.4579 81.577C97.0568 81.5945 95.8398 85.9968 95.8398 85.9968C95.8398 85.9968 94.4227 84.7028 92.9701 85.4509C91.5176 86.1989 91.515 89.0887 91.515 89.0887L112.145 88.9309Z" fill="#37474F"/>
<path d="M67.4355 96.0358L43.6104 96.2312L43.6146 108.595L67.4398 108.399L67.4355 96.0358Z" fill="#2429A6"/>
<path opacity="0.1" d="M67.4191 96.0358L43.6082 96.2306L43.6103 102.026L67.4211 101.831L67.4191 96.0358Z" fill="black"/>
<path d="M67.976 94.2084L43.0399 94.4124L43.042 100.155L67.9781 99.9506L67.976 94.2084Z" fill="#2429A6"/>
<path d="M60.7465 90.9483L60.7492 94.2324L58.9408 94.248L58.9424 92.3778L52.0542 92.4353L52.0526 94.303L50.2469 94.3186L50.247 91.0345L60.7465 90.9483Z" fill="#263238"/>
<path d="M48.108 98.7369L46.4771 98.7502L46.478 101.514L48.1089 101.5L48.108 98.7369Z" fill="#263238"/>
<path d="M64.5589 98.6385L62.928 98.6519L62.929 101.415L64.5599 101.402L64.5589 98.6385Z" fill="#263238"/>
</svg>
